<?xml version="1.0" encoding="UTF-8"?>
<svg version="1.1" xmlns="http://www.w3.org/2000/svg" width="2000" height="2000">
<path d="M0 0 C660 0 1320 0 2000 0 C2000 660 2000 1320 2000 2000 C1340 2000 680 2000 0 2000 C0 1340 0 680 0 0 Z " fill="#031928" transform="translate(0,0)"/>
<path d="M0 0 C2.38554956 6.10672119 4.33389681 12.25763675 6.125 18.5625 C6.38925781 19.46935547 6.65351562 20.37621094 6.92578125 21.31054688 C8.3250777 26.20808446 9.33519771 30.93975732 10 36 C10.69026632 37.80784036 11.383713 39.61465548 12.10546875 41.41015625 C13.58886228 45.70487201 14.5878437 50.12411972 15.6418457 54.54077148 C16.53223961 58.36975643 16.53223961 58.36975643 18 62 C18.039992 63.99960012 18.04346799 66.00047242 18 68 C18.66 68 19.32 68 20 68 C23.65859507 76.28071327 25.49500784 83.42120397 26.4765625 92.421875 C27.23564351 97.61081686 29.02130885 102.171688 31 107 C33.46229826 113.38623477 34.67436093 119.58463021 35.5703125 126.375 C35.72459909 128.91913017 35.72459909 128.91913017 37 130 C37.04080783 131.99958364 37.04254356 134.00045254 37 136 C37.99 136.33 38.98 136.66 40 137 C40.83663028 139.6081428 41.49205656 142.08323559 42.0625 144.75 C42.38338791 146.18304158 42.70753861 147.61535696 43.03515625 149.046875 C43.19209961 149.73370361 43.34904297 150.42053223 43.51074219 151.12817383 C43.99647376 153.15919368 43.99647376 153.15919368 45.08203125 155.62109375 C46.21245662 158.55057907 46.41883181 161.18561572 46.625 164.3125 C46.73714844 165.91544922 46.73714844 165.91544922 46.8515625 167.55078125 C46.90054687 168.35902344 46.94953125 169.16726563 47 170 C47.66 170 48.32 170 49 170 C50.75747614 174.50353262 51.19294408 178.17639811 51 183 C51.66 183 52.32 183 53 183 C53.16081055 183.71953857 53.32162109 184.43907715 53.48730469 185.18041992 C57.64384056 203.75217173 57.64384056 203.75217173 63 222 C64.98 228.435 64.98 228.435 67 235 C97.03 235.33 127.06 235.66 158 236 C158 236.99 158 237.98 158 239 C155.69921875 241.2265625 155.69921875 241.2265625 152.6875 243.625 C151.70136719 244.42164063 150.71523437 245.21828125 149.69921875 246.0390625 C147 248 147 248 144 249 C143.690625 249.639375 143.38125 250.27875 143.0625 250.9375 C141.72172853 253.54017403 140.68271824 253.91929654 138 255 C135.95149493 255.24839699 135.95149493 255.24839699 133.728405 255.24609566 C132.87745908 255.25007775 132.02651315 255.25405985 131.14978099 255.25816262 C130.21982287 255.25233693 129.28986475 255.24651125 128.33172607 255.24050903 C126.84427002 255.24307231 126.84427002 255.24307231 125.32676435 255.24568737 C121.99478826 255.24898886 118.66301231 255.2379676 115.33105469 255.22705078 C112.94625859 255.22648681 110.56146215 255.22680295 108.17666626 255.22793579 C102.36719692 255.22845111 96.55779343 255.21976826 90.74833915 255.20706047 C83.98864702 255.19276808 77.22896429 255.18977055 70.46925917 255.18748413 C58.41438803 255.1831067 46.35954395 255.1697963 34.3046875 255.15087891 C22.59440242 255.13252135 10.88412469 255.11836424 -0.82617188 255.10986328 C-1.54797391 255.10933783 -2.26977595 255.10881239 -3.01345077 255.10827102 C-6.63451343 255.10566095 -10.25557614 255.10313353 -13.87663889 255.10064721 C-43.91777822 255.07991322 -73.95888595 255.04453773 -104 255 C-102.63760782 252.15776803 -101.44766831 250.03972359 -99 248 C-98.34 248 -97.68 248 -97 248 C-97 247.34 -97 246.68 -97 246 C-95.38025441 244.28769752 -93.7041054 242.62836738 -92 241 C-91.31613724 240.13127762 -90.63227448 239.26255524 -89.9276886 238.36750793 C-85.77274816 235.00756916 -82.53883711 235.32950769 -77.34448242 235.43237305 C-76.3781488 235.43164291 -75.41181519 235.43091278 -74.41619873 235.43016052 C-71.22871365 235.43363822 -68.04269789 235.47250925 -64.85546875 235.51171875 C-62.64301858 235.52104619 -60.43055807 235.52816263 -58.21809387 235.53315735 C-52.39978436 235.55223233 -46.58210064 235.60133835 -40.76403809 235.65667725 C-34.82520005 235.7078584 -28.88626072 235.73066903 -22.94726562 235.75585938 C-11.2979024 235.80945586 0.35099673 235.89477544 12 236 C11.566875 234.22882813 11.566875 234.22882813 11.125 232.421875 C10.74976277 230.86464048 10.37477586 229.30734562 10 227.75 C9.71382812 226.58404297 9.71382812 226.58404297 9.421875 225.39453125 C9.24140625 224.64042969 9.0609375 223.88632812 8.875 223.109375 C8.70742187 222.41811523 8.53984375 221.72685547 8.3671875 221.01464844 C8 219 8 219 8 215 C7.34 215 6.68 215 6 215 C5.49411853 213.08487728 4.99551609 211.16783078 4.5 209.25 C4.08234375 207.64898438 4.08234375 207.64898438 3.65625 206.015625 C3 203 3 203 3 199 C2.34 199 1.68 199 1 199 C0.83723958 197.01432292 0.67447917 195.02864583 0.51171875 193.04296875 C0.1638664 190.91149732 0.1638664 190.91149732 -1.47265625 189.52734375 C-3.43494448 187.56505552 -3.64050382 186.07936956 -4.125 183.375 C-4.49097593 180.40059351 -4.49097593 180.40059351 -6 178 C-6.32577332 175.81731875 -6.61013953 173.62840726 -6.875 171.4375 C-7.62928473 165.82607873 -8.84083523 161.20162421 -11 156 C-11 155.01 -11 154.02 -11 153 C-11.66 153 -12.32 153 -13 153 C-13.09796875 152.46375 -13.1959375 151.9275 -13.296875 151.375 C-14.09108372 147.21225083 -14.96003921 143.08688425 -16.0234375 138.984375 C-16.20422852 138.28570313 -16.38501953 137.58703125 -16.57128906 136.8671875 C-16.93405883 135.480089 -17.30298005 134.0945814 -17.67871094 132.7109375 C-18.7243056 128.71040138 -19.19244856 125.13122917 -19 121 C-19.66 121 -20.32 121 -21 121 C-21 119.68 -21 118.36 -21 117 C-21.66 117 -22.32 117 -23 117 C-23.10957031 116.22914063 -23.21914062 115.45828125 -23.33203125 114.6640625 C-23.49058594 113.66117188 -23.64914062 112.65828125 -23.8125 111.625 C-23.96332031 110.62726563 -24.11414062 109.62953125 -24.26953125 108.6015625 C-24.78772298 105.6712636 -24.78772298 105.6712636 -28 104 C-28.51171875 101.8359375 -28.51171875 101.8359375 -28.6875 99.375 C-28.78611328 98.14910156 -28.78611328 98.14910156 -28.88671875 96.8984375 C-28.92410156 96.27195312 -28.96148438 95.64546875 -29 95 C-30.65 95 -32.3 95 -34 95 C-34.33 95.99 -34.66 96.98 -35 98 C-36.77734375 99.4296875 -36.77734375 99.4296875 -38.9375 100.875 C-42.42456914 103.36223693 -43.48500739 104.99609096 -45 109 C-45.89074219 109.43699219 -46.78148437 109.87398437 -47.69921875 110.32421875 C-51.32834012 112.16669575 -53.7538606 114.31819857 -56.6875 117.125 C-61.68596882 121.89532294 -61.68596882 121.89532294 -65 123 C-65.433125 123.8971875 -65.433125 123.8971875 -65.875 124.8125 C-67.37206594 127.72346154 -69.34303887 129.14012721 -72 131 C-72.66 131 -73.32 131 -74 131 C-74.33 132.32 -74.66 133.64 -75 135 C-76.32 135 -77.64 135 -79 135 C-79.28875 135.598125 -79.5775 136.19625 -79.875 136.8125 C-81 139 -81 139 -83 142 C-83.66 142 -84.32 142 -85 142 C-85.33 142.99 -85.66 143.98 -86 145 C-88.32349131 147.06532561 -90.57589087 148.77075182 -93.3125 150.25 C-95.79031871 151.86346335 -97.41162168 153.37929334 -99.4375 155.5 C-104.60157727 160.81050668 -110.44537907 165.18634929 -116.30322266 169.69238281 C-122.16355525 174.20863337 -127.83630047 178.6887662 -133 184 C-137.54054054 188 -137.54054054 188 -141 188 C-141.33 189.32 -141.66 190.64 -142 192 C-142.66 192 -143.32 192 -144 192 C-144.2371875 192.58265625 -144.474375 193.1653125 -144.71875 193.765625 C-146.2726806 196.47552837 -148.01929431 197.86530802 -150.5 199.75 C-151.2940625 200.36359375 -152.088125 200.9771875 -152.90625 201.609375 C-155 203 -155 203 -157 203 C-157.24105469 203.598125 -157.48210937 204.19625 -157.73046875 204.8125 C-159.25555218 207.44033607 -160.74162068 208.40994355 -163.3125 210 C-168.81611366 213.51350696 -173.43491482 217.32078769 -178 222 C-179.66666667 223.66666667 -181.33333333 225.33333333 -183 227 C-183.53625 227.5775 -184.0725 228.155 -184.625 228.75 C-186 230 -186 230 -189 231 C-189.66 230.67 -190.32 230.34 -191 230 C-191 230.99 -191 231.98 -191 233 C-190.34 233 -189.68 233 -189 233 C-189 233.66 -189 234.32 -189 235 C-179.58851853 237.27627122 -170.35300446 237.20347853 -160.75 237.0625 C-158.47073107 237.03467453 -156.19153325 237.00999067 -153.91217041 236.99131775 C-151.8551151 236.97369087 -149.79815059 236.94625749 -147.74121094 236.91821289 C-144 237 -144 237 -140.07910156 237.56420898 C-139.06299805 237.70802002 -138.04689453 237.85183105 -137 238 C-136.67 237.67 -136.34 237.34 -136 237 C-133.32941149 236.85884839 -130.67567762 236.95752893 -128 237 C-127.67 237.99 -127.34 238.98 -127 240 C-128.32 240.33 -129.64 240.66 -131 241 C-131 241.66 -131 242.32 -131 243 C-131.66 243 -132.32 243 -133 243 C-133 243.66 -133 244.32 -133 245 C-137.35294118 249 -137.35294118 249 -141 249 C-141 249.66 -141 250.32 -141 251 C-141.66 251 -142.32 251 -143 251 C-143.33 251.99 -143.66 252.98 -144 254 C-209.01 254 -274.02 254 -341 254 C-339.05018759 250.10037518 -338.15872798 249.07851656 -334.8125 246.625 C-331.55710672 244.2772512 -331.55710672 244.2772512 -328.67280579 241.5113678 C-325.05689175 237.70143812 -322.30981876 236.57575169 -317.05224609 236.36645508 C-314.70884953 236.3875782 -312.36559254 236.44038959 -310.0234375 236.51953125 C-308.15832016 236.54293831 -308.15832016 236.54293831 -306.25552368 236.56681824 C-302.96539802 236.61109096 -299.67709232 236.67970165 -296.38775635 236.76287842 C-291.74996897 236.87721632 -287.11178119 236.9599884 -282.47305298 237.02604675 C-280.0075599 237.06273605 -277.54224155 237.11546926 -275.07748413 237.18598938 C-273.95927277 237.20558212 -272.8410614 237.22517487 -271.68896484 237.24536133 C-270.21839127 237.28249992 -270.21839127 237.28249992 -268.71810913 237.32038879 C-263.02154188 236.64892337 -259.21862884 232.59379774 -255.1875 228.8125 C-254.66124023 228.32491211 -254.13498047 227.83732422 -253.59277344 227.33496094 C-249.91735995 223.91131889 -246.36204636 220.3817455 -242.83203125 216.80859375 C-239.16890083 213.1923264 -235.22236812 209.90139513 -231.31298828 206.55664062 C-229.37304772 204.89455745 -227.43586396 203.22932935 -225.5 201.5625 C-224.51592163 200.71655273 -224.51592163 200.71655273 -223.51196289 199.85351562 C-219.35830226 196.25607888 -215.41819215 192.55233741 -211.7109375 188.48828125 C-210 187 -210 187 -207.6015625 186.125 C-204.15571731 184.63490478 -202.4479588 182.51412743 -200 179.6875 C-191.35182227 169.78263395 -191.35182227 169.78263395 -187.625 167.625 C-184.43892365 165.65266702 -182.12347671 163.22733473 -179.55078125 160.5234375 C-178 159 -178 159 -176 158 C-175.15307099 155.77403998 -174.53153701 153.51636413 -173.87890625 151.2265625 C-172.9196933 148.79655636 -172.02753794 147.62402302 -170 146 C-169.01 145.67 -168.02 145.34 -167 145 C-166.71125 144.360625 -166.4225 143.72125 -166.125 143.0625 C-164.608641 140.2825085 -162.88053053 140.10789636 -160 139 C-159.67 138.01 -159.34 137.02 -159 136 C-156.29438476 133.5348839 -153.97134628 131.47254684 -150.6875 129.875 C-148.63229657 129.05794443 -148.63229657 129.05794443 -148 126 C-146.07421875 124.3515625 -146.07421875 124.3515625 -143.6875 122.625 C-140.97772537 120.60119033 -139.00782426 119.01019524 -136.9375 116.3125 C-134.5764922 113.49452294 -132.25297429 112.54333335 -128.95703125 111.0390625 C-126.12225439 109.53397139 -124.19153411 107.31328601 -122 105 C-120.66666667 104.33333333 -119.33333333 103.66666667 -118 103 C-116.27106504 101.36986132 -114.63489583 99.72094298 -113 98 C-111.46647884 96.38804477 -109.92419317 94.78439928 -108.375 93.1875 C-107.61960937 92.39730469 -106.86421875 91.60710937 -106.0859375 90.79296875 C-104 89 -104 89 -101 89 C-100.93554688 88.42121094 -100.87109375 87.84242188 -100.8046875 87.24609375 C-99.67525132 84.0935413 -97.80429315 83.02343195 -95.125 81.0625 C-91.36484674 78.3054197 -89.33065119 76.00250498 -87 72 C-84.80859375 69.76171875 -84.80859375 69.76171875 -82.4375 67.6875 C-81.65246094 66.99011719 -80.86742187 66.29273438 -80.05859375 65.57421875 C-78 64 -78 64 -76 64 C-75.7525 63.40703125 -75.505 62.8140625 -75.25 62.203125 C-73.81031137 59.6656738 -72.34848507 58.45955898 -70 56.75 C-69.29875 56.22921875 -68.5975 55.7084375 -67.875 55.171875 C-66 54 -66 54 -64 54 C-63.814375 53.2575 -63.62875 52.515 -63.4375 51.75 C-61.65979116 48.34916569 -59.93680636 47.66934524 -56.62109375 45.98046875 C-54.50815128 44.70252042 -53.74778363 43.32643797 -53 41 C-52.34 41 -51.68 41 -51 41 C-51 40.34 -51 39.68 -51 39 C-46.52941176 35 -46.52941176 35 -44 35 C-44 34.34 -44 33.68 -44 33 C-41.08450328 30.70794283 -38.05280592 28.61186888 -35.015625 26.484375 C-31.88444904 23.90480517 -30.16565712 21.39728876 -28 18 C-26.10546875 16.2421875 -26.10546875 16.2421875 -24.1875 14.875 C-23.49398438 14.37871094 -22.80046875 13.88242187 -22.0859375 13.37109375 C-20.19803504 12.1301691 -18.29620536 11.01597737 -16.3125 9.9375 C-12.29799318 7.58939224 -9.45027818 4.75241947 -6.5 1.1875 C-4.3553429 -0.51035354 -2.65005894 -0.21486964 0 0 Z " fill="#187AA2" transform="translate(1269,660)"/>
<path d="M0 0 C0.71542969 0.59683594 1.43085938 1.19367187 2.16796875 1.80859375 C3.14378906 2.58460938 4.11960937 3.360625 5.125 4.16015625 C19.50326016 16.19750615 28.54008789 36.60793441 31.16796875 54.80859375 C32.78258944 85.90507479 29.93099506 112.60606339 8.79296875 136.99609375 C4.94698072 141.18162572 0.88470775 144.64696489 -3.83203125 147.80859375 C3.06967892 156.05230312 10.4658029 163.85768633 17.8125 171.703125 C35.16796875 190.23679582 35.16796875 190.23679582 35.16796875 191.80859375 C29.63654817 192.08219913 24.10912339 192.28084624 18.57250977 192.4128418 C16.6932308 192.46789155 14.81441731 192.5427649 12.93676758 192.63842773 C-2.65394694 193.41237613 -2.65394694 193.41237613 -7.92553711 189.53076172 C-10.19828771 186.73429756 -12.02330779 183.92000788 -13.83203125 180.80859375 C-14.81833738 179.6244534 -15.83792047 178.46617129 -16.90625 177.35546875 C-17.76863281 176.4325 -18.63101563 175.50953125 -19.51953125 174.55859375 C-19.99318115 174.06335205 -20.46683105 173.56811035 -20.95483398 173.05786133 C-23.52648003 170.34258258 -25.49712737 167.69875869 -27.39453125 164.49609375 C-28.68785598 162.74066957 -28.68785598 162.74066957 -30.83203125 161.80859375 C-36.11530699 161.53709962 -41.2187054 162.03585538 -46.47021484 162.58886719 C-71.21145891 164.89061617 -93.33761074 159.2074937 -112.67578125 143.6484375 C-129.46682344 129.32129824 -140.21725902 108.7032036 -142.83203125 86.80859375 C-143.12048068 81.82560433 -143.15717791 76.86146613 -143.14453125 71.87109375 C-143.16064453 70.60330078 -143.17675781 69.33550781 -143.19335938 68.02929688 C-143.2034383 48.36532098 -136.6162647 27.97683344 -123.83203125 12.80859375 C-123.18621094 12.01839844 -122.54039062 11.22820313 -121.875 10.4140625 C-92.41908125 -24.13693409 -35.19708289 -28.38913649 0 0 Z " fill="#FCFCFC" transform="translate(488.83203125,965.19140625)"/>
<path d="M0 0 C10.56 0 21.12 0 32 0 C32 59.4 32 118.8 32 180 C22.43 180 12.86 180 3 180 C0.75 167.625 0.75 167.625 1 163 C0.34 163 -0.32 163 -1 163 C-1.25265625 163.58136719 -1.5053125 164.16273438 -1.765625 164.76171875 C-6.55438436 173.44513367 -17.11959006 178.51054507 -26 182 C-42.28044909 185.19627646 -58.42041599 183.33493607 -72.8125 174.875 C-87.91640929 164.32947775 -96.66405012 150.80924047 -101 133 C-101.28810547 131.87078125 -101.28810547 131.87078125 -101.58203125 130.71875 C-104.52338176 111.58622706 -100.82340961 93.04035586 -89.96484375 76.9921875 C-81.82193687 66.38128525 -71.65118379 59.23485477 -59 55 C-58.30003906 54.75507812 -57.60007812 54.51015625 -56.87890625 54.2578125 C-43.64322559 50.49093262 -28.29682259 52.28047254 -16.19140625 58.42578125 C-10.37793022 61.76874592 -4.76278108 65.35582838 -1 71 C-0.67 47.57 -0.34 24.14 0 0 Z " fill="#FCFCFD" transform="translate(1312,945)"/>
<path d="M0 0 C6.02274973 1.11641321 11.88930293 1.35303691 18.00292969 1.42114258 C19.64428642 1.4501918 19.64428642 1.4501918 21.31880188 1.47982788 C24.77202864 1.53902579 28.22528983 1.58576752 31.67871094 1.63208008 C34.03744846 1.67031499 36.39617283 1.70936981 38.75488281 1.74926758 C44.50021726 1.84467737 50.24561691 1.92892602 55.99121094 2.00708008 C55.99121094 8.60708008 55.99121094 15.20708008 55.99121094 22.00708008 C45.59621094 22.50208008 45.59621094 22.50208008 34.99121094 23.00708008 C35.98121094 25.20364258 35.98121094 25.20364258 36.99121094 27.44458008 C40.60983357 37.37654431 40.61991138 51.01525563 36.99121094 61.00708008 C35.24482166 64.53679133 33.23082325 67.77145927 30.99121094 71.00708008 C29.90839844 72.58489258 29.90839844 72.58489258 28.80371094 74.19458008 C18.88758412 84.11070689 5.64366424 89.12289463 -8.21582031 89.14379883 C-9.53646484 89.13799805 -9.53646484 89.13799805 -10.88378906 89.13208008 C-12.19283203 89.13788086 -12.19283203 89.13788086 -13.52832031 89.14379883 C-17.46560221 89.1378781 -21.00956135 89.00693818 -24.89941406 88.29223633 C-27.99427058 87.69199293 -27.99427058 87.69199293 -30.18847656 89.37036133 C-30.74792969 90.01360352 -31.30738281 90.6568457 -31.88378906 91.31958008 C-32.45871094 91.95508789 -33.03363281 92.5905957 -33.62597656 93.24536133 C-35.07196382 94.966376 -35.07196382 94.966376 -36.00878906 97.00708008 C-25.71395795 99.99038913 -15.47645422 101.12268817 -4.85668945 102.16113281 C10.96522439 103.73228932 27.92673968 106.4768028 38.99121094 119.00708008 C45.21828623 129.14919775 46.93760666 140.38732761 44.30761719 152.03442383 C43.36810192 154.5021133 42.30297072 156.71657694 40.99121094 159.00708008 C40.54390625 159.79598633 40.09660156 160.58489258 39.63574219 161.39770508 C32.29999271 173.27650584 20.33277388 179.60410693 6.99121094 183.00708008 C-13.24349272 186.68611711 -38.66044781 184.63725299 -56.00878906 173.00708008 C-61.76141179 168.82335446 -65.48648226 164.68744711 -68.00878906 158.00708008 C-68.53859375 156.62069336 -68.53859375 156.62069336 -69.07910156 155.20629883 C-71.48903337 146.91329819 -71.13152704 138.296881 -67.38378906 130.50708008 C-64.08761097 124.72513175 -60.5772486 119.71938644 -55.00878906 116.00708008 C-55.935625 115.36899414 -56.86246094 114.7309082 -57.81738281 114.07348633 C-59.02705598 113.23890562 -60.23668934 112.40426722 -61.44628906 111.56958008 C-62.05794922 111.14870117 -62.66960937 110.72782227 -63.29980469 110.29418945 C-67.89550781 107.12036133 -67.89550781 107.12036133 -69.00878906 106.00708008 C-69.58297431 102.54005315 -69.76633781 100.08011185 -67.67919922 97.1237793 C-65.79642013 95.14057151 -63.84494178 93.28375097 -61.82128906 91.44458008 C-60.471417 90.17479612 -59.1237208 88.90269468 -57.77832031 87.62817383 C-57.13459473 87.02344238 -56.49086914 86.41871094 -55.82763672 85.7956543 C-53.33955334 83.34898331 -51.17670703 80.73907768 -49.00878906 78.00708008 C-50.75372223 74.3011744 -52.98689815 71.12645752 -55.37597656 67.81176758 C-59.89510352 60.04924807 -61.71680073 53.09559854 -61.57128906 44.13208008 C-61.55960693 43.16753906 -61.5479248 42.20299805 -61.53588867 41.20922852 C-61.13448251 28.22860635 -56.39434789 19.87836171 -47.00878906 11.00708008 C-33.52583434 -0.30859908 -17.14992961 -3.53958322 0 0 Z " fill="#FBFCFC" transform="translate(1435.0087890625,998.992919921875)"/>
<path d="M0 0 C37.95 0 75.9 0 115 0 C115 8.58 115 17.16 115 26 C87.61 26 60.22 26 32 26 C32 41.84 32 57.68 32 74 C56.75 74 81.5 74 107 74 C107 82.25 107 90.5 107 99 C82.58 99 58.16 99 33 99 C33 115.5 33 132 33 149 C60.06 149 87.12 149 115 149 C115 157.58 115 166.16 115 175 C77.05 175 39.1 175 0 175 C0 117.25 0 59.5 0 0 Z " fill="#FBFBFC" transform="translate(1075,950)"/>
<path d="M0 0 C11.35032264 8.35553289 18.68766434 18.70624242 21.54270935 32.65066528 C22.07501819 36.54945587 22.13222933 40.37490207 22.11352539 44.30029297 C22.11367142 45.11071548 22.11381744 45.921138 22.1139679 46.75611877 C22.11327471 49.4181695 22.10551023 52.08014909 22.09765625 54.7421875 C22.09578996 56.59449221 22.09436705 58.44679741 22.09336853 60.29910278 C22.08955997 65.1619606 22.07974392 70.02478831 22.06866455 74.88763428 C22.05841466 79.85477288 22.05386325 84.82191636 22.04882812 89.7890625 C22.03812011 99.52605699 22.02053682 109.26302127 22 119 C12.76 119 3.52 119 -6 119 C-6.99 112.73 -7.98 106.46 -9 100 C-9.804375 101.155 -10.60875 102.31 -11.4375 103.5 C-19.2171 113.79975212 -28.31236689 119.63491042 -41 122 C-55.89894207 123.45038162 -70.70403329 122.3030224 -82.88671875 112.83203125 C-90.69902462 106.05944076 -95.05025105 98.06943565 -96.44921875 87.65625 C-96.79429917 77.66081724 -94.17356371 68.66620386 -87.83203125 60.84765625 C-77.02859073 49.95207551 -62.80472538 45.93465915 -47.85157776 45.71517944 C-42.79603644 45.70128552 -37.74258363 45.74931642 -32.6875 45.8125 C-30.57878562 45.8275773 -28.47006079 45.8412603 -26.36132812 45.85351562 C-21.24062326 45.88627231 -16.12042945 45.93788593 -11 46 C-11.13799634 44.06993123 -11.2824652 42.14032446 -11.4296875 40.2109375 C-11.50944824 39.13634277 -11.58920898 38.06174805 -11.67138672 36.95458984 C-12.27078823 31.56532006 -14.32238759 28.43109043 -18.1875 24.8125 C-24.64456593 19.68720392 -30.76920767 18.42694799 -38.96484375 18.64453125 C-45.75755905 19.44007448 -52.12983171 22.12983171 -57 27 C-59.55422942 30.55767669 -60.10639485 32.53197427 -61 37 C-71.56 37 -82.12 37 -93 37 C-90.62737899 22.76427392 -86.52757806 12.46549369 -74.8984375 3.6484375 C-67.38996051 -1.58934357 -59.98107358 -4.92459373 -51 -7 C-49.83597656 -7.28617188 -49.83597656 -7.28617188 -48.6484375 -7.578125 C-33.09757872 -10.05525295 -13.67000256 -8.0836145 0 0 Z " fill="#FBFBFB" transform="translate(781,1006)"/>
<path d="M0 0 C0.99257812 0.35191406 1.98515625 0.70382812 3.0078125 1.06640625 C12.23789346 4.57106105 19.30864702 9.76610488 26 17 C26.45761719 17.44085937 26.91523437 17.88171875 27.38671875 18.3359375 C31.11541889 22.19186363 33.46606868 26.55735105 35.75 31.375 C36.19061768 32.29321533 36.19061768 32.29321533 36.64013672 33.22998047 C42.24057164 45.54186776 41 56.11056438 41 70 C9.98 70 -21.04 70 -53 70 C-50.69368148 80.37843334 -48.43101394 87.51935464 -40.35546875 94.52734375 C-33.98927061 98.50753728 -27.92179579 99.52382599 -20.5 99.5 C-19.69691406 99.52835938 -18.89382813 99.55671875 -18.06640625 99.5859375 C-10.8110974 99.60945552 -6.14628922 96.97912395 -0.94140625 92.05078125 C-0.48636719 91.47714844 -0.03132813 90.90351562 0.4375 90.3125 C0.91058594 89.73113281 1.38367187 89.14976563 1.87109375 88.55078125 C3.07636253 86.9846433 3.07636253 86.9846433 4 85 C14.89 85 25.78 85 37 85 C31.66841426 100.99475722 23.13054533 112.97460467 8 121 C-1.5310196 125.55831372 -10.78464038 127.37908316 -21.3125 127.3125 C-22.23530762 127.30758545 -23.15811523 127.3026709 -24.10888672 127.29760742 C-41.03402047 127.00753877 -56.00337996 120.58153547 -68.2578125 108.8359375 C-83.51696185 92.41639657 -85.82665079 74.54578298 -85.17919922 52.96728516 C-84.28158107 38.10400048 -76.49093639 23.14032322 -65.82421875 12.9140625 C-48.22758669 -2.11939403 -22.05892736 -8.55556528 0 0 Z " fill="#FBFCFC" transform="translate(1590,1001)"/>
<path d="M0 0 C0.74088867 0.00894287 1.48177734 0.01788574 2.24511719 0.02709961 C17.89144964 0.35405307 30.05539804 4.76848693 41.53515625 15.8203125 C54.79338077 30.36460818 57.47340145 48.79926389 56.88623047 67.79296875 C56.10866244 81.81706318 52.14587851 95.58199542 42.75 106.25 C42.17636719 106.92804688 41.60273438 107.60609375 41.01171875 108.3046875 C35.76008428 114.06735059 29.88773886 117.24709807 22.75 120.25 C21.98300781 120.59160156 21.21601563 120.93320313 20.42578125 121.28515625 C6.68593517 126.44059588 -11.39124137 123.96148412 -24.4375 118.125 C-38.60568374 110.39689978 -46.69012545 97.39933527 -51.25 82.25 C-55.29495329 62.38593003 -53.95736868 40.23432583 -43.08984375 22.93359375 C-33.15271063 8.43930404 -17.72636326 -0.2438092 0 0 Z " fill="#051A2A" transform="translate(431.25,975.75)"/>
<path d="M0 0 C1.1695412 1.01497628 2.3165126 2.05664111 3.4375 3.125 C4.04851562 3.64835938 4.65953125 4.17171875 5.2890625 4.7109375 C14.51082155 13.06938294 19.10374997 26.40766166 19.78601074 38.65472412 C19.94651237 43.79912316 19.88879551 48.94027447 19.828125 54.0859375 C19.82064625 55.97164301 19.81496107 57.85735639 19.81097412 59.74307251 C19.79584624 64.65863253 19.75667839 69.57370478 19.7121582 74.48907471 C19.67092512 79.52389939 19.65290378 84.55880442 19.6328125 89.59375 C19.59016893 99.43774661 19.51992749 109.28125606 19.4375 119.125 C8.8775 119.125 -1.6825 119.125 -12.5625 119.125 C-12.592229 115.73444336 -12.592229 115.73444336 -12.62255859 112.27539062 C-12.689617 104.78749194 -12.76725395 97.29972945 -12.85002708 89.81198883 C-12.89986529 85.2744296 -12.94619598 80.73689225 -12.984375 76.19921875 C-13.02138597 71.8159789 -13.06778786 67.43292785 -13.12056351 63.04985046 C-13.13902376 61.38184437 -13.15416224 59.71379793 -13.16584396 58.04573059 C-13.18285066 55.70021438 -13.21191835 53.35512272 -13.24365234 51.00976562 C-13.24581253 50.3278717 -13.24797272 49.64597778 -13.25019836 48.94342041 C-13.35450957 42.86542245 -14.25279862 36.59812249 -17.5625 31.375 C-19.5625 28.125 -19.5625 28.125 -20.46875 26.03125 C-22.09906958 23.18983587 -24.43271321 22.55902861 -27.46875 21.671875 C-35.75558125 20.20703109 -46.04877853 19.20148613 -53.75 23.125 C-55.76710055 24.49185344 -55.76710055 24.49185344 -57.5625 26.125 C-58.20445312 26.68316406 -58.84640625 27.24132813 -59.5078125 27.81640625 C-69.1418803 37.470629 -69.16503864 50.48971773 -69.171875 63.265625 C-69.18688907 64.88516872 -69.20362287 66.50469732 -69.22198486 68.12420654 C-69.26530918 72.34581279 -69.28557901 76.56721266 -69.30072021 80.78900146 C-69.32389405 85.87631928 -69.37628237 90.96341345 -69.42366028 96.05055237 C-69.49207971 103.74209259 -69.5238467 111.43299367 -69.5625 119.125 C-80.1225 119.125 -90.6825 119.125 -101.5625 119.125 C-101.5625 78.205 -101.5625 37.285 -101.5625 -4.875 C-91.9925 -4.875 -82.4225 -4.875 -72.5625 -4.875 C-71.9025 1.725 -71.2425 8.325 -70.5625 15.125 C-69.2425 13.145 -67.9225 11.165 -66.5625 9.125 C-50.66989417 -9.75180693 -20.6064453 -14.76993767 0 0 Z " fill="#FDFDFD" transform="translate(929.5625,1005.875)"/>
<path d="M0 0 C10.56 0 21.12 0 32 0 C32.01458252 2.24989746 32.02916504 4.49979492 32.04418945 6.81787109 C32.09470337 14.28184522 32.16132735 21.7456144 32.23571491 29.20938683 C32.28029329 33.73120693 32.31957646 38.25293952 32.34643555 42.77490234 C32.3725943 47.14525 32.41308395 51.51525864 32.46318626 55.88539505 C32.47977046 57.54615664 32.49133701 59.20697676 32.49761391 60.8678093 C32.54698172 72.73795632 32.89255483 84.51209795 41 94 C45.20653337 97.47189955 49.61710903 98.6411406 55 99 C55.83660156 99.07476563 56.67320312 99.14953125 57.53515625 99.2265625 C66.18591681 99.68890976 72.2436163 97.10309958 78.875 91.625 C81.33253895 88.58921659 83.28053508 85.49089497 85 82 C85.52311768 80.95392578 86.04623535 79.90785156 86.58520508 78.83007812 C89.10210431 71.94622421 88.48379675 64.26679651 88.51171875 57.03125 C88.52858372 55.38357215 88.54673638 53.73590702 88.56611633 52.08825684 C88.61342538 47.77457659 88.64335777 43.46094795 88.66955566 39.14709473 C88.70472557 33.95893613 88.7616835 28.77097561 88.81494904 23.58297729 C88.89323888 15.72201073 88.94401334 7.86129946 89 0 C99.56 0 110.12 0 121 0 C121 40.92 121 81.84 121 124 C111.76 124 102.52 124 93 124 C91.515 114.1 91.515 114.1 90 104 C89.154375 105.36125 88.30875 106.7225 87.4375 108.125 C82.10698148 116.05243781 75.72516006 120.27197706 67 124 C66.25234375 124.32226562 65.5046875 124.64453125 64.734375 124.9765625 C53.49377932 129.06752759 39.08223724 128.23779635 28 124 C16.35624366 118.5435828 8.64259335 110.17812973 3.76733398 98.25085449 C-0.25365273 86.45591748 -0.40583129 74.9892502 -0.29296875 62.6953125 C-0.28735901 60.87686517 -0.28309544 59.05841324 -0.28010559 57.23995972 C-0.26876515 52.50204488 -0.23939379 47.76441514 -0.20599365 43.02661133 C-0.17505704 38.17272801 -0.16155033 33.31879768 -0.14648438 28.46484375 C-0.11451136 18.97641842 -0.06183458 9.48827775 0 0 Z " fill="#FCFCFD" transform="translate(540,1001)"/>
<path d="M0 0 C9.57 0 19.14 0 29 0 C29 10.89 29 21.78 29 33 C39.89 33 50.78 33 62 33 C62 41.91 62 50.82 62 60 C51.11 60 40.22 60 29 60 C29.0676563 67.71281872 29.1380958 75.42471569 29.2355423 83.1370697 C29.28012123 86.72889054 29.31957295 90.32059692 29.34643555 93.91259766 C29.37253144 97.37523752 29.41297699 100.83744493 29.46318626 104.29981613 C29.48787932 106.25720168 29.49788361 108.21475477 29.50764465 110.17227173 C29.53733589 111.97345963 29.53733589 111.97345963 29.56762695 113.81103516 C29.58428154 115.38988998 29.58428154 115.38988998 29.60127258 117.00064087 C30.07121464 120.5357 31.17864618 122.94790019 33 126 C38.22607873 129.86597937 44.12753087 129.54532384 50.375 129.6875 C55.634375 129.8421875 55.634375 129.8421875 61 130 C61 138.91 61 147.82 61 157 C56.67961957 157.09285594 52.36282749 157.17215868 48.04223633 157.21972656 C46.57889958 157.23959449 45.11563951 157.26669882 43.65258789 157.30175781 C29.70766437 157.62705963 17.53472403 156.04884577 7 146 C1.03534157 140.03534157 -2.77832278 131.50556102 -3.12025452 123.0133667 C-3.11803391 121.84976624 -3.11581329 120.68616577 -3.11352539 119.48730469 C-3.11367142 118.84298492 -3.11381744 118.19866516 -3.1139679 117.53482056 C-3.1132735 115.41380397 -3.10550336 113.29287617 -3.09765625 111.171875 C-3.09579039 109.69785612 -3.09436728 108.22383662 -3.09336853 106.74981689 C-3.08955661 102.87661008 -3.07973765 99.00344097 -3.06866455 95.13024902 C-3.05842193 91.17537954 -3.0538648 87.22050394 -3.04882812 83.265625 C-3.03811417 75.51039752 -3.02052812 67.75520885 -3 60 C-9.93 60 -16.86 60 -24 60 C-24 51.09 -24 42.18 -24 33 C-17.07 33 -10.14 33 -3 33 C-2.690625 29.596875 -2.38125 26.19375 -2.0625 22.6875 C-1.375 15.125 -0.6875 7.5625 0 0 Z " fill="#FDFDFD" transform="translate(990,968)"/>
<path d="M0 0 C8.10424634 4.91166445 12.97306458 11.2953261 16.13671875 20.19921875 C18.32860523 29.84947007 18.94418229 42.90676612 14.375 51.90234375 C8.16265888 61.3796937 0.75174952 66.41608349 -10 70 C-23.277698 70.63227133 -32.65337991 68.34480826 -42.75 59.625 C-51.65319815 49.23793549 -52.98066124 38.57919116 -52.25146484 25.29833984 C-51.33933298 16.96163174 -47.0720134 9.35302753 -40.6328125 4.05078125 C-39.80523438 3.47714844 -38.97765625 2.90351562 -38.125 2.3125 C-37.30257813 1.73113281 -36.48015625 1.14976563 -35.6328125 0.55078125 C-26.15319269 -5.03291173 -9.72035128 -5.46525775 0 0 Z " fill="#051A2A" transform="translate(1295,1030)"/>
<path d="M0 0 C1.00426025 0.09087891 1.00426025 0.09087891 2.02880859 0.18359375 C20.01972703 1.9202202 20.01972703 1.9202202 26.5 8.5625 C29.14690405 12.86371908 29.67741983 17.04166321 29 22 C25.85225398 28.06232567 21.44318237 31.74550177 15.16088867 34.3605957 C10.79686676 35.65190441 6.33064355 35.52830042 1.8125 35.5 C0.2814563 35.49359497 0.2814563 35.49359497 -1.28051758 35.48706055 C-8.90251369 35.31514496 -15.62711658 34.56817307 -22 30 C-26.82309224 24.50352665 -27.35492138 21.1951881 -27.27734375 13.98046875 C-26.7662429 8.48793426 -23.84622355 5.63312043 -19.875 2.1875 C-13.79015091 -2.44227648 -7.24669822 -0.65711444 0 0 Z " fill="#071C2B" transform="translate(1422,1123)"/>
<path d="M0 0 C4.15054912 2.50339064 7.07788406 6.03467437 9.234375 10.34765625 C9.41040647 12.76015317 9.50182468 15.1791652 9.546875 17.59765625 C9.60294922 19.55445313 9.60294922 19.55445313 9.66015625 21.55078125 C9.06059232 26.89735134 6.77152699 29.85320292 2.984375 33.53515625 C-3.89563023 38.06970515 -10.55884249 39.37642671 -18.765625 38.34765625 C-25.44545239 36.58870484 -30.00764297 33.13226431 -33.765625 27.34765625 C-35.92665725 20.8645595 -35.95714716 12.90722237 -33.078125 6.72265625 C-23.53447359 -3.07893168 -12.71609203 -5.64934662 0 0 Z " fill="#071C2C" transform="translate(1436.765625,1025.65234375)"/>
<path d="M0 0 C0.33 0.66 0.66 1.32 1 2 C-0.2404325 5.41294139 -2.18284545 7.2695194 -4.9375 9.5625 C-7.86998811 12.01481064 -7.86998811 12.01481064 -10.56640625 14.71484375 C-12 16 -12 16 -15 16 C-15.24105469 16.58007812 -15.48210937 17.16015625 -15.73046875 17.7578125 C-17.24012437 20.42409659 -18.96682905 21.91173255 -21.3125 23.875 C-24.0662714 26.23663435 -26.54150105 28.49618987 -28.75 31.375 C-31 34 -31 34 -33.3203125 34.84765625 C-36.74760746 36.321493 -38.57134226 38.35257365 -41.125 41.0625 C-44.62727135 44.69638687 -48.15535054 48.05292923 -52.125 51.1875 C-57.2360192 55.26011328 -61.99843046 59.63957168 -66.75 64.125 C-67.45914551 64.79426514 -68.16829102 65.46353027 -68.89892578 66.15307617 C-72.81307191 69.86881148 -76.67015289 73.6342072 -80.47192383 77.46484375 C-80.97618896 77.97144531 -81.4804541 78.47804688 -82 79 C-82.73029419 79.74443359 -82.73029419 79.74443359 -83.4753418 80.50390625 C-90.01517012 86.63642852 -99.50946205 85.06339109 -107.875 84.8515625 C-110.18226305 84.814576 -112.489557 84.77947713 -114.796875 84.74609375 C-118.40514781 84.69054405 -122.01174864 84.6246814 -125.61914062 84.52685547 C-129.12137013 84.43572116 -132.62184432 84.38982726 -136.125 84.3515625 C-137.1960498 84.31229645 -138.26709961 84.2730304 -139.37060547 84.23257446 C-144.98098435 84.21180394 -148.26514087 84.64750066 -152.57250977 88.40649414 C-153.72845473 89.59135676 -154.87269656 90.78785515 -156 92 C-158.37886818 93.87913472 -160.78938385 95.70147641 -163.21484375 97.51953125 C-165.11400327 98.89218068 -165.11400327 98.89218068 -166 101 C-165.33773816 100.83748025 -164.67547632 100.6749605 -163.99314594 100.50751591 C-160.3497159 99.88973825 -156.79196218 99.86510251 -153.10966492 99.87974548 C-152.32135074 99.87889106 -151.53303656 99.87803663 -150.72083408 99.87715632 C-148.08299051 99.87551101 -145.44521074 99.88100735 -142.80737305 99.88647461 C-140.91503399 99.88675671 -139.02269483 99.8865983 -137.13035583 99.8860321 C-131.9944425 99.88574503 -126.85855248 99.89162728 -121.72264457 99.89860606 C-116.35479586 99.90485452 -110.98694663 99.90544458 -105.61909485 99.90663147 C-95.45487359 99.90974037 -85.29066307 99.91794784 -75.12644655 99.92798096 C-63.55460542 99.93915576 -51.98276377 99.944656 -40.41091859 99.94967639 C-16.6072731 99.96013081 7.19636285 99.97772174 31 100 C31.33 99.34 31.66 98.68 32 98 C32.66 98 33.32 98 34 98 C34 97.34 34 96.68 34 96 C36.63892176 94.21694476 38.97178863 93.00940379 42 92 C42 91.34 42 90.68 42 90 C42.66 90 43.32 90 44 90 C44 89.34 44 88.68 44 88 C44.99 87.34 45.98 86.68 47 86 C47 85.34 47 84.68 47 84 C41.8306511 84.40556131 41.8306511 84.40556131 37 86 C34.99951442 85.66959338 32.99961946 85.33560856 31 85 C28.3243709 84.93092923 25.67772776 84.90636534 23.00390625 84.9375 C22.25213608 84.94128662 21.50036591 84.94507324 20.72581482 84.94897461 C17.53450658 84.96520114 14.34333057 84.99335665 11.15209961 85.02050781 C8.8110413 85.03869451 6.47000422 85.05072302 4.12890625 85.0625 C3.4182753 85.07079834 2.70764435 85.07909668 1.97547913 85.08764648 C-9.28656934 85.14228711 -9.28656934 85.14228711 -14 82 C-14 81.34 -14 80.68 -14 80 C-14.66 80 -15.32 80 -16 80 C-16 79.01 -16 78.02 -16 77 C-12.535 76.505 -12.535 76.505 -9 76 C-8.814375 75.278125 -8.62875 74.55625 -8.4375 73.8125 C-6.70248148 70.41789856 -4.83800899 69.2995398 -1.72265625 67.24609375 C0.19998756 65.97323676 0.19998756 65.97323676 1.9375 63.5625 C5.98983733 58.52777786 11.51120811 55.29327514 17 52 C17.44859375 51.54882812 17.8971875 51.09765625 18.359375 50.6328125 C20.92907635 48.07534783 23.85857925 46.00036391 26.74609375 43.81640625 C31.36045237 40.12978798 31.36045237 40.12978798 34 35 C35.63790712 33.95355934 37.31008021 32.9601817 39 32 C40.68477344 30.68962066 42.35648543 29.36176922 44 28 C44.66 28.33 45.32 28.66 46 29 C45.35933594 29.556875 44.71867187 30.11375 44.05859375 30.6875 C39.17052331 35.00007481 34.72013328 39.35853819 30.53125 44.34765625 C28.6117091 46.41899758 26.46878065 47.65980479 24 49 C23.34 49.99 22.68 50.98 22 52 C21.34 52 20.68 52 20 52 C20 52.66 20 53.32 20 54 C18.34928604 55.02611949 16.68029994 56.02308143 15 57 C14.443125 57.556875 13.88625 58.11375 13.3125 58.6875 C12.879375 59.120625 12.44625 59.55375 12 60 C11.34 60 10.68 60 10 60 C10 60.66 10 61.32 10 62 C9.34 62 8.68 62 8 62 C7.6596875 62.86625 7.6596875 62.86625 7.3125 63.75 C5.65273655 66.59530878 3.57933333 67.93653334 1 70 C-3.50196887 74.63544798 -3.50196887 74.63544798 -7 80 C22.7 80.495 22.7 80.495 53 81 C53 82.98 53 84.96 53 87 C51.80375 87.556875 50.6075 88.11375 49.375 88.6875 C44.57861587 91.08993665 40.61751025 93.82258236 37.375 98.1875 C35.66293061 100.44431874 34.67128666 101.00601864 32 102 C29.24862267 102.18566508 26.60060234 102.26120138 23.85028076 102.24050903 C23.02198549 102.24221788 22.19369021 102.24392673 21.34029508 102.24568737 C18.56108565 102.24898516 15.78211693 102.23797379 13.00292969 102.22705078 C11.01221726 102.22648673 9.02150442 102.22680311 7.03079224 102.22793579 C1.62207437 102.22851054 -3.78655512 102.21673641 -9.19525242 102.20278788 C-14.84604509 102.19030091 -20.4968397 102.18911162 -26.14764404 102.18673706 C-36.85023573 102.18051631 -47.55278665 102.16409743 -58.25536036 102.14403808 C-70.43901248 102.12169761 -82.62266653 102.11069031 -94.80633402 102.10064721 C-119.87091196 102.07973173 -144.9354537 102.04454417 -170 102 C-170 101.01 -170 100.02 -170 99 C-168.515 98.01 -168.515 98.01 -167 97 C-166.67 96.319375 -166.34 95.63875 -166 94.9375 C-165 93 -165 93 -162 92 C-160.6434836 90.69026002 -159.31442362 89.35197858 -158 88 C-153.09457725 83.57221052 -149.86219895 81.87696261 -143.19921875 81.87402344 C-142.0078833 81.87021667 -140.81654785 81.86640991 -139.58911133 81.86248779 C-138.30157959 81.86146057 -137.01404785 81.86043335 -135.6875 81.859375 C-133.67034206 81.84745057 -131.65322712 81.83208385 -129.63609314 81.81666946 C-124.65612485 81.77865534 -119.67641912 81.74738962 -114.69628906 81.74951172 C-111.23006356 81.7502978 -107.76472939 81.72698675 -104.29873657 81.6876297 C-102.33618143 81.67206284 -100.37347596 81.68252198 -98.41088867 81.69329834 C-97.21955322 81.67688293 -96.02821777 81.66046753 -94.80078125 81.64355469 C-93.75059814 81.63990906 -92.70041504 81.63626343 -91.6184082 81.63250732 C-88.7816194 81.250066 -88.7816194 81.250066 -87.28588867 78.59259033 C-86.64937378 77.30925812 -86.64937378 77.30925812 -86 76 C-83.65289345 73.8999573 -81.358381 72.20698573 -78.6328125 70.6328125 C-75.9225107 68.95194284 -73.63544457 67.11327975 -71.25 65 C-70.47140625 64.319375 -69.6928125 63.63875 -68.890625 62.9375 C-66.77458949 61.05081635 -66.77458949 61.05081635 -66 58 C-65.34 58 -64.68 58 -64 58 C-63.67 57.01 -63.34 56.02 -63 55 C-62.34 55 -61.68 55 -61 55 C-61 54.34 -61 53.68 -61 53 C-59.50390625 51.78125 -59.50390625 51.78125 -57.5625 50.5 C-54.77468153 48.7134637 -54.77468153 48.7134637 -53 46 C-52.01 45.67 -51.02 45.34 -50 45 C-47.63493157 42.99878825 -47.0106678 42.03200339 -46 39 C-44.37251976 37.61910767 -42.69443347 36.29786393 -41 35 C-38.91107299 33.14317599 -36.83650535 31.27184808 -34.76953125 29.390625 C-33 28 -33 28 -31 28 C-31 27.34 -31 26.68 -31 26 C-29.625 24.375 -29.625 24.375 -28 23 C-27.34 23 -26.68 23 -26 23 C-25.67 22.01 -25.34 21.02 -25 20 C-23.3984375 18.89453125 -23.3984375 18.89453125 -21.375 17.8125 C-18.1598067 15.91416779 -15.9771714 14.02041098 -13.625 11.125 C-9.76692348 6.41653538 -5.08609968 3.27475231 0 0 Z " fill="#044367" transform="translate(1094,813)"/>
<path d="M0 0 C6.06476468 3.80028693 11.10400888 9.33544528 13.11328125 16.32421875 C13.11328125 18.63421875 13.11328125 20.94421875 13.11328125 23.32421875 C-7.01671875 23.32421875 -27.14671875 23.32421875 -47.88671875 23.32421875 C-45.46397109 12.42185427 -42.68529207 6.56418051 -33.328125 0.515625 C-23.47801134 -4.29123047 -9.97250581 -4.77674648 0 0 Z " fill="#051B2A" transform="translate(1584.88671875,1027.67578125)"/>
<path d="M0 0 C1.11501892 0.00424484 1.11501892 0.00424484 2.25256348 0.00857544 C4.59563217 0.01965093 6.93829947 0.04473022 9.28125 0.0703125 C10.88280693 0.08035869 12.48436993 0.08948165 14.0859375 0.09765625 C17.9845265 0.1195486 21.88282052 0.15398864 25.78125 0.1953125 C25.93742936 5.32582691 24.95046518 8.75419322 22.59375 13.2578125 C22.30177734 13.85658203 22.00980469 14.45535156 21.70898438 15.07226562 C17.71123396 22.92161214 11.13173406 28.41975931 2.78125 31.1953125 C-5.06862665 32.00187091 -12.77004802 32.24706644 -19.21875 27.1953125 C-23.47479304 22.61188154 -24.57275887 19.63367185 -24.50390625 13.515625 C-23.965957 9.13833932 -21.48499656 6.46155906 -18.46875 3.4453125 C-12.70289123 0.24205763 -6.43785358 -0.09460916 0 0 Z " fill="#071C2B" transform="translate(743.21875,1071.8046875)"/>
<path d="M0 0 C0.66 0 1.32 0 2 0 C5.52061669 5.82722763 6.87855342 11.53215168 7.96020508 18.1875 C8.78452666 23.22032901 9.98624767 27.80353661 12.125 32.4375 C13.23947984 35.70133383 13.13424798 38.5766766 13 42 C13.66 42 14.32 42 15 42 C15.16435547 42.97839844 15.16435547 42.97839844 15.33203125 43.9765625 C16.63852507 52.48976667 16.63852507 52.48976667 21.546875 59.203125 C23.82498274 62.02013995 23.60484859 64.75426984 23.8125 68.3125 C23.94591797 70.25576172 23.94591797 70.25576172 24.08203125 72.23828125 C24.00066328 75.96958378 23.251128 78.52293875 22 82 C20.87326874 81.99555878 19.74653748 81.99111755 18.58566284 81.98654175 C7.96248764 81.94598206 -2.66067184 81.91600903 -13.28390694 81.89637566 C-18.74529373 81.88594261 -24.20661796 81.87179205 -29.66796875 81.84912109 C-34.93937672 81.8273758 -40.21072455 81.81542776 -45.48217392 81.81024551 C-47.49238914 81.8065528 -49.5026011 81.79934188 -51.51279068 81.78853989 C-54.33037659 81.77400267 -57.1477146 81.77202301 -59.96533203 81.77294922 C-61.20935036 81.76216339 -61.20935036 81.76216339 -62.47850037 81.75115967 C-69.13333953 81.7748003 -74.17104606 82.78150981 -79.1875 87.4375 C-79.84105469 88.03433594 -80.49460937 88.63117188 -81.16796875 89.24609375 C-81.77253906 89.82488281 -82.37710937 90.40367187 -83 91 C-83.55300781 91.48597656 -84.10601563 91.97195313 -84.67578125 92.47265625 C-86.2398895 94.27668671 -86.49563519 95.69774731 -87 98 C-85.91702637 97.96970703 -84.83405273 97.93941406 -83.71826172 97.90820312 C-52.56097727 97.06732072 -21.41659478 96.91266716 9.75 96.9375 C10.74093658 96.93820873 11.73187317 96.93891747 12.75283813 96.93964767 C28.16857273 96.95099645 43.58428328 96.97458575 59 97 C72.59149922 97.02219057 86.18299194 97.04257804 99.77450562 97.05341816 C105.62411803 97.05837646 111.47369539 97.06819043 117.32329369 97.08184814 C120.92678263 97.08928768 124.53026677 97.09261816 128.13376236 97.0948143 C129.80273857 97.09668884 131.47171386 97.1002948 133.14068222 97.10574722 C135.41363493 97.11294336 137.68651052 97.11400198 139.95947266 97.11352539 C141.2303775 97.115746 142.50128235 97.11796661 143.81069946 97.12025452 C146.42085198 97.02183713 148.52704308 96.78138317 151 96 C151.020625 95.4225 151.04125 94.845 151.0625 94.25 C152.36625221 91.1209947 154.36233604 90.41819348 157.30859375 88.9296875 C159.18565151 88.00039225 159.18565151 88.00039225 161 86 C161.64767793 83.42938689 161.64767793 83.42938689 162 81 C161.0996402 81.07064667 160.1992804 81.14129333 159.27163696 81.21408081 C149.92863993 81.89868757 140.64417081 82.1485751 131.2734375 82.1328125 C129.82711776 82.13348869 128.38079812 82.13446131 126.93447876 82.13571167 C123.93791598 82.13716914 120.94138343 82.13509476 117.94482422 82.13037109 C114.11301511 82.12462287 110.2812753 82.12799698 106.44946861 82.13394356 C103.47774737 82.13755833 100.50604257 82.13640725 97.53432083 82.13381577 C96.12058122 82.1331517 94.70684009 82.1339566 93.29310226 82.13629532 C91.32479635 82.13884259 89.35648512 82.13427 87.38818359 82.12939453 C85.71397842 82.12820114 85.71397842 82.12820114 84.00595093 82.12698364 C81.22279089 82.0094116 78.70720108 81.63392324 76 81 C76.33 80.34 76.66 79.68 77 79 C107.03 79.33 137.06 79.66 168 80 C168 80.99 168 81.98 168 83 C165.69921875 85.2265625 165.69921875 85.2265625 162.6875 87.625 C161.70136719 88.42164063 160.71523437 89.21828125 159.69921875 90.0390625 C157 92 157 92 154 93 C153.690625 93.639375 153.38125 94.27875 153.0625 94.9375 C151.72172853 97.54017403 150.68271824 97.91929654 148 99 C145.95149493 99.24839699 145.95149493 99.24839699 143.728405 99.24609566 C142.87745908 99.25007775 142.02651315 99.25405985 141.14978099 99.25816262 C140.21982287 99.25233693 139.28986475 99.24651125 138.33172607 99.24050903 C137.3400887 99.24221788 136.34845133 99.24392673 135.32676435 99.24568737 C131.99478826 99.24898886 128.66301231 99.2379676 125.33105469 99.22705078 C122.94625859 99.22648681 120.56146215 99.22680295 118.17666626 99.22793579 C112.36719692 99.22845111 106.55779343 99.21976826 100.74833915 99.20706047 C93.98864702 99.19276808 87.22896429 99.18977055 80.46925917 99.18748413 C68.41438803 99.1831067 56.35954395 99.1697963 44.3046875 99.15087891 C32.59440242 99.13252135 20.88412469 99.11836424 9.17382812 99.10986328 C8.45202609 99.10933783 7.73022405 99.10881239 6.98654923 99.10827102 C3.36548657 99.10566095 -0.25557614 99.10313353 -3.87663889 99.10064721 C-33.91777822 99.07991322 -63.95888595 99.04453773 -94 99 C-92.63760782 96.15776803 -91.44766831 94.03972359 -89 92 C-88.34 92 -87.68 92 -87 92 C-87 91.34 -87 90.68 -87 90 C-85.38025441 88.28769752 -83.7041054 86.62836738 -82 85 C-80.97420586 83.69691643 -80.97420586 83.69691643 -79.9276886 82.36750793 C-75.77274816 79.00756916 -72.53883711 79.32950769 -67.34448242 79.43237305 C-66.3781488 79.43164291 -65.41181519 79.43091278 -64.41619873 79.43016052 C-61.22871365 79.43363822 -58.04269789 79.47250925 -54.85546875 79.51171875 C-52.64301858 79.52104619 -50.43055807 79.52816263 -48.21809387 79.53315735 C-42.39978436 79.55223233 -36.58210064 79.60133835 -30.76403809 79.65667725 C-24.82520005 79.7078584 -18.88626072 79.73066903 -12.94726562 79.75585938 C-1.2979024 79.80945586 10.35099673 79.89477544 22 80 C21.71125 78.81921875 21.4225 77.6384375 21.125 76.421875 C20.74976277 74.86464048 20.37477586 73.30734562 20 71.75 C19.80921875 70.97269531 19.6184375 70.19539062 19.421875 69.39453125 C19.24140625 68.64042969 19.0609375 67.88632812 18.875 67.109375 C18.70742187 66.41811523 18.53984375 65.72685547 18.3671875 65.01464844 C18 63 18 63 18 59 C17.34 59 16.68 59 16 59 C15.49411853 57.08487728 14.99551609 55.16783078 14.5 53.25 C14.2215625 52.18265625 13.943125 51.1153125 13.65625 50.015625 C13 47 13 47 13 43 C12.34 43 11.68 43 11 43 C10.83723958 41.01432292 10.67447917 39.02864583 10.51171875 37.04296875 C10.1638664 34.91149732 10.1638664 34.91149732 8.52734375 33.52734375 C6.56505552 31.56505552 6.35949618 30.07936956 5.875 27.375 C5.50902407 24.40059351 5.50902407 24.40059351 4 22 C3.64777046 19.81854479 3.34373062 17.62923946 3.0625 15.4375 C2.34538738 10.15890411 1.43519496 5.1256963 0 0 Z " fill="#054C72" transform="translate(1259,816)"/>
<path d="M0 0 C0.33 0.66 0.66 1.32 1 2 C-0.05683106 3.25479654 -1.12078067 4.50359873 -2.1875 5.75 C-3.07501953 6.79414062 -3.07501953 6.79414062 -3.98046875 7.859375 C-7.61202104 11.70867994 -10.00842324 14.20221214 -15.45711231 14.49219131 C-17.28479617 14.50898278 -19.11276253 14.50360886 -20.94038391 14.48101807 C-21.94920992 14.48443577 -22.95803592 14.48785347 -23.99743241 14.49137473 C-27.38179566 14.49796947 -30.76536788 14.47595041 -34.1496582 14.45410156 C-36.57401002 14.45297343 -38.99836321 14.45360627 -41.42271423 14.45587158 C-46.64416989 14.4567828 -51.86544628 14.44542899 -57.08684731 14.42292023 C-64.63607482 14.39039772 -72.18520568 14.37999298 -79.73449566 14.37496826 C-91.98296405 14.36621598 -104.23132582 14.33960228 -116.47973633 14.30175781 C-128.37719184 14.26503596 -140.27461839 14.23672506 -152.17211914 14.21972656 C-152.90560644 14.21867567 -153.63909373 14.21762477 -154.39480791 14.21654204 C-158.07453609 14.21132185 -161.75426447 14.20626702 -165.43399298 14.20129442 C-195.95607165 14.15983449 -226.47802102 14.08909038 -257 14 C-257.33 12.35 -257.66 10.7 -258 9 C-256.68 8.01 -255.36 7.02 -254 6 C-253.34 6.33 -252.68 6.66 -252 7 C-253.32 8.65 -254.64 10.3 -256 12 C-225.25568119 11.94090726 -194.5114424 11.86659854 -163.76721724 11.77101372 C-160.13851301 11.7597454 -156.50980839 11.74860697 -152.88110352 11.73754883 C-151.79747768 11.7342433 -151.79747768 11.7342433 -150.69196042 11.730871 C-138.99093656 11.69548768 -127.28991278 11.67062939 -115.58885524 11.64965298 C-103.58466651 11.62789916 -91.58054726 11.59485275 -79.57641762 11.55129844 C-72.8329575 11.52715595 -66.0895666 11.5082537 -59.34606361 11.50238609 C-53.00218161 11.49635499 -46.65849684 11.47642659 -40.31468773 11.44572449 C-37.98343142 11.43691256 -35.65214937 11.43322817 -33.32087708 11.43499184 C-30.14319768 11.43663717 -26.96612484 11.42000813 -23.78852844 11.39872742 C-22.86148316 11.40357499 -21.93443788 11.40842257 -20.97930032 11.41341704 C-14.48599056 11.3414255 -11.17101679 10.11806516 -6.4375 5.5 C-5.633125 4.675 -4.82875 3.85 -4 3 C-2.68824014 1.97186389 -1.3630107 0.95915568 0 0 Z " fill="#043049" transform="translate(1421,903)"/>
<path d="M0 0 C0.99 0.495 0.99 0.495 2 1 C0.79750995 2.40087038 -0.41233253 3.79543041 -1.625 5.1875 C-2.29789063 5.96480469 -2.97078125 6.74210938 -3.6640625 7.54296875 C-10.53626878 14.77142652 -10.53626878 14.77142652 -15.93984795 15.61523914 C-17.46113604 15.63609852 -18.98295381 15.6296698 -20.50411987 15.60127258 C-21.76750205 15.60768077 -21.76750205 15.60768077 -23.05640709 15.61421841 C-25.87132082 15.62243728 -28.68473589 15.59498222 -31.49951172 15.56762695 C-33.52007512 15.56621624 -35.54064109 15.56700891 -37.561203 15.56983948 C-43.04230258 15.57127413 -48.52285513 15.54187593 -54.00382757 15.50696969 C-59.73332795 15.47571464 -65.46284085 15.47277611 -71.19241333 15.46684265 C-82.04024525 15.45130176 -92.88782525 15.41026975 -103.73554623 15.3600952 C-116.08607986 15.30420956 -128.43662551 15.27671716 -140.7872541 15.25161803 C-166.1916424 15.1993543 -191.59580709 15.11140702 -217 15 C-217.33 13.35 -217.66 11.7 -218 10 C-216.68 9.01 -215.36 8.02 -214 7 C-213.34 7.33 -212.68 7.66 -212 8 C-213.98 8.99 -213.98 8.99 -216 10 C-216 10.99 -216 11.98 -216 13 C-189.74875449 12.9395074 -163.49760677 12.86203719 -137.24647236 12.76428509 C-125.05795976 12.71929539 -112.86947659 12.67988804 -100.6809082 12.65356445 C-90.05891644 12.6306101 -79.43701756 12.59724078 -68.81509942 12.55129844 C-63.18946109 12.52733169 -57.56391494 12.50862553 -51.9382267 12.50238609 C-46.64492006 12.49635088 -41.35184939 12.47640763 -36.05862999 12.44572449 C-34.11439017 12.43691916 -32.17011955 12.43322682 -30.2258606 12.43499184 C-27.57362407 12.43663958 -24.92211117 12.41998811 -22.26997375 12.39872742 C-21.49856641 12.40357499 -20.72715906 12.40842257 -19.93237573 12.41341704 C-15.44111215 12.35389946 -12.57638118 11.76088063 -9 9 C-7.64613064 7.34997172 -6.31321858 5.6825613 -5 4 C-3.36643049 2.62631655 -1.7074998 1.28062485 0 0 Z " fill="#042D46" transform="translate(1140,902)"/>
<path d="M0 0 C0.66 0.33 1.32 0.66 2 1 C1.03900391 1.8353125 1.03900391 1.8353125 0.05859375 2.6875 C-4.82947669 7.00007481 -9.27986672 11.35853819 -13.46875 16.34765625 C-15.3882909 18.41899758 -17.53121935 19.65980479 -20 21 C-20.66 21.99 -21.32 22.98 -22 24 C-22.66 24 -23.32 24 -24 24 C-24 24.66 -24 25.32 -24 26 C-25.65071396 27.02611949 -27.31970006 28.02308143 -29 29 C-29.556875 29.556875 -30.11375 30.11375 -30.6875 30.6875 C-31.120625 31.120625 -31.55375 31.55375 -32 32 C-32.66 32 -33.32 32 -34 32 C-34 32.66 -34 33.32 -34 34 C-34.66 34 -35.32 34 -36 34 C-36.226875 34.5775 -36.45375 35.155 -36.6875 35.75 C-38.34726345 38.59530878 -40.42066667 39.93653334 -43 42 C-47.50196887 46.63544798 -47.50196887 46.63544798 -51 52 C-21.3 52.495 -21.3 52.495 9 53 C9 54.98 9 56.96 9 59 C8.34 59 7.68 59 7 59 C7 57.68 7 56.36 7 55 C-13.13 55 -33.26 55 -54 55 C-55.13610851 49.31945744 -55.13610851 49.31945744 -52.9375 45.9375 C-50.46910058 42.27604086 -47.76640151 40.32394987 -44 38 C-43.38125 37.21625 -42.7625 36.4325 -42.125 35.625 C-38.03246525 30.56951589 -32.52610157 27.31566094 -27 24 C-26.32710937 23.32324219 -26.32710937 23.32324219 -25.640625 22.6328125 C-23.07092365 20.07534783 -20.14142075 18.00036391 -17.25390625 15.81640625 C-12.63954763 12.12978798 -12.63954763 12.12978798 -10 7 C-8.36209288 5.95355934 -6.68991979 4.9601817 -5 4 C-3.31522656 2.68962066 -1.64351457 1.36176922 0 0 Z " fill="#062F47" transform="translate(1138,841)"/>
<path d="M0 0 C1.29808594 0.00515625 2.59617187 0.0103125 3.93359375 0.015625 C4.9383374 0.03109375 4.9383374 0.03109375 5.96337891 0.046875 C7.99530634 0.07793384 10.0264526 0.0878469 12.05859375 0.09375 C18.49637242 0.14479284 24.77069909 0.31929883 31.1328125 1.328125 C31.1328125 1.658125 31.1328125 1.988125 31.1328125 2.328125 C30.09874268 2.34270752 29.06467285 2.35729004 27.99926758 2.37231445 C24.15045168 2.43043382 20.30221251 2.50766523 16.45385742 2.59057617 C14.79054142 2.62376155 13.12711454 2.65181334 11.46362305 2.67456055 C9.06771751 2.70822499 6.67282215 2.7605444 4.27734375 2.81640625 C3.16767998 2.82599113 3.16767998 2.82599113 2.03559875 2.83576965 C-5.21927573 3.04081629 -8.78338276 6.05566311 -13.9296875 10.828125 C-16.81877465 13.49908385 -19.70286142 15.99277969 -22.8671875 18.328125 C-21.69422119 18.32026978 -21.69422119 18.32026978 -20.49755859 18.31225586 C-0.92672716 18.19981254 18.5769189 18.53449133 38.1328125 19.328125 C38.1328125 19.988125 38.1328125 20.648125 38.1328125 21.328125 C16.3528125 21.328125 -5.4271875 21.328125 -27.8671875 21.328125 C-27.5371875 20.008125 -27.2071875 18.688125 -26.8671875 17.328125 C-25.8771875 16.998125 -24.8871875 16.668125 -23.8671875 16.328125 C-23.8671875 15.668125 -23.8671875 15.008125 -23.8671875 14.328125 C-21.4921875 11.703125 -21.4921875 11.703125 -18.8671875 9.328125 C-18.2071875 9.328125 -17.5471875 9.328125 -16.8671875 9.328125 C-16.5371875 8.338125 -16.2071875 7.348125 -15.8671875 6.328125 C-15.2071875 6.328125 -14.5471875 6.328125 -13.8671875 6.328125 C-13.5371875 5.338125 -13.2071875 4.348125 -12.8671875 3.328125 C-8.49437253 0.55994582 -5.1234185 -0.04076804 0 0 Z " fill="#043755" transform="translate(1476.8671875,894.671875)"/>
<path d="M0 0 C0.495 0.99 0.495 0.99 1 2 C-0.2404325 5.41294139 -2.18284545 7.2695194 -4.9375 9.5625 C-7.86998811 12.01481064 -7.86998811 12.01481064 -10.56640625 14.71484375 C-12 16 -12 16 -15 16 C-15.24105469 16.58007812 -15.48210937 17.16015625 -15.73046875 17.7578125 C-17.24012437 20.42409659 -18.96682905 21.91173255 -21.3125 23.875 C-24.0662714 26.23663435 -26.54150105 28.49618987 -28.75 31.375 C-31 34 -31 34 -33.27734375 34.8125 C-36.85512744 36.37296807 -39.16872091 38.84356085 -41.8125 41.625 C-42.31458984 42.140625 -42.81667969 42.65625 -43.33398438 43.1875 C-44.56296227 44.45159154 -45.78246001 45.72488806 -47 47 C-47.66 46.67 -48.32 46.34 -49 46 C-48.34 45.34 -47.68 44.68 -47 44 C-46.8453125 42.824375 -46.8453125 42.824375 -46.6875 41.625 C-45.73391647 37.98404471 -44.04044283 37.19946928 -41 35 C-38.90695922 33.14753862 -36.83662821 31.2719599 -34.76953125 29.390625 C-33 28 -33 28 -31 28 C-31 27.34 -31 26.68 -31 26 C-29.625 24.375 -29.625 24.375 -28 23 C-27.34 23 -26.68 23 -26 23 C-25.67 22.01 -25.34 21.02 -25 20 C-23.3984375 18.89453125 -23.3984375 18.89453125 -21.375 17.8125 C-18.1598067 15.91416779 -15.9771714 14.02041098 -13.625 11.125 C-9.76692348 6.41653538 -5.08609968 3.27475231 0 0 Z " fill="#0A4F71" transform="translate(1094,813)"/>
<path d="M0 0 C0.66 0 1.32 0 2 0 C2.66 2.97 3.32 5.94 4 9 C34.69 9 65.38 9 97 9 C97 14 97 14 95.8125 15.75 C93.58183452 17.28838998 91.6635969 17.64005447 89 18 C90.375 16 90.375 16 92 14 C92.66 14 93.32 14 94 14 C94 13.01 94 12.02 94 11 C63.97 11 33.94 11 3 11 C0 4 0 4 0 0 Z " fill="#062F48" transform="translate(1333,885)"/>
<path d="M0 0 C-0.33 1.65 -0.66 3.3 -1 5 C29.195 5.495 29.195 5.495 60 6 C59 11 59 11 56.25 13.0625 C55.1775 13.701875 54.105 14.34125 53 15 C50.42863477 16.91357413 48.33725283 18.54133615 46.4375 21.125 C44.73509171 23.34553255 43.5943477 23.97282171 41 25 C38.3550415 25.24050903 38.3550415 25.24050903 35.31347656 25.22705078 C34.17259583 25.22689972 33.03171509 25.22674866 31.85626221 25.22659302 C30.63010193 25.21627045 29.40394165 25.20594788 28.140625 25.1953125 C26.88111023 25.1924826 25.62159546 25.18965271 24.32391357 25.18673706 C20.98326098 25.17744121 17.64288331 25.15948583 14.30230713 25.1373291 C10.89036428 25.11683208 7.47839298 25.10772712 4.06640625 25.09765625 C-2.62247168 25.07559907 -9.31121997 25.04212367 -16 25 C-16 24.67 -16 24.34 -16 24 C2.48 23.67 20.96 23.34 40 23 C40.33 22.34 40.66 21.68 41 21 C41.66 21 42.32 21 43 21 C43 20.34 43 19.68 43 19 C45.63892176 17.21694476 47.97178863 16.00940379 51 15 C51 14.34 51 13.68 51 13 C51.66 13 52.32 13 53 13 C53 12.34 53 11.68 53 11 C53.99 10.34 54.98 9.68 56 9 C56 8.34 56 7.68 56 7 C50.8306511 7.40556131 50.8306511 7.40556131 46 9 C43.99951442 8.66959338 41.99961946 8.33560856 40 8 C37.3243709 7.93092923 34.67772776 7.90636534 32.00390625 7.9375 C31.25213608 7.94128662 30.50036591 7.94507324 29.72581482 7.94897461 C26.53450658 7.96520114 23.34333057 7.99335665 20.15209961 8.02050781 C17.8110413 8.03869451 15.47000422 8.05072302 13.12890625 8.0625 C12.4182753 8.07079834 11.70764435 8.07909668 10.97547913 8.08764648 C-0.28656934 8.14228711 -0.28656934 8.14228711 -5 5 C-5 4.34 -5 3.68 -5 3 C-5.66 3 -6.32 3 -7 3 C-7 2.01 -7 1.02 -7 0 C-2.25 -1.125 -2.25 -1.125 0 0 Z " fill="#074B71" transform="translate(1085,890)"/>
<path d="M0 0 C0.66 0 1.32 0 2 0 C5.52061669 5.82722763 6.87855342 11.53215168 7.96020508 18.1875 C8.78452666 23.22032901 9.98624767 27.80353661 12.125 32.4375 C13.23947984 35.70133383 13.13424798 38.5766766 13 42 C13.66 42 14.32 42 15 42 C15.10957031 42.65226563 15.21914062 43.30453125 15.33203125 43.9765625 C16.65249221 52.51091949 16.65249221 52.51091949 21.5859375 59.2421875 C23.75639185 61.94026611 23.28818772 64.29768024 23.1875 67.6875 C23.16042969 68.86699219 23.13335938 70.04648437 23.10546875 71.26171875 C23.07066406 72.16535156 23.03585937 73.06898438 23 74 C22.34 74 21.68 74 21 74 C20.49363393 72.25183142 19.99515381 70.50137737 19.5 68.75 C19.2215625 67.77546875 18.943125 66.8009375 18.65625 65.796875 C18 63 18 63 18 59 C17.34 59 16.68 59 16 59 C15.49411853 57.08487728 14.99551609 55.16783078 14.5 53.25 C14.2215625 52.18265625 13.943125 51.1153125 13.65625 50.015625 C13 47 13 47 13 43 C12.34 43 11.68 43 11 43 C10.75585938 40.02148438 10.75585938 40.02148438 10.51171875 37.04296875 C10.1638664 34.91149732 10.1638664 34.91149732 8.52734375 33.52734375 C6.56505552 31.56505552 6.35949618 30.07936956 5.875 27.375 C5.50902407 24.40059351 5.50902407 24.40059351 4 22 C3.64777046 19.81854479 3.34373062 17.62923946 3.0625 15.4375 C2.34538738 10.15890411 1.43519496 5.1256963 0 0 Z " fill="#0D5273" transform="translate(1259,816)"/>
<path d="M0 0 C0 0.99 0 1.98 0 3 C-4.34285714 7 -4.34285714 7 -7 7 C-7.2784375 8.5159375 -7.2784375 8.5159375 -7.5625 10.0625 C-9.34707093 16.28336346 -14.50858687 20.06896593 -19.6875 23.5625 C-23.07154483 25.846165 -24.77024082 28.58103593 -27 32 C-30.41836286 34.62950989 -32.70587699 35.36806769 -37 35 C-37.226875 35.598125 -37.45375 36.19625 -37.6875 36.8125 C-39.33811133 39.56351888 -41.1972081 40.52484637 -44 42 C-43.33004091 39.32016365 -42.73235613 37.48882565 -40.37890625 35.91796875 C-39.12949125 35.26598712 -37.87687284 34.62010675 -36.62109375 33.98046875 C-34.50815128 32.70252042 -33.74778363 31.32643797 -33 29 C-32.34 29 -31.68 29 -31 29 C-31 28.34 -31 27.68 -31 27 C-26.52941176 23 -26.52941176 23 -24 23 C-24 22.34 -24 21.68 -24 21 C-21.08450328 18.70794283 -18.05280592 16.61186888 -15.015625 14.484375 C-11.8831794 11.9037592 -10.18058198 9.38898783 -8 6 C-5.859375 4.1015625 -5.859375 4.1015625 -3.75 2.625 C-3.04359375 2.12226562 -2.3371875 1.61953125 -1.609375 1.1015625 C-1.07828125 0.73804688 -0.5471875 0.37453125 0 0 Z " fill="#207B99" transform="translate(1249,672)"/>
<path d="M0 0 C0.66 0.33 1.32 0.66 2 1 C1.03900391 1.8353125 1.03900391 1.8353125 0.05859375 2.6875 C-4.82947669 7.00007481 -9.27986672 11.35853819 -13.46875 16.34765625 C-15.3882909 18.41899758 -17.53121935 19.65980479 -20 21 C-20.66 21.99 -21.32 22.98 -22 24 C-22.66 24 -23.32 24 -24 24 C-24 24.66 -24 25.32 -24 26 C-25.65071396 27.02611949 -27.31970006 28.02308143 -29 29 C-29.556875 29.556875 -30.11375 30.11375 -30.6875 30.6875 C-31.120625 31.120625 -31.55375 31.55375 -32 32 C-32.66 32 -33.32 32 -34 32 C-34 32.66 -34 33.32 -34 34 C-36.90548882 36.04169485 -38.40142046 37 -42 37 C-42.226875 37.5775 -42.45375 38.155 -42.6875 38.75 C-44.34848222 41.59739809 -46.31524561 43.12067193 -49 45 C-49.66 45 -50.32 45 -51 45 C-51.33 45.99 -51.66 46.98 -52 48 C-52.33 47.34 -52.66 46.68 -53 46 C-51.33333333 44.33333333 -49.66666667 42.66666667 -48 41 C-47.23042969 40.21238281 -46.46085937 39.42476562 -45.66796875 38.61328125 C-43.04517694 36.04425091 -40.34180566 33.69793665 -37.5 31.375 C-36.5821875 30.61960937 -35.664375 29.86421875 -34.71875 29.0859375 C-32 27 -32 27 -29.34375 25.4140625 C-27.15946795 24.09621233 -25.74920835 22.82384124 -24 21 C-21.77744926 19.23587594 -19.51700156 17.52808747 -17.25390625 15.81640625 C-12.63954763 12.12978798 -12.63954763 12.12978798 -10 7 C-8.36209288 5.95355934 -6.68991979 4.9601817 -5 4 C-3.31522656 2.68962066 -1.64351457 1.36176922 0 0 Z " fill="#08344B" transform="translate(1138,841)"/>
<path d="M0 0 C0.66 0 1.32 0 2 0 C1.67 1.32 1.34 2.64 1 4 C-0.32 4 -1.64 4 -3 4 C-3.28875 4.598125 -3.5775 5.19625 -3.875 5.8125 C-5 8 -5 8 -7 11 C-7.66 11 -8.32 11 -9 11 C-9.33 11.99 -9.66 12.98 -10 14 C-12.32349131 16.06532561 -14.57589087 17.77075182 -17.3125 19.25 C-20.59135284 21.38506696 -23.01404057 23.99343761 -25.73046875 26.79296875 C-29.55793745 30.51503383 -33.77497623 33.74465381 -38 37 C-38.66 36.67 -39.32 36.34 -40 36 C-39.3125 33.5625 -39.3125 33.5625 -38 31 C-36.34178227 30.62690101 -34.67422986 30.29299023 -33 30 C-31.63979849 28.03241727 -31.63979849 28.03241727 -31 26 C-30.34 26 -29.68 26 -29 26 C-29 25.34 -29 24.68 -29 24 C-27.88625 23.4225 -26.7725 22.845 -25.625 22.25 C-22.51774874 20.49129578 -21.47358398 19.26293596 -20 16 C-17.34587239 14.16252704 -15.06638854 13.02212951 -12 12 C-12 11.34 -12 10.68 -12 10 C-10.01399663 8.6459068 -8.01182457 7.31542376 -6 6 C-4.88625 4.88625 -4.88625 4.88625 -3.75 3.75 C-3.1725 3.1725 -2.595 2.595 -2 2 C-1.34 2 -0.68 2 0 2 C0 1.34 0 0.68 0 0 Z " fill="#104C67" transform="translate(1193,791)"/>
<path d="M0 0 C0.66 0.33 1.32 0.66 2 1 C1.0409375 1.928125 1.0409375 1.928125 0.0625 2.875 C-3.37282214 6.29074765 -6.52954078 9.95364783 -9.71875 13.59765625 C-12.00597008 16.00628698 -14.30721149 18.05670429 -17 20 C-17.66 20 -18.32 20 -19 20 C-19.2475 20.598125 -19.495 21.19625 -19.75 21.8125 C-21 24 -21 24 -22.9375 25.4375 C-25.15686517 26.91333182 -25.15686517 26.91333182 -26.4375 29.4375 C-29.02494437 33.68090877 -32.09048289 35.88586172 -36.8125 37.25 C-37.864375 37.4975 -38.91625 37.745 -40 38 C-40 36 -40 36 -38.6875 34.4375 C-37 33 -37 33 -34 32 C-33.71125 31.360625 -33.4225 30.72125 -33.125 30.0625 C-31.608641 27.2825085 -29.88053053 27.10789636 -27 26 C-26.67 25.01 -26.34 24.02 -26 23 C-23.29438476 20.5348839 -20.97134628 18.47254684 -17.6875 16.875 C-15.63229657 16.05794443 -15.63229657 16.05794443 -15 13 C-13.07421875 11.3515625 -13.07421875 11.3515625 -10.6875 9.625 C-7.22153597 7.02827775 -4.57988032 4.50863724 -2 1 C-1.34 0.67 -0.68 0.34 0 0 Z " fill="#125776" transform="translate(1136,773)"/>
<path d="M0 0 C1.32 0 2.64 0 4 0 C4 3.96 4 7.92 4 12 C1 10 1 10 0 7 C-4.83797098 8.65873291 -8.77791722 10.78861212 -11.3125 15.375 C-13.75679734 19.1772403 -17.1732482 21.63570112 -21 24 C-21.66 24 -22.32 24 -23 24 C-22.9375 21.8125 -22.9375 21.8125 -22 19 C-20.36662965 17.56914996 -18.64165036 16.42923208 -16.82421875 15.2421875 C-14.22411257 13.47166552 -12.19411109 11.24762599 -10 9 C-7.94181709 7.16119706 -5.85964471 5.35315442 -3.76953125 3.55078125 C-2.47133312 2.41306678 -1.2205967 1.2205967 0 0 Z " fill="#2597BA" transform="translate(1264,660)"/>
<path d="M0 0 C0.66 0.33 1.32 0.66 2 1 C-9.4005655 11.1602262 -9.4005655 11.1602262 -15 16 C-15.928125 16.804375 -16.85625 17.60875 -17.8125 18.4375 C-20 20 -20 20 -23 20 C-23.33 21.32 -23.66 22.64 -24 24 C-24.66 24 -25.32 24 -26 24 C-26.2371875 24.58265625 -26.474375 25.1653125 -26.71875 25.765625 C-28.2726806 28.47552837 -30.01929431 29.86530802 -32.5 31.75 C-33.2940625 32.36359375 -34.088125 32.9771875 -34.90625 33.609375 C-37 35 -37 35 -39 35 C-39.28875 35.639375 -39.5775 36.27875 -39.875 36.9375 C-41 39 -41 39 -43 40 C-42.43056986 36.69730521 -41.59070637 35.12808023 -39 33 C-34.44444444 30 -34.44444444 30 -32 30 C-32 29.34 -32 28.68 -32 28 C-31.34 28 -30.68 28 -30 28 C-29.7525 27.443125 -29.505 26.88625 -29.25 26.3125 C-26.40559869 21.05035757 -22.98944469 18.1932446 -18 15 C-13.83801701 11.79180478 -10.65896074 8.55099601 -7.4921875 4.35546875 C-6 3 -6 3 -2 3 C-2 2.34 -2 1.68 -2 1 C-1.34 0.67 -0.68 0.34 0 0 Z " fill="#126487" transform="translate(1151,828)"/>
<path d="M0 0 C3.01111938 4.51667907 3.10067926 7.6639991 3 13 C3.66 13 4.32 13 5 13 C5.67363372 15.72761511 6.33909444 18.456799 7 21.1875 C7.19078125 21.95642578 7.3815625 22.72535156 7.578125 23.51757812 C8.51623421 27.42078253 9.25957208 30.95229795 9 35 C5.06760685 31.06760685 4.09219786 24.78249194 3.8125 19.375 C3.874375 18.59125 3.93625 17.8075 4 17 C3.34 17 2.68 17 2 17 C-0.01167675 11.21642935 -0.22084624 6.09781001 0 0 Z " fill="#0F5574" transform="translate(1317,830)"/>
<path d="M0 0 C2 2 2 2 2.125 5.125 C2.08375 6.07375 2.0425 7.0225 2 8 C2.66 8 3.32 8 4 8 C4.81974263 10.03876949 5.6304807 12.08116075 6.4375 14.125 C6.88996094 15.26195312 7.34242187 16.39890625 7.80859375 17.5703125 C9.86210349 23.48172744 10.10652733 28.82141463 10 35 C8.56083562 32.29548152 7.5538993 29.73927748 6.78125 26.77734375 C6.46607422 25.59881836 6.46607422 25.59881836 6.14453125 24.39648438 C5.71388562 22.75350605 5.28420223 21.11027521 4.85546875 19.46679688 C4.64535156 18.68240234 4.43523437 17.89800781 4.21875 17.08984375 C3.9393457 16.02044556 3.9393457 16.02044556 3.65429688 14.92944336 C2.99536818 12.71343819 2.99536818 12.71343819 1 10 C0.5859375 7.51953125 0.5859375 7.51953125 0.375 4.8125 C0.30023437 3.91144531 0.22546875 3.01039063 0.1484375 2.08203125 C0.09945313 1.39496094 0.05046875 0.70789063 0 0 Z " fill="#114B62" transform="translate(1285,720)"/>
<path d="M0 0 C0.66 0.33 1.32 0.66 2 1 C1.154375 1.66 0.30875 2.32 -0.5625 3 C-3.1728362 5.16091511 -5.36517376 7.48449663 -7.5625 10.0625 C-12.00335071 15.25487929 -16.88429358 18.94214679 -23 22 C-21.50198648 18.38522825 -19.42462583 16.31379537 -16.5 13.75 C-15.7059375 13.04359375 -14.911875 12.3371875 -14.09375 11.609375 C-12 10 -12 10 -10 10 C-9.75507812 9.40703125 -9.51015625 8.8140625 -9.2578125 8.203125 C-7.79047891 5.63301274 -6.27707775 4.45470034 -3.875 2.75 C-3.15054687 2.22921875 -2.42609375 1.7084375 -1.6796875 1.171875 C-1.12539062 0.78515625 -0.57109375 0.3984375 0 0 Z " fill="#155872" transform="translate(1203,714)"/>
<path d="M0 0 C0.66 0 1.32 0 2 0 C2.25394531 1.08796875 2.50789063 2.1759375 2.76953125 3.296875 C6.13233499 18.24975103 6.13233499 18.24975103 10.25 33 C11.00806887 36.03227549 10.86861253 37.12116989 10 40 C9.80664062 39.34773437 9.61328125 38.69546875 9.4140625 38.0234375 C7.78904354 32.54802968 7.78904354 32.54802968 6 27.125 C3.15917627 18.24742585 1.38731157 9.20522029 0 0 Z " fill="#093047" transform="translate(1322,845)"/>
<path d="M0 0 C0.99 0.33 1.98 0.66 3 1 C2.52949219 1.45890625 2.05898437 1.9178125 1.57421875 2.390625 C-2.25204982 6.12169368 -2.25204982 6.12169368 -5.625 10.25 C-7 12 -7 12 -9.25390625 13.28515625 C-12.40563669 15.25330655 -14.72251141 17.52844505 -17.3125 20.1875 C-18.19550781 21.08855469 -19.07851562 21.98960937 -19.98828125 22.91796875 C-20.65214844 23.60503906 -21.31601563 24.29210937 -22 25 C-22 22 -22 22 -20.64453125 20.38671875 C-20.03996094 19.82597656 -19.43539063 19.26523437 -18.8125 18.6875 C-16.53431214 16.51844689 -14.58841406 14.48010197 -12.625 12 C-9.67982721 8.63408824 -6.4821945 6.15578536 -2.890625 3.515625 C-0.88983178 2.12811656 -0.88983178 2.12811656 0 0 Z " fill="#2297BA" transform="translate(1212,707)"/>
<path d="M0 0 C0.33 0.66 0.66 1.32 1 2 C-0.2404325 5.41294139 -2.18284545 7.2695194 -4.9375 9.5625 C-7.86998811 12.01481064 -7.86998811 12.01481064 -10.56640625 14.71484375 C-12 16 -12 16 -15 16 C-13.48625275 12.42723096 -11.38105612 10.14319629 -8.625 7.4375 C-7.85414062 6.67308594 -7.08328125 5.90867187 -6.2890625 5.12109375 C-4.27286711 3.25284444 -2.23393837 1.59639888 0 0 Z " fill="#0F5A7C" transform="translate(1094,813)"/>
<path d="M0 0 C0.66 0 1.32 0 2 0 C6.72502305 7.56003687 7.19854824 15.3105757 8 24 C2.06137447 18.06137447 1.22074575 7.9348474 0 0 Z " fill="#106184" transform="translate(1259,816)"/>
<path d="M0 0 C0.66 0.33 1.32 0.66 2 1 C0.625 2.5 0.625 2.5 -1 4 C-1.66 4 -2.32 4 -3 4 C-3.433125 4.928125 -3.433125 4.928125 -3.875 5.875 C-5 8 -5 8 -7 10 C-7.99 10 -8.98 10 -10 10 C-10.226875 10.5775 -10.45375 11.155 -10.6875 11.75 C-12.34848222 14.59739809 -14.31524561 16.12067193 -17 18 C-17.66 18 -18.32 18 -19 18 C-19.33 18.99 -19.66 19.98 -20 21 C-20.33 20.34 -20.66 19.68 -21 19 C-19.33333333 17.33333333 -17.66666667 15.66666667 -16 14 C-15.236875 13.21625 -14.47375 12.4325 -13.6875 11.625 C-10.96827599 8.96901376 -8.14438135 6.57438013 -5.1875 4.1875 C-4.21167969 3.39730469 -3.23585938 2.60710938 -2.23046875 1.79296875 C-1.49441406 1.20128906 -0.75835938 0.60960937 0 0 Z " fill="#095377" transform="translate(1106,868)"/>
<path d="M0 0 C0.66 0.33 1.32 0.66 2 1 C0.8125 3.4375 0.8125 3.4375 -1 6 C-3.6875 6.8125 -3.6875 6.8125 -6 7 C-6.33 8.32 -6.66 9.64 -7 11 C-7.928125 11.12375 -7.928125 11.12375 -8.875 11.25 C-11.16150356 11.78035516 -11.16150356 11.78035516 -11.9375 13.875 C-13.35844081 16.71688163 -15.24119033 17.54799491 -18 19 C-17.33004091 16.32016365 -16.73235613 14.48882565 -14.37890625 12.91796875 C-13.12949125 12.26598712 -11.87687284 11.62010675 -10.62109375 10.98046875 C-8.50815128 9.70252042 -7.74778363 8.32643797 -7 6 C-6.34 6 -5.68 6 -5 6 C-5 5.34 -5 4.68 -5 4 C-3.37373596 2.61767557 -1.7074998 1.28062485 0 0 Z " fill="#175E78" transform="translate(1223,695)"/>
<path d="M0 0 C4.875 0.875 4.875 0.875 6 2 C6.04063832 3.66617115 6.042721 5.33388095 6 7 C6.66 7 7.32 7 8 7 C8.309375 7.804375 8.61875 8.60875 8.9375 9.4375 C9.76335345 11.89080405 9.76335345 11.89080405 11 13 C11.23363881 14.84891946 11.41303635 16.70488031 11.5625 18.5625 C11.64628906 19.57441406 11.73007813 20.58632813 11.81640625 21.62890625 C11.87699219 22.41136719 11.93757813 23.19382812 12 24 C11.34 24 10.68 24 10 24 C9.89042969 23.22914063 9.78085938 22.45828125 9.66796875 21.6640625 C9.50941406 20.66117188 9.35085938 19.65828125 9.1875 18.625 C9.03667969 17.62726562 8.88585938 16.62953125 8.73046875 15.6015625 C8.21227702 12.6712636 8.21227702 12.6712636 5 11 C4.48828125 8.8359375 4.48828125 8.8359375 4.3125 6.375 C4.24675781 5.55773437 4.18101563 4.74046875 4.11328125 3.8984375 C4.07589844 3.27195312 4.03851562 2.64546875 4 2 C2.35 2 0.7 2 -1 2 C-0.67 1.34 -0.34 0.68 0 0 Z " fill="#124A61" transform="translate(1236,753)"/>
<path d="M0 0 C1.32 0.33 2.64 0.66 4 1 C1.60254015 6.09460217 -2.29780696 9.09482341 -7 12 C-7.66 12 -8.32 12 -9 12 C-8.9375 9.8125 -8.9375 9.8125 -8 7 C-6.28561215 5.51728618 -4.51127281 4.31959171 -2.59375 3.11328125 C-0.83938228 2.07639069 -0.83938228 2.07639069 0 0 Z " fill="#2A9FC2" transform="translate(1250,672)"/>
<path d="M0 0 C0.66 0.33 1.32 0.66 2 1 C-2.01005519 6.80148878 -5.12287676 10.70762559 -12 13 C-12.33 13.99 -12.66 14.98 -13 16 C-13.66 16 -14.32 16 -15 16 C-15.33 16.99 -15.66 17.98 -16 19 C-16.66 19 -17.32 19 -18 19 C-18 18.01 -18 17.02 -18 16 C-16.39371931 14.59450439 -14.7074998 13.28062485 -13 12 C-10.90925228 10.14511101 -8.8365568 8.2718949 -6.76953125 6.390625 C-5 5 -5 5 -3 5 C-3 4.34 -3 3.68 -3 3 C-1.5 1.375 -1.5 1.375 0 0 Z " fill="#083752" transform="translate(1066,836)"/>
<path d="M0 0 C1.65 0 3.3 0 5 0 C3.50198648 3.61477175 1.42462583 5.68620463 -1.5 8.25 C-2.2940625 8.95640625 -3.088125 9.6628125 -3.90625 10.390625 C-6 12 -6 12 -8 12 C-8.226875 12.639375 -8.45375 13.27875 -8.6875 13.9375 C-10 16 -10 16 -12.625 16.75 C-13.40875 16.8325 -14.1925 16.915 -15 17 C-14.67 16.34 -14.34 15.68 -14 15 C-13.01 15 -12.02 15 -11 15 C-10.979375 14.4225 -10.95875 13.845 -10.9375 13.25 C-9.63374779 10.1209947 -7.63766396 9.41819348 -4.69140625 7.9296875 C-2.81434849 7.00039225 -2.81434849 7.00039225 -1 5 C-0.35232207 2.42938689 -0.35232207 2.42938689 0 0 Z " fill="#094F76" transform="translate(1421,897)"/>
<path d="M0 0 C2.34651031 4.31757898 3.57205861 8.90503024 4.9765625 13.59375 C5.61697165 15.72518807 6.27556587 17.85134171 6.9609375 19.96875 C7.24195313 20.8453125 7.52296875 21.721875 7.8125 22.625 C8.06644531 23.40101563 8.32039063 24.17703125 8.58203125 24.9765625 C9 27 9 27 8 30 C5.28488754 25.02229383 3.50425664 20.6561239 2.4375 15.09375 C2.00752891 12.79356921 2.00752891 12.79356921 0.875 9.875 C-0.15782074 6.48144615 -0.14108819 3.52720481 0 0 Z " fill="#0C547A" transform="translate(1326,865)"/>
<path d="M0 0 C0 0.99 0 1.98 0 3 C-1.66220581 4.00739746 -3.33020674 5.00522955 -5 6 C-8.38198109 9.0969394 -11.49757446 12.46168692 -14.625 15.8125 C-17.0269261 18.02480036 -18.90897055 19.0285336 -22 20 C-21.505 18.515 -21.505 18.515 -21 17 C-20.34 17 -19.68 17 -19 17 C-19 16.34 -19 15.68 -19 15 C-17.3125 13.5546875 -17.3125 13.5546875 -15 11.875 C-10.8118349 8.73222208 -7.20979075 5.31628227 -3.62890625 1.50390625 C-2 0 -2 0 0 0 Z " fill="#0F455C" transform="translate(1168,746)"/>
<path d="M0 0 C0.66 0.33 1.32 0.66 2 1 C1.0479279 2.00596297 0.08812654 3.00461563 -0.875 4 C-1.40867187 4.556875 -1.94234375 5.11375 -2.4921875 5.6875 C-4 7 -4 7 -6 7 C-6.04125 7.556875 -6.0825 8.11375 -6.125 8.6875 C-7.46930374 12.24030274 -10.00974189 13.70958953 -13 16 C-13.66 15.67 -14.32 15.34 -15 15 C-14.3125 12.5625 -14.3125 12.5625 -13 10 C-11.34178227 9.62690101 -9.67422986 9.29299023 -8 9 C-6.63979849 7.03241727 -6.63979849 7.03241727 -6 5 C-5.34 5 -4.68 5 -4 5 C-4 4.34 -4 3.68 -4 3 C-2 1.375 -2 1.375 0 0 Z " fill="#156081" transform="translate(1168,812)"/>
<path d="M0 0 C0 0.99 0 1.98 0 3 C-1.6796875 4.4296875 -1.6796875 4.4296875 -3.875 5.875 C-7.41466714 8.36266816 -8.43605234 9.97842031 -10 14 C-13.125 15.3125 -13.125 15.3125 -16 16 C-13.64511998 8.93535993 -5.64734424 4.41918394 0 0 Z " fill="#17637E" transform="translate(1234,755)"/>
<path d="M0 0 C1.72647526 3.14651984 2.67711511 6.21549327 3.5625 9.6875 C4.22596604 13.1374662 4.22596604 13.1374662 6 16 C6.04092937 18.33297433 6.04241723 20.66705225 6 23 C5.67 22.01 5.34 21.02 5 20 C4.34 20 3.68 20 3 20 C2.80083984 18.96939453 2.80083984 18.96939453 2.59765625 17.91796875 C2.42105469 17.01691406 2.24445313 16.11585938 2.0625 15.1875 C1.88847656 14.29417969 1.71445313 13.40085937 1.53515625 12.48046875 C1.02258847 9.88602829 1.02258847 9.88602829 0 7 C-0.03954234 4.66700175 -0.04401732 2.33291811 0 0 Z " fill="#125673" transform="translate(1253,793)"/>
<path d="M0 0 C0.99 0.33 1.98 0.66 3 1 C1.59148053 2.32123942 0.17284259 3.63169769 -1.25 4.9375 C-2.03890625 5.66839844 -2.8278125 6.39929688 -3.640625 7.15234375 C-5.93783785 8.95132004 -7.22665668 9.41967485 -10 10 C-11.1500831 11.96672915 -11.1500831 11.96672915 -12 14 C-12.99 14.495 -12.99 14.495 -14 15 C-13.43056986 11.69730521 -12.59070637 10.12808023 -10 8 C-5.44444444 5 -5.44444444 5 -3 5 C-3 4.34 -3 3.68 -3 3 C-2.34 3 -1.68 3 -1 3 C-0.67 2.01 -0.34 1.02 0 0 Z " fill="#0D597E" transform="translate(1122,853)"/>
<path d="M0 0 C0.66 0 1.32 0 2 0 C3.20568053 4.67201205 3.09382426 9.21496292 3 14 C1.02 14.99 1.02 14.99 -1 16 C-0.34 12.7 0.32 9.4 1 6 C0.34 6 -0.32 6 -1 6 C-0.67 4.02 -0.34 2.04 0 0 Z " fill="#249ABE" transform="translate(1283,719)"/>
<path d="M0 0 C0.66 0.33 1.32 0.66 2 1 C-4.1763628 11.12414109 -4.1763628 11.12414109 -9 13 C-9.66 12.67 -10.32 12.34 -11 12 C-10.3125 10.0625 -10.3125 10.0625 -9 8 C-8.175 7.855625 -7.35 7.71125 -6.5 7.5625 C-5.675 7.376875 -4.85 7.19125 -4 7 C-2.75285597 4.59047977 -2.75285597 4.59047977 -2 2 C-1.34 1.34 -0.68 0.68 0 0 Z " fill="#2699BC" transform="translate(1226,694)"/>
<path d="M0 0 C0.66 0.33 1.32 0.66 2 1 C0.75479583 2.44165628 -0.49637923 3.87815652 -1.75 5.3125 C-2.44609375 6.11300781 -3.1421875 6.91351562 -3.859375 7.73828125 C-5.79145335 9.77965601 -7.69943126 11.39892851 -10 13 C-10.66 12.67 -11.32 12.34 -12 12 C-8.27653164 7.57905197 -4.70478962 3.42166518 0 0 Z " fill="#072C42" transform="translate(1140,902)"/>
<path d="M0 0 C0.66 0.33 1.32 0.66 2 1 C1.43410156 1.53109375 0.86820313 2.0621875 0.28515625 2.609375 C-0.44832031 3.31578125 -1.18179687 4.0221875 -1.9375 4.75 C-2.66839844 5.44609375 -3.39929687 6.1421875 -4.15234375 6.859375 C-6.00517646 9.00599725 -6.60771565 10.23532932 -7 13 C-8.32 12.67 -9.64 12.34 -11 12 C-8.15009514 6.18619408 -5.46695158 3.46941158 0 0 Z " fill="#095680" transform="translate(1179,901)"/>
<path d="M0 0 C3.62174279 3.62174279 4.87956218 9.03284894 5.1875 14.0625 C5.125625 14.701875 5.06375 15.34125 5 16 C4.34 16 3.68 16 3 16 C3 15.01 3 14.02 3 13 C2.34 13 1.68 13 1 13 C0.67 8.71 0.34 4.42 0 0 Z " fill="#165C78" transform="translate(1298,765)"/>
<path d="M0 0 C0.66 0.33 1.32 0.66 2 1 C-1.10361412 4.20373071 -4.32069758 7.25294919 -7.625 10.25 C-8.75808594 11.27867187 -8.75808594 11.27867187 -9.9140625 12.328125 C-12 14 -12 14 -15 15 C-15 14.34 -15 13.68 -15 13 C-13.171875 11.44921875 -13.171875 11.44921875 -10.75 9.6875 C-7.26599847 7.06766211 -4.59624502 4.53089323 -2 1 C-1.34 0.67 -0.68 0.34 0 0 Z " fill="#0E3D52" transform="translate(1136,773)"/>
<path d="M0 0 C3.32710168 4.99065252 5.58827908 10.92111612 5 17 C1.86140926 13.86140926 0.18478201 10.16081823 -0.19140625 5.76171875 C-0.18799305 3.84008939 -0.10099876 1.91897636 0 0 Z " fill="#2598BC" transform="translate(1271,676)"/>
<path d="M0 0 C0.66 0.33 1.32 0.66 2 1 C1.28972656 1.62648438 0.57945313 2.25296875 -0.15234375 2.8984375 C-1.07144531 3.71570313 -1.99054688 4.53296875 -2.9375 5.375 C-4.31228516 6.59316406 -4.31228516 6.59316406 -5.71484375 7.8359375 C-8.03601395 9.78709347 -8.03601395 9.78709347 -9 12 C-11.0625 12.625 -11.0625 12.625 -13 13 C-13 12.34 -13 11.68 -13 11 C-12.34 10.67 -11.68 10.34 -11 10 C-10.67 9.01 -10.34 8.02 -10 7 C-8.36209288 5.95355934 -6.68991979 4.9601817 -5 4 C-3.31522656 2.68962066 -1.64351457 1.36176922 0 0 Z " fill="#0E455E" transform="translate(1138,841)"/>
<path d="M0 0 C0.721875 0.103125 1.44375 0.20625 2.1875 0.3125 C0.14014725 2.35985275 -2.05081615 4.16161163 -4.28125 6.00390625 C-6.23282061 7.67170256 -8.03257436 9.46411568 -9.8125 11.3125 C-8.40722951 5.81916992 -6.17276971 0.6858633 0 0 Z " fill="#1B85A9" transform="translate(1166.8125,749.6875)"/>
<path d="M0 0 C0.66 0 1.32 0 2 0 C3.00109515 3.31070838 3.10356134 6.30084769 3.0625 9.75 C3.05347656 10.73484375 3.04445313 11.7196875 3.03515625 12.734375 C3.02355469 13.48203125 3.01195312 14.2296875 3 15 C2.34 15 1.68 15 1 15 C0.67 10.05 0.34 5.1 0 0 Z " fill="#085B87" transform="translate(1279,875)"/>
<path d="M0 0 C0.99 0.33 1.98 0.66 3 1 C3 3.97 3 6.94 3 10 C0 8 0 8 -0.75 5 C-1 2 -1 2 0 0 Z M-5 4 C-1 5 -1 5 -1 5 Z " fill="#2BBCE9" transform="translate(1265,662)"/>
<path d="M0 0 C-0.66 1.32 -1.32 2.64 -2 4 C-2.66 4 -3.32 4 -4 4 C-4.20625 4.598125 -4.4125 5.19625 -4.625 5.8125 C-6.50926082 8.81018767 -8.81132084 9.61361776 -12 11 C-12 9 -12 9 -10.6875 7.4375 C-9 6 -9 6 -6 5 C-5.30062468 3.68352881 -4.63270867 2.34977849 -4 1 C-2 0 -2 0 0 0 Z " fill="#0C3F57" transform="translate(1108,800)"/>
<path d="M0 0 C0 0.66 0 1.32 0 2 C-0.99 2 -1.98 2 -3 2 C-2.896875 2.763125 -2.79375 3.52625 -2.6875 4.3125 C-2.790625 5.199375 -2.89375 6.08625 -3 7 C-5.375 8.875 -5.375 8.875 -8 10 C-8.66 9.67 -9.32 9.34 -10 9 C-7.90713868 5.03457855 -4.97813191 0 0 0 Z " fill="#033756" transform="translate(1015,885)"/>
<path d="M0 0 C0.66 0 1.32 0 2 0 C1.67 1.32 1.34 2.64 1 4 C-0.32 4 -1.64 4 -3 4 C-3.28875 4.598125 -3.5775 5.19625 -3.875 5.8125 C-5 8 -5 8 -7 11 C-7.66 10.67 -8.32 10.34 -9 10 C-8.26418258 8.8450079 -7.51069961 7.70125815 -6.75 6.5625 C-6.33234375 5.92441406 -5.9146875 5.28632812 -5.484375 4.62890625 C-3.72751123 2.70097943 -2.53910197 2.38520564 0 2 C0 1.34 0 0.68 0 0 Z " fill="#0E445C" transform="translate(1193,791)"/>
<path d="M0 0 C0 0.99 0 1.98 0 3 C-3.07460137 5.89890986 -6.01457486 7.63356852 -10 9 C-9.67 8.01 -9.34 7.02 -9 6 C-8.01 5.67 -7.02 5.34 -6 5 C-4.64631404 3.68733482 -3.31200404 2.35432675 -2 1 C-1.34 0.67 -0.68 0.34 0 0 Z " fill="#043558" transform="translate(938,900)"/>
<path d="M0 0 C0.33 0.99 0.66 1.98 1 3 C-4 6 -4 6 -9 9 C-7.48328036 4.44984107 -3.83108947 2.49942736 0 0 Z " fill="#0B384E" transform="translate(1149,832)"/>
<path d="M0 0 C0.66 0.33 1.32 0.66 2 1 C-1.96 4.465 -1.96 4.465 -6 8 C-6.33 7.34 -6.66 6.68 -7 6 C-6.67 5.01 -6.34 4.02 -6 3 C-4.68 3 -3.36 3 -2 3 C-2 2.34 -2 1.68 -2 1 C-1.34 0.67 -0.68 0.34 0 0 Z " fill="#125C7E" transform="translate(1151,828)"/>
<path d="M0 0 C0.66 0.33 1.32 0.66 2 1 C2 1.99 2 2.98 2 4 C-1.465 5.485 -1.465 5.485 -5 7 C-3.70700306 4.11562221 -2.34058637 2.12780579 0 0 Z " fill="#094869" transform="translate(1182,896)"/>
<path d="M0 0 C0.99 0.33 1.98 0.66 3 1 C-0.465 3.97 -0.465 3.97 -4 7 C-3.6875 4.625 -3.6875 4.625 -3 2 C-2.01 1.34 -1.02 0.68 0 0 Z " fill="#1B87AA" transform="translate(1179,737)"/>
<path d="M0 0 C2.56616632 3.84924948 2.55097676 6.4349304 3 11 C1.5 10 1.5 10 0 8 C-0.27345479 5.28153765 -0.13491285 2.74322801 0 0 Z " fill="#2299C1" transform="translate(1268,664)"/>
<path d="M0 0 C0.99 0.33 1.98 0.66 3 1 C0.03 3.475 0.03 3.475 -3 6 C-3 4.68 -3 3.36 -3 2 C-2.01 2 -1.02 2 0 2 C0 1.34 0 0.68 0 0 Z " fill="#014974" transform="translate(1015,885)"/>
<path d="M0 0 C0.66 0.33 1.32 0.66 2 1 C0.1875 3 0.1875 3 -2 5 C-2.99 5 -3.98 5 -5 5 C-4.1875 3.0625 -4.1875 3.0625 -3 1 C-2.01 0.67 -1.02 0.34 0 0 Z " fill="#0F6187" transform="translate(1084,824)"/>
<path d="M0 0 C0.33 0.99 0.66 1.98 1 3 C-2.465 4.485 -2.465 4.485 -6 6 C-4.75453595 2.26360784 -3.36595047 1.81243487 0 0 Z " fill="#0E4359" transform="translate(1224,765)"/>
<path d="M0 0 C1.9375 0.125 1.9375 0.125 4 1 C5.25 3.5625 5.25 3.5625 6 6 C4.68 5.34 3.36 4.68 2 4 C2 3.34 2 2.68 2 2 C1.01 1.67 0.02 1.34 -1 1 C-0.67 0.67 -0.34 0.34 0 0 Z " fill="#2689AC" transform="translate(1238,750)"/>
<path d="M0 0 C1.65 0 3.3 0 5 0 C4.34 1.32 3.68 2.64 3 4 C2.01 4 1.02 4 0 4 C0 2.68 0 1.36 0 0 Z " fill="#0B5A8B" transform="translate(1421,897)"/>
</svg>
