<?xml version="1.0" encoding="UTF-8"?>
<svg version="1.1" xmlns="http://www.w3.org/2000/svg" width="2000" height="2000">
<path d="M0 0 C660 0 1320 0 2000 0 C2000 660 2000 1320 2000 2000 C1340 2000 680 2000 0 2000 C0 1340 0 680 0 0 Z " fill="#091627" transform="translate(0,0)"/>
<path d="M0 0 C1.58784302 0.00628418 1.58784302 0.00628418 3.20776367 0.01269531 C25.06008921 0.32704509 45.80047569 8.49498445 61.875 23.4375 C75.06735179 37.35923662 83.42184733 54.36584588 86.3125 73.3125 C87.31667969 72.79300781 88.32085938 72.27351562 89.35546875 71.73828125 C100.8073293 65.87142234 112.24720739 61.08011251 124.625 57.5 C125.3660498 57.28061768 126.10709961 57.06123535 126.87060547 56.83520508 C131.83307875 55.45871613 136.15905069 54.95861507 141.3125 55.3125 C144.75562714 57.4369827 146.02867547 58.46102641 147.3125 62.3125 C147.4167649 64.80982077 147.46657551 67.28038464 147.47021484 69.77807617 C147.47529556 70.53619598 147.48037628 71.2943158 147.48561096 72.07540894 C147.49631032 73.72214287 147.50493221 75.36889132 147.51173019 77.01564598 C147.52353367 79.62674376 147.5429921 82.23767723 147.56484985 84.84870911 C147.62640391 92.2728626 147.68042277 99.69700037 147.71386719 107.12133789 C147.73487913 111.66368796 147.770238 116.20573996 147.81462479 120.74791908 C147.82873723 122.47453603 147.83749643 124.20120574 147.84067917 125.92787743 C147.84561931 128.35221634 147.86885704 130.77577281 147.89599609 133.19995117 C147.89298996 133.90518417 147.88998383 134.61041718 147.8868866 135.33702087 C147.97441601 140.63455707 149.09357968 144.56411323 151.3125 149.3125 C156.08028684 150.90176228 159.77190963 150.95954795 164.4375 149 C170.43986019 143.38909808 172.52146972 136.61791173 172.86282349 128.55747986 C172.92200824 125.21038013 172.91194725 121.8690495 172.85449219 118.52197266 C172.81223909 115.92144162 172.81346952 113.32347663 172.8203125 110.72265625 C172.80983047 109.05727375 172.7968977 107.39190447 172.78125 105.7265625 C172.78094788 104.57022812 172.78094788 104.57022812 172.78063965 103.39053345 C172.63724975 96.85803455 170.41139229 93.34769364 166.1875 88.625 C163.75384054 85.89470046 162.44401921 84.27697424 161.9375 80.5625 C162.43976843 76.20950694 164.01670498 74.01420321 167.3125 71.3125 C179.5954985 63.31325187 199.66788841 55.27867106 214.4375 54.875 C215.64792969 54.81505859 215.64792969 54.81505859 216.8828125 54.75390625 C220.58063176 55.60404798 221.96115087 57.3784313 224.3125 60.3125 C224.79037346 63.23900901 224.9658321 65.57823509 224.90844727 68.49584961 C224.9125058 69.30624191 224.91656433 70.11663422 224.92074585 70.95158386 C224.92625356 72.7057948 224.92028128 74.46007142 224.90408516 76.21421623 C224.87864537 78.99334289 224.8834692 81.77098776 224.89598083 84.55018616 C224.91672064 90.45028731 224.89705231 96.34992914 224.875 102.25 C224.85388232 109.08504269 224.84935432 115.91960792 224.87550163 122.75464058 C224.878858 125.48804919 224.85765536 128.22054199 224.83509827 130.95384216 C224.83761027 132.63581541 224.84117105 134.31778752 224.84594727 135.99975586 C224.83306168 136.75579102 224.82017609 137.51182617 224.80690002 138.29077148 C224.85744845 143.64125405 226.08855938 146.25492408 229.3125 150.3125 C229.42464844 148.89710938 229.42464844 148.89710938 229.5390625 147.453125 C230.79677951 135.17188829 234.17165174 125.06961053 243.50390625 116.4140625 C246.89038468 113.88009116 250.36593162 111.8638998 254.125 109.9375 C255.06545166 109.45458496 255.06545166 109.45458496 256.02490234 108.96191406 C266.37615948 104.01779579 277.23522885 102.79528912 288.5625 102.125 C289.79613281 102.04314453 291.02976562 101.96128906 292.30078125 101.87695312 C295.30420164 101.67905333 298.30787927 101.49107168 301.3125 101.3125 C300.39179321 99.86098622 299.4615381 98.41552636 298.52734375 96.97265625 C298.01034912 96.16707275 297.49335449 95.36148926 296.96069336 94.53149414 C294.28658613 90.9312926 291.65520766 89.32602219 287.3125 88.3125 C276.66527946 87.1823481 268.95501698 88.77633655 259.65625 93.7265625 C258.7796875 94.18804688 257.903125 94.64953125 257 95.125 C256.22011719 95.56457031 255.44023438 96.00414062 254.63671875 96.45703125 C251.7364469 97.52452627 250.22718333 97.25857754 247.3125 96.3125 C244.5 94.125 244.5 94.125 242.3125 91.3125 C241.65463635 85.33487472 243.66458685 82.51944944 247.15234375 77.89453125 C257.44306684 65.59404669 272.23140196 57.06008014 288.3125 55.3125 C303.52600783 54.16182302 318.35142702 54.35311914 330.59375 64.75390625 C331.44453125 65.52541016 331.44453125 65.52541016 332.3125 66.3125 C333.16328125 66.97572266 333.16328125 66.97572266 334.03125 67.65234375 C345.51927265 77.49549043 349.76477376 93.913461 354.3125 107.75 C354.69730026 108.91854019 354.69730026 108.91854019 355.08987427 110.11068726 C357.52000293 117.51351989 359.90963797 124.92637213 362.1519165 132.38844299 C362.71077656 134.23305217 363.28871614 136.07184703 363.8671875 137.91040039 C364.55966986 140.1115276 365.22079213 142.322873 365.84375 144.54467773 C367.58627657 150.10744023 367.58627657 150.10744023 371.81152344 153.875 C374.29821452 154.88333091 376.705556 155.68658307 379.3125 156.3125 C381.51692529 150.04679608 381.68247229 144.14160783 381.75390625 137.53515625 C381.77456398 135.84718178 381.77456398 135.84718178 381.79563904 134.12510681 C381.81884192 131.75248074 381.83614234 129.37979047 381.84790039 127.00708008 C381.87489122 123.38957913 381.94988242 119.77497236 382.02539062 116.15820312 C382.0420441 113.84637372 382.05581184 111.53452136 382.06640625 109.22265625 C382.11118858 107.61137596 382.11118858 107.61137596 382.15687561 105.96754456 C382.12427637 100.36875698 381.66052387 97.04692552 377.91381836 92.74780273 C376.7276332 91.58794251 375.52841533 90.44115446 374.3125 89.3125 C369.46844059 83.44863861 369.46844059 83.44863861 368.875 79.125 C369.36716398 74.83614247 370.05161231 73.12629207 372.98828125 70.06640625 C378.44211914 65.95082102 384.95365932 63.66445496 391.3125 61.3125 C392.10543457 61.01891602 392.89836914 60.72533203 393.71533203 60.42285156 C413.85035511 53.14416337 413.85035511 53.14416337 422.3125 55.3125 C426.7334949 58.81534762 427.24710243 61.98551215 428.3125 67.3125 C428.79976562 66.86519531 429.28703125 66.41789063 429.7890625 65.95703125 C441.5896734 55.8943285 454.06653164 54.22447014 469.02636719 55.0769043 C478.78713488 56.08279289 488.67311676 60.09469009 495.5625 67.1875 C504.33835939 78.13451795 508.5248787 90.93108781 511.63671875 104.40234375 C512.41238507 107.7426409 513.2203981 111.07432147 514.03125 114.40625 C518.94745671 134.64483079 518.94745671 134.64483079 520.47265625 141.4453125 C522.8067795 151.68888382 525.77491667 157.98429398 533.3125 165.3125 C534.6649753 169.3699259 534.98905639 173.07472922 534.3125 177.3125 C531.78281526 180.59425318 530.23518669 182.00493777 526.3125 183.3125 C524.48881645 183.42053454 522.66150681 183.47129728 520.8347168 183.48950195 C519.15233162 183.50875481 519.15233162 183.50875481 517.43595886 183.52839661 C516.22345963 183.53578354 515.01096039 183.54317047 513.76171875 183.55078125 C512.51501907 183.558853 511.2683194 183.56692474 509.98384094 183.57524109 C507.34343754 183.58908108 504.70315896 183.60009777 502.06274414 183.60766602 C499.35938998 183.61652761 496.65654957 183.63740559 493.95336914 183.66918945 C490.05599417 183.71178762 486.1592974 183.72802517 482.26171875 183.73828125 C481.05529221 183.75578934 479.84886566 183.77329742 478.60588074 183.79133606 C470.64303129 183.77073934 466.97292301 182.97292301 461.3125 177.3125 C460.4889791 173.86316247 460.58038125 170.77342502 461.3125 167.3125 C463.1993711 164.4451151 465.23312867 161.96084781 467.5625 159.44140625 C472.14998858 151.23922242 468.62523791 140.78787047 466.5625 132.1875 C466.28736572 131.00696045 466.01223145 129.8264209 465.72875977 128.61010742 C465.17975936 126.25745512 464.62656699 123.90577644 464.06884766 121.55517578 C463.40961757 118.72887043 462.79066966 115.89968042 462.19921875 113.05859375 C460.40845136 104.58037309 458.34743298 97.92385198 452.5625 91.3125 C448.8425449 89.65918662 445.29532677 89.57150897 441.3125 90.3125 C436.62526148 93.57318767 434.74243424 97.91574716 433.3125 103.3125 C432.91578088 106.8519957 432.91446046 110.35141299 432.94921875 113.91015625 C432.94847099 115.39980141 432.94847099 115.39980141 432.94770813 116.91954041 C432.95003723 119.00798556 432.95969652 121.09643414 432.97631836 123.18481445 C432.99995479 126.36890931 432.99686446 129.55216747 432.99023438 132.73632812 C432.99581074 134.77344246 433.00292035 136.81055329 433.01171875 138.84765625 C433.01080734 139.79262466 433.00989594 140.73759308 433.00895691 141.7111969 C433.07421059 147.83542531 433.15339533 153.67209492 437.1875 158.60546875 C437.88875 159.23066406 438.59 159.85585938 439.3125 160.5 C443.4949519 164.27497037 445.14521334 166.55599006 445.6875 172.25 C445.60047946 175.36533528 445.27413812 176.37785728 443.625 179.1875 C439.61077474 182.87624753 435.86558104 183.56253863 430.51586914 183.5871582 C429.37440933 183.59669022 428.23294952 183.60622223 427.05690002 183.61604309 C425.83284958 183.61513168 424.60879913 183.61422028 423.34765625 183.61328125 C422.08159042 183.61756638 420.8155246 183.6218515 419.51109314 183.62626648 C416.83546029 183.63200577 414.16021372 183.63345008 411.48461914 183.62817383 C408.06720557 183.62238074 404.65033426 183.63931387 401.23301029 183.6625185 C397.95872994 183.68084953 394.68447864 183.67706952 391.41015625 183.67578125 C389.57711693 183.68959587 389.57711693 183.68959587 387.70704651 183.70368958 C381.79996296 183.6715442 377.41669191 183.63025104 372.3125 180.3125 C368.29265885 178.97255295 366.69022075 180.10671744 362.8125 181.6875 C361.6678125 182.14898438 360.523125 182.61046875 359.34375 183.0859375 C358.3434375 183.49070312 357.343125 183.89546875 356.3125 184.3125 C349.45591957 186.59802681 341.21614589 186.06031328 334.48046875 183.49609375 C328.73564576 180.35973093 324.08093526 175.60964013 320.3125 170.3125 C319.58546875 170.89257812 319.58546875 170.89257812 318.84375 171.484375 C303.83302761 183.14655163 286.05072504 186.90290902 267.3125 185.3125 C255.23407032 183.04455451 245.46121441 177.43258434 237.3125 168.3125 C236.65765625 168.75980469 236.0028125 169.20710937 235.328125 169.66796875 C220.86285593 179.25018795 202.9710978 186.91782707 185.3125 185.3125 C181.42369892 183.78475672 179.92774437 182.54685819 178.0703125 178.8203125 C177.05165232 176.34040185 176.13961172 173.86195024 175.3125 171.3125 C174.755625 171.77140625 174.19875 172.2303125 173.625 172.703125 C161.37595681 182.55201783 149.17419769 186.57362042 133.3125 185.3125 C122.38577278 183.83519583 113.53057395 178.9406353 106.62109375 170.26953125 C104.09815536 166.4964204 102.15047611 162.45460557 100.3125 158.3125 C99.97734375 157.59320312 99.6421875 156.87390625 99.296875 156.1328125 C96.58601902 148.36599498 96.05310906 140.71899438 96.14453125 132.5546875 C96.13885811 130.52733904 96.13165096 128.49999439 96.12304688 126.47265625 C96.11886604 123.32128987 96.12516928 120.17123172 96.15795898 117.02001953 C96.18494584 113.94733911 96.16805359 110.87734262 96.14453125 107.8046875 C96.17532524 106.40438797 96.17532524 106.40438797 96.20674133 104.97579956 C96.11125968 98.47146716 94.38959633 95.30894603 89.8144989 90.69363403 C89.31883926 90.2378598 88.82317963 89.78208557 88.3125 89.3125 C88.1703582 90.45393211 88.1703582 90.45393211 88.02534485 91.61842346 C84.78082573 117.38089325 78.54743715 136.5311397 61.3125 156.3125 C60.77238281 156.93769531 60.23226562 157.56289063 59.67578125 158.20703125 C48.0552584 170.70567926 32.84454215 177.13437008 17.3125 183.3125 C36.78040439 187.37304754 36.78040439 187.37304754 56.5625 188.875 C57.33948242 188.88917969 58.11646484 188.90335938 58.91699219 188.91796875 C65.80775709 188.79691886 70.67627283 186.06998478 76.3125 182.3125 C79.1875 181.875 79.1875 181.875 82.3125 182.3125 C84.88535724 184.485135 86.80246919 186.29243838 88.3125 189.3125 C89.20805869 200.26390343 88.55652987 208.13491722 81.9140625 217.2265625 C74.46279085 225.81254557 62.13916271 230.39843983 51.06103516 231.5456543 C20.98480167 233.37798899 -6.4339858 219.58726641 -33.44070435 208.12509155 C-47.39365093 202.19759097 -47.39365093 202.19759097 -61.5625 196.8125 C-62.30274414 196.54034668 -63.04298828 196.26819336 -63.80566406 195.98779297 C-70.57541648 193.66760544 -76.07969018 193.53026429 -82.6875 196.3125 C-85.75 196.75 -85.75 196.75 -88.6875 196.3125 C-92.37690667 192.62309333 -93.59065266 189.7652101 -93.9375 184.5625 C-93.84158624 180.19842412 -92.94479052 177.12167775 -90.6875 173.3125 C-85.28305774 168.31339091 -80.85189022 166.30336808 -73.5 165.75 C-72.41332031 165.66621094 -71.32664062 165.58242188 -70.20703125 165.49609375 C-69.37558594 165.43550781 -68.54414063 165.37492188 -67.6875 165.3125 C-68.23277344 164.81363281 -68.77804687 164.31476563 -69.33984375 163.80078125 C-86.16286285 147.78296648 -95.56864512 127.70214493 -96.19656372 104.45648193 C-96.42263287 91.42798986 -96.40888674 78.62431676 -91.6875 66.3125 C-91.44080566 65.65443359 -91.19411133 64.99636719 -90.93994141 64.31835938 C-85.63972053 50.43171562 -77.95573126 39.07059184 -67.6875 28.3125 C-67.16027344 27.71050781 -66.63304687 27.10851562 -66.08984375 26.48828125 C-54.27087563 13.52066662 -37.31189902 6.49600261 -20.6875 2.3125 C-20.02032959 2.13227295 -19.35315918 1.9520459 -18.66577148 1.76635742 C-12.42683092 0.19735376 -6.41527978 -0.0346579 0 0 Z " fill="#F3BE01" transform="translate(511.6875,778.6875)"/>
<path d="M0 0 C3.44312714 2.1244827 4.71617547 3.14852641 6 7 C6.08450799 8.8135088 6.10894786 10.63005585 6.10006714 12.44551086 C6.09710632 13.57687469 6.09414551 14.70823853 6.09109497 15.87388611 C6.08278656 17.11602371 6.07447815 18.35816132 6.06591797 19.63793945 C6.05874499 21.64504521 6.05157611 23.65215098 6.04456162 25.65925729 C6.0361554 27.8179329 6.02536242 29.97658604 6.01403427 32.13524818 C5.99097364 36.63598496 5.97766779 41.13671725 5.96633911 45.63749695 C5.93290404 58.4363674 5.89131873 71.23517262 5.82861328 84.03393555 C5.79406657 91.10195843 5.77027252 98.16993276 5.75840485 105.23803109 C5.75163906 108.97740435 5.73920345 112.71657174 5.71337509 116.45586586 C5.68455446 120.62859623 5.67900625 124.80104867 5.67529297 128.97387695 C5.65675766 130.82797432 5.65675766 130.82797432 5.6378479 132.7195282 C5.59993517 140.79612529 5.59993517 140.79612529 9 148 C11.20385262 149.94684245 11.20385262 149.94684245 13.6875 151.375 C14.49574219 151.87773438 15.30398438 152.38046875 16.13671875 152.8984375 C16.75160156 153.26195312 17.36648438 153.62546875 18 154 C18.268125 153.50371094 18.53625 153.00742187 18.8125 152.49609375 C22.05562363 146.87396825 25.93602807 143.02101989 31 139 C29.69886735 136.14370404 28.28411995 134.07789787 26.125 131.8125 C18.29719966 122.91292259 17.2902775 112.43590587 18 101 C20.1616777 87.55396808 28.86278345 75.97614568 39.6328125 68.06640625 C56.57083029 56.84677908 72.37218995 54.55059009 92.17211914 54.56420898 C104.11603981 54.5465038 113.16088448 54.37295502 122.125 45.5 C128.88195548 39.20939881 133.54103833 36.18050178 143.11328125 36.46875 C147.57140685 37.28918989 150.21083131 39.51579574 153 43 C155.35722449 47.71444898 154.82805762 54.44823061 153.234375 59.359375 C149.43100481 66.26972365 142.27966495 70.20778099 134.875 72.375 C133.92625 72.58125 132.9775 72.7875 132 73 C132.59748047 73.89138672 132.59748047 73.89138672 133.20703125 74.80078125 C140.34066382 85.96118451 142.83215275 97.18242676 140.37890625 110.328125 C137.23690246 122.11413032 129.91003236 132.81530429 119.24707031 139.02001953 C104.43068625 147.17457305 91.33211547 150.18473347 74.4375 150.125 C73.33986328 150.12886719 72.24222656 150.13273438 71.11132812 150.13671875 C65.63472225 150.13011645 60.39305018 149.97492729 55 149 C55 150.32 55 151.64 55 153 C59.16563988 154.15616112 63.20241499 154.19091112 67.5 154.1875 C68.36294678 154.18814453 69.22589355 154.18878906 70.11499023 154.18945312 C77.79267863 154.13027501 85.41022219 153.59544157 93.0625 153 C132.05731113 150.03860161 132.05731113 150.03860161 145.02734375 161.0078125 C151.93660682 167.98548412 155.28159128 175.40042153 155.3125 185.25 C155.17325113 198.20647433 150.97084955 207.00460521 141.78125 216.2265625 C124.59454312 231.06441944 100.92459642 235.38278569 78.9375 235.25 C77.65294922 235.25773438 76.36839844 235.26546875 75.04492188 235.2734375 C67.46492538 235.25797601 60.38981704 234.68725517 53 233 C52.30350342 232.84869629 51.60700684 232.69739258 50.8894043 232.54150391 C39.02296058 229.85844675 26.58683479 225.59270928 19.61328125 214.8671875 C16.68232445 208.96413766 15.65559596 203.19182158 17.6953125 196.83203125 C19.89711371 191.90110668 22.77553405 189.26436006 27 186 C27 185.34 27 184.68 27 184 C26.2575 183.46375 25.515 182.9275 24.75 182.375 C21.7041572 179.7444994 20.51996199 177.50595827 18.89453125 173.90234375 C17.93863439 171.74771358 17.93863439 171.74771358 16 169 C14.53046875 170.12728516 14.53046875 170.12728516 13.03125 171.27734375 C9.07616687 174.09573758 5.03379084 175.87428152 0.5 177.5625 C-0.28101074 177.85842041 -1.06202148 178.15434082 -1.86669922 178.45922852 C-25.23350931 187.12282061 -25.23350931 187.12282061 -35.1875 184 C-38.96907021 181.3108834 -40.83109917 178.04029756 -43 174 C-43.6290625 174.47050781 -44.258125 174.94101562 -44.90625 175.42578125 C-57.5925764 184.65393735 -70.62135099 186.23664788 -86 185 C-98.45030108 182.66204754 -109.78339953 175.40709752 -117 165 C-120.1469069 159.59149351 -123.02019016 153.93942952 -125 148 C-125.15033691 148.83809204 -125.15033691 148.83809204 -125.30371094 149.69311523 C-125.77411302 152.27686001 -126.26195115 154.85703274 -126.75 157.4375 C-126.90726563 158.31599609 -127.06453125 159.19449219 -127.2265625 160.09960938 C-128.50700042 166.77266086 -129.97588592 174.01797101 -134.96484375 178.9375 C-135.61582031 179.288125 -136.26679687 179.63875 -136.9375 180 C-137.58589844 180.37125 -138.23429687 180.7425 -138.90234375 181.125 C-142.92162766 182.8015728 -146.87257088 183.1259589 -151.19248962 183.14044189 C-152.21721878 183.14615204 -153.24194794 183.15186218 -154.29772949 183.15774536 C-155.41111694 183.15886322 -156.52450439 183.15998108 -157.67163086 183.16113281 C-158.85265884 183.16609772 -160.03368683 183.17106262 -161.25050354 183.17617798 C-164.4819181 183.18825945 -167.71329654 183.19573714 -170.94472957 183.20018864 C-172.96547582 183.20312592 -174.98621649 183.20723186 -177.00695992 183.21169281 C-183.33516409 183.22535272 -189.66335539 183.23502779 -195.99157327 183.2388947 C-203.28653995 183.24337755 -210.58131946 183.26094215 -217.87622923 183.2898953 C-223.52309009 183.3115269 -229.16989833 183.3215997 -234.81680018 183.32293582 C-238.18612127 183.32398242 -241.55526605 183.32985962 -244.92454338 183.34775543 C-248.68283198 183.36479244 -252.44066316 183.36294135 -256.19897461 183.35644531 C-257.31033783 183.3656601 -258.42170105 183.37487488 -259.56674194 183.3843689 C-266.11114324 183.34889928 -270.40123677 182.60600096 -275.8125 178.6875 C-277.50111798 176.28788497 -277.57832099 173.86664352 -278 171 C-278.76183594 171.60328125 -279.52367187 172.2065625 -280.30859375 172.828125 C-294.78069847 184.03000381 -306.87486647 186.31695189 -325 185 C-335.75992843 182.92393884 -344.86197614 175.97555314 -351 167 C-354.97347214 159.10439256 -357.13017923 152.12517089 -357.11352539 143.28198242 C-357.11367142 142.62776306 -357.11381744 141.9735437 -357.1139679 141.29949951 C-357.11327494 139.15145474 -357.10551164 137.00349825 -357.09765625 134.85546875 C-357.09578988 133.36045886 -357.09436701 131.86544835 -357.09336853 130.37043762 C-357.08956064 126.44628189 -357.07974518 122.5221635 -357.06866455 118.59802246 C-357.05841321 114.58944199 -357.05386294 110.58085545 -357.04882812 106.57226562 C-357.0381213 98.71482666 -357.02106572 90.85741798 -357 83 C-358.08539062 83.03867187 -359.17078125 83.07734375 -360.2890625 83.1171875 C-364.74112431 82.97659607 -366.58263076 81.76644177 -370 79 C-371.97647438 75.04705124 -371.42840999 70.30858043 -371 66 C-367.14519182 57.98199899 -359.04153472 51.96968097 -352.0625 46.6875 C-351.3310376 46.1320752 -350.5995752 45.57665039 -349.84594727 45.00439453 C-344.83771855 41.25507364 -339.72565077 37.71763513 -334.4375 34.375 C-333.80787354 33.97369873 -333.17824707 33.57239746 -332.52954102 33.15893555 C-326.25629857 29.30007421 -319.53152948 25.88421785 -312 27 C-309.03453067 28.80332595 -306.57701869 30.84596262 -305 34 C-304.98380773 35.74257981 -305.03502367 37.48603427 -305.12109375 39.2265625 C-305.16943359 40.2578125 -305.21777344 41.2890625 -305.26757812 42.3515625 C-305.32365234 43.43179688 -305.37972656 44.51203125 -305.4375 45.625 C-305.48970703 46.71296875 -305.54191406 47.8009375 -305.59570312 48.921875 C-305.72562775 51.6148581 -305.86060162 54.30749336 -306 57 C-305.29915283 56.98428955 -304.59830566 56.9685791 -303.8762207 56.95239258 C-300.68839649 56.88987588 -297.50070149 56.85095619 -294.3125 56.8125 C-293.20970703 56.78736328 -292.10691406 56.76222656 -290.97070312 56.73632812 C-289.90400391 56.72666016 -288.83730469 56.71699219 -287.73828125 56.70703125 C-286.75899658 56.6913208 -285.77971191 56.67561035 -284.77075195 56.65942383 C-280.81812895 57.1452736 -278.29808969 58.99100452 -275.2109375 61.390625 C-272.71833788 64.7033703 -273.56399744 69.07000429 -274 73 C-275.23459557 78.07236939 -277.6547034 81.1031356 -282 84 C-284.59891154 85.29945577 -286.32666656 85.0223077 -289.2265625 84.87890625 C-290.2578125 84.83056641 -291.2890625 84.78222656 -292.3515625 84.73242188 C-293.43179687 84.67634766 -294.51203125 84.62027344 -295.625 84.5625 C-296.71296875 84.51029297 -297.8009375 84.45808594 -298.921875 84.40429688 C-301.6148581 84.27437225 -304.30749336 84.13939838 -307 84 C-306.93031561 90.25850496 -306.84197635 96.51639222 -306.73754883 102.77441406 C-306.70462851 104.89608815 -306.67649843 107.01784291 -306.65356445 109.13964844 C-307.741532 129.73350639 -307.741532 129.73350639 -301.08081055 147.8828125 C-297.91225317 149.58401144 -295.43483025 149.7767814 -292 149 C-285.02911486 146.2544537 -285.02911486 146.2544537 -279 142 C-275.04706514 141.46096343 -273.44019408 141.69377803 -270.125 144 C-267.27011416 148.03042707 -267.58959681 150.15724241 -268 155 C-261.71425031 148.06400035 -260.55012546 141.13287729 -260.59594727 132.14672852 C-260.58565239 130.71825592 -260.58565239 130.71825592 -260.57514954 129.26092529 C-260.5569462 126.13343113 -260.56070981 123.00644169 -260.56640625 119.87890625 C-260.56184143 117.6922947 -260.55653497 115.50568458 -260.55052185 113.31907654 C-260.54160348 108.74382689 -260.54399954 104.16875192 -260.55395508 99.59350586 C-260.56544426 93.7450017 -260.54522705 87.89710136 -260.51603794 82.04867649 C-260.49764815 77.53521426 -260.49797396 73.021896 -260.50367546 68.50840569 C-260.50382833 66.35274343 -260.4978128 64.19707121 -260.48538399 62.04144478 C-260.47042313 59.02147192 -260.48118878 56.00260544 -260.49829102 52.98266602 C-260.48862305 52.10186874 -260.47895508 51.22107147 -260.46899414 50.31358337 C-260.5557549 42.95735526 -262.45480181 36.88009269 -267.375 31.3125 C-268.24125 30.549375 -269.1075 29.78625 -270 29 C-274.89287364 24.37895267 -277.13058894 21.48731052 -277.375 14.625 C-277.33244059 10.59781602 -277.23415988 9.3374657 -274.875 5.9375 C-268.49269563 1.63638184 -262.45291621 1.71192991 -255.01269531 1.74121094 C-253.3676149 1.73595398 -253.3676149 1.73595398 -251.68930054 1.73059082 C-248.06884401 1.72179908 -244.44858347 1.7276154 -240.828125 1.734375 C-238.30474815 1.73302723 -235.78137156 1.73108576 -233.25799561 1.72857666 C-227.96884449 1.72562853 -222.6797632 1.72971989 -217.390625 1.73925781 C-211.29788562 1.75011885 -205.20528037 1.74663183 -199.1125443 1.735605 C-193.22964414 1.72538849 -187.34679443 1.72653045 -181.46389008 1.73236847 C-178.97134126 1.73369835 -176.478789 1.73208053 -173.9862442 1.72740936 C-170.49236654 1.72230025 -166.99874177 1.73011699 -163.50488281 1.74121094 C-161.97397507 1.73513824 -161.97397507 1.73513824 -160.41213989 1.72894287 C-151.91971198 1.77861086 -142.50437238 1.94942104 -136 8 C-127.84295413 19.42477811 -123.92027373 38.23914453 -126 52 C-127.33840031 54.65846637 -128.34056712 56.48710776 -130.6875 58.3125 C-134.27007114 59.37758872 -137.36406934 59.84263357 -141 59 C-146.88646087 55.45215246 -150.8454342 49.76895371 -155 44.4296875 C-161.12584402 36.98774418 -168.40425738 31.63490651 -178 30 C-182.0396954 29.78450612 -186.08009048 29.81489344 -190.125 29.8125 C-191.77048828 29.79413086 -191.77048828 29.79413086 -193.44921875 29.77539062 C-194.49980469 29.77345703 -195.55039063 29.77152344 -196.6328125 29.76953125 C-197.59074707 29.76542236 -198.54868164 29.76131348 -199.53564453 29.75708008 C-202.25462589 29.8300156 -202.25462589 29.8300156 -205 32 C-205.46865145 35.26700282 -205.46865145 35.26700282 -205.3984375 39.125 C-205.40130768 39.8277002 -205.40417786 40.53040039 -205.40713501 41.25439453 C-205.40917714 42.74056809 -205.40363678 44.22676843 -205.39111328 45.71289062 C-205.37505992 47.99149508 -205.39095499 50.2683259 -205.41015625 52.546875 C-205.40817384 53.98958726 -205.40433021 55.43229841 -205.3984375 56.875 C-205.39336182 58.85113281 -205.39336182 58.85113281 -205.38818359 60.8671875 C-205.26008301 61.90101563 -205.13198242 62.93484375 -205 64 C-199.8291029 67.44726473 -194.00920773 66.83835179 -188 66 C-184.50336859 64.41743883 -181.33257949 62.54948735 -178.04296875 60.578125 C-174.30190954 58.63796079 -171.47234548 58.23671412 -167.31640625 58.265625 C-163.86236477 59.36066682 -161.36540109 61.31562937 -159 64 C-157.76974867 66.64010991 -157.21453854 69.30929393 -156.6640625 72.16015625 C-156.49498383 72.94587509 -156.32590515 73.73159393 -156.15170288 74.54112244 C-155.79974106 76.20045468 -155.45917315 77.86224004 -155.12939453 79.52612305 C-154.63021509 82.03627562 -154.09384067 84.53612594 -153.55078125 87.03710938 C-148.86047054 109.23737923 -148.86047054 109.23737923 -152.8125 116.1875 C-156.28073223 119.06117814 -159.51250362 119.35866781 -163.953125 119.26953125 C-170.63854825 118.3891988 -175.04969626 111.93119181 -179 107 C-180.54050113 104.93741973 -182.06122663 102.8669028 -183.54296875 100.76171875 C-186.00464175 97.78527231 -188.3421841 96.21927197 -192 95 C-193.66368258 94.88233824 -195.33220803 94.82490917 -197 94.8125 C-198.299375 94.79123047 -198.299375 94.79123047 -199.625 94.76953125 C-202.26721537 94.83744062 -202.26721537 94.83744062 -205 97 C-205.45944131 99.44651398 -205.45944131 99.44651398 -205.38818359 102.3359375 C-205.40236832 104.007771 -205.40236832 104.007771 -205.4168396 105.71337891 C-205.41076691 106.92171387 -205.40469421 108.13004883 -205.3984375 109.375 C-205.40130768 110.61040527 -205.40417786 111.84581055 -205.40713501 113.11865234 C-205.40970423 116.40600278 -205.39760078 119.6929304 -205.38085938 122.98022461 C-205.37500574 124.99802176 -205.38083723 127.01542751 -205.39111328 129.03320312 C-205.40959055 132.89732186 -205.40741494 136.7608575 -205.3984375 140.625 C-205.40754654 142.43750244 -205.40754654 142.43750244 -205.4168396 144.28662109 C-205.40738312 145.40117676 -205.39792664 146.51573242 -205.38818359 147.6640625 C-205.38460342 149.14060303 -205.38460342 149.14060303 -205.38095093 150.64697266 C-205.25523712 151.42347168 -205.12952332 152.1999707 -205 153 C-199.01976733 156.98682178 -191.60162885 156.27711363 -184.625 156.375 C-183.12066406 156.43107422 -183.12066406 156.43107422 -181.5859375 156.48828125 C-174.78341432 156.56841569 -170.12540313 155.64395331 -165 151 C-162.42188672 147.95835003 -162.42188672 147.95835003 -160.4375 144.5 C-160.06383301 143.89341553 -159.69016602 143.28683105 -159.30517578 142.66186523 C-156.80890987 138.55340542 -154.58130408 134.33196986 -152.375 130.0625 C-146.87952659 119.7757786 -146.87952659 119.7757786 -142 117 C-137.21891668 116.00175183 -133.50037657 116.17667358 -129.1953125 118.5390625 C-128.47085937 119.02117187 -127.74640625 119.50328125 -127 120 C-126.87044922 118.81857422 -126.87044922 118.81857422 -126.73828125 117.61328125 C-124.02704169 96.59495621 -113.60449076 80.09496958 -97.125 67.125 C-85.55996238 58.84923931 -73.88235406 54.6133051 -59.75 54.8125 C-58.42355469 54.8134668 -58.42355469 54.8134668 -57.0703125 54.81445312 C-53.19423215 54.8408011 -49.74755872 54.9332971 -46 56 C-45.25969099 49.73936205 -44.65663155 44.2576053 -47.96875 38.69140625 C-50.21704657 36.0126605 -52.55384849 33.49701667 -55 31 C-56.61683609 27.76632783 -56.56698608 24.49641417 -56 21 C-49.83624777 12.16528847 -36.38773139 9.17037595 -26.5859375 5.9230957 C-24.36732232 5.18494558 -22.15648273 4.42613595 -19.9453125 3.66601562 C-18.51344422 3.18623458 -17.08116566 2.70767586 -15.6484375 2.23046875 C-14.99926361 2.00554245 -14.35008972 1.78061615 -13.6812439 1.5488739 C-8.89650012 -0.00657654 -4.96786076 -0.33876241 0 0 Z " fill="#F2BE01" transform="translate(1400,779)"/>
<path d="M0 0 C1.00160156 0.72960937 2.00320313 1.45921875 3.03515625 2.2109375 C20.27900398 15.68337479 30.24161422 34.30816622 33 56 C33.20404466 60.38881509 33.22780478 64.77563142 33.24023438 69.16845703 C33.24991184 71.23120911 33.28098862 73.29295066 33.3125 75.35546875 C33.3769149 83.3653321 32.64332986 90.41591176 30 98 C29.41798828 99.74796875 29.41798828 99.74796875 28.82421875 101.53125 C20.32796123 123.72078855 5.79158692 141.69242546 -16 152 C-25.19073108 155.99644349 -35.34255338 160.40715129 -45.5 160.125 C-46.3559375 160.10695313 -47.211875 160.08890625 -48.09375 160.0703125 C-48.7228125 160.04710937 -49.351875 160.02390625 -50 160 C-50 161.98 -50 163.96 -50 166 C-11.74762425 176.47745645 -11.74762425 176.47745645 26 172 C26.763125 171.4225 27.52625 170.845 28.3125 170.25 C30 169 30 169 32.1875 169.25 C34 170 34 170 35 171 C35.65639724 178.93056995 36.12162985 186.52135711 31 193 C24.49921781 200.6028804 14.7930986 204.57396187 5 206 C-19.26273121 207.2641904 -40.26823875 199.71844678 -62.2298584 190.22201538 C-66.35108481 188.44196526 -70.48359267 186.68860006 -74.6171875 184.9375 C-75.4270813 184.5943425 -76.2369751 184.251185 -77.07141113 183.89762878 C-83.9103487 181.01260986 -90.79552077 178.28377149 -97.75 175.6875 C-98.66346191 175.34549561 -99.57692383 175.00349121 -100.51806641 174.65112305 C-115.5752701 168.59592298 -115.5752701 168.59592298 -131 171 C-131.99 171 -132.98 171 -134 171 C-135.74118455 167.5176309 -135.57948084 163.79955054 -135 160 C-131.99844531 155.93907307 -128.65910373 153.83556207 -124 152 C-120.3654789 151.64544787 -116.77222087 151.71613034 -113.125 151.8125 C-112.15046875 151.82603516 -111.1759375 151.83957031 -110.171875 151.85351562 C-107.78067137 151.88868038 -105.39063025 151.9378933 -103 152 C-102.67 150.68 -102.34 149.36 -102 148 C-102.85271484 147.34644531 -102.85271484 147.34644531 -103.72265625 146.6796875 C-106.15944166 144.80023031 -108.57966838 142.90058092 -111 141 C-111.928125 140.30003906 -111.928125 140.30003906 -112.875 139.5859375 C-127.12951642 128.301112 -135.08596741 109.17681769 -137.4609375 91.5859375 C-137.74349272 88.38619056 -137.90296141 85.21035999 -138 82 C-138.0515625 81.03835938 -138.103125 80.07671875 -138.15625 79.0859375 C-138.88977574 56.40776679 -129.77296428 33.21884647 -114.5 16.5625 C-112.69644247 14.67451668 -110.85642429 12.83739798 -109 11 C-107.94232422 9.90945313 -107.94232422 9.90945313 -106.86328125 8.796875 C-79.96605837 -17.22939019 -30.41512332 -22.16022048 0 0 Z " fill="#0A1727" transform="translate(559,798)"/>
<path d="M0 0 C3.59595732 2.54713643 4.77598331 4.01059297 5.75 8.3125 C4.67249006 13.6102572 2.07577189 16.54343192 -2 20 C-9.05393095 23.65292853 -17.23407061 24.5742239 -25 26 C-24.49210937 26.38929688 -23.98421875 26.77859375 -23.4609375 27.1796875 C-15.42888778 33.70760806 -10.09610194 41.56093393 -9 52 C-8.06433939 63.56816756 -10.79376216 73.78306036 -18 83 C-24.450146 89.46043331 -31.43532771 93.92260124 -40 97 C-41.02738281 97.391875 -42.05476563 97.78375 -43.11328125 98.1875 C-58.07830447 103.06850417 -75.79166236 102.70560645 -91 99 C-93.55092696 102.26837516 -94.92123 104.49237108 -95.5625 108.625 C-95.30699564 112.13638511 -95.30699564 112.13638511 -92.6875 114.375 C-88.57484147 116.86172376 -85.58880133 117.12799511 -80.86328125 117.1328125 C-79.64576172 117.13410156 -78.42824219 117.13539063 -77.17382812 117.13671875 C-75.89958984 117.13285156 -74.62535156 117.12898437 -73.3125 117.125 C-72.05759766 117.12886719 -70.80269531 117.13273438 -69.50976562 117.13671875 C-63.22475684 117.13009947 -57.21665066 116.87512809 -51 116 C-44.82566711 115.54390893 -38.63367743 115.34033015 -32.44775391 115.10400391 C-30.42601393 115.01810113 -28.40589708 114.89487537 -26.38671875 114.76171875 C-17.58751474 114.35380863 -9.74420675 117.04458979 -2.5625 122.1875 C3.66036483 129.01747359 5.78990474 135.76994269 5.6574707 144.95849609 C5.07976622 155.05224405 0.06224442 163.11998458 -7.26171875 169.90234375 C-23.90351459 182.65076652 -44.12190166 186.41142821 -64.6875 186.3125 C-65.90630859 186.30758545 -67.12511719 186.3026709 -68.38085938 186.29760742 C-85.00456818 186.08332773 -104.64236315 184.62498957 -117 172 C-120.05417227 167.82654301 -121.89030369 163.23218384 -121.5625 158.0078125 C-120.03100117 152.54121252 -115.72386736 149.08608265 -111.0859375 146.1640625 C-108.42148073 144.69757854 -105.74424782 143.31009299 -103 142 C-103.64066406 141.731875 -104.28132813 141.46375 -104.94140625 141.1875 C-111.93282023 138.02000395 -117.48917762 134.02164477 -121 127 C-121.53738466 120.18968281 -121.72399837 113.93512241 -118 108 C-113.12271501 102.72199911 -107.37817086 99.20384972 -101 96 C-101.680625 95.46375 -102.36125 94.9275 -103.0625 94.375 C-104.5165625 93.199375 -104.5165625 93.199375 -106 92 C-106.5775 91.54109375 -107.155 91.0821875 -107.75 90.609375 C-115.19222434 84.51444989 -119.31289301 77.53165563 -120.32421875 67.91796875 C-120.76460575 55.11637426 -116.40870217 45.53928398 -108 36 C-91.39490726 19.80302013 -73.28747519 17.5494857 -51.25512695 17.56420898 C-38.05658745 17.79840602 -38.05658745 17.79840602 -26 13 C-25.030625 12.443125 -24.06125 11.88625 -23.0625 11.3125 C-19.21551227 8.40763172 -15.70770207 5.19909995 -12.171875 1.92578125 C-8.24418295 -1.55686656 -4.92859033 -1.35701149 0 0 Z " fill="#0B1727" transform="translate(1544,822)"/>
<path d="M0 0 C2 2 2 2 2.23492241 4.31368351 C2.22436412 5.7756272 2.22436412 5.7756272 2.21359253 7.2671051 C2.20904556 8.9429644 2.20904556 8.9429644 2.20440674 10.65267944 C2.18419464 12.50018295 2.18419464 12.50018295 2.16357422 14.38500977 C2.15415921 16.36962033 2.14474864 18.35423091 2.13550401 20.33884227 C2.1237136 22.47681243 2.10706461 24.61469886 2.08919907 26.75262642 C2.05263796 31.2120857 2.03341985 35.67151413 2.0173645 40.13108826 C1.96905043 52.81417335 1.89756338 65.49707214 1.80810547 78.17993164 C1.75887525 85.18130599 1.72422905 92.18260587 1.70498669 99.18412822 C1.69195021 103.61088791 1.66093489 108.03703351 1.61635184 112.46358216 C1.58721405 115.87877998 1.58451528 119.29391531 1.57763672 122.70922852 C1.56011353 123.92672791 1.54259033 125.14422729 1.52453613 126.39862061 C1.54273201 134.33023301 2.52686175 140.94427082 7.81640625 147.12109375 C8.39261719 147.55550781 8.96882813 147.98992187 9.5625 148.4375 C10.43068359 149.11619141 10.43068359 149.11619141 11.31640625 149.80859375 C12.8585182 150.89987947 14.42810442 151.95206961 16 153 C15.25683667 157.29068384 13.39468844 158.90447262 10.10400391 161.57275391 C6.54884697 163.98438624 2.73881827 165.3266933 -1.3125 166.6875 C-2.15409668 166.98148682 -2.99569336 167.27547363 -3.86279297 167.57836914 C-6.23688652 168.40119534 -8.61755346 169.20177132 -11 170 C-12.55654297 170.54914063 -12.55654297 170.54914063 -14.14453125 171.109375 C-19.29331453 172.82833887 -24.59570913 174.24960876 -30 173 C-35.42652391 168.8435136 -35.86683106 163.98591621 -36.73828125 157.4140625 C-36.86783203 156.21910156 -36.86783203 156.21910156 -37 155 C-37.556875 155.66386719 -38.11375 156.32773437 -38.6875 157.01171875 C-46.72468685 166.31150421 -54.3969339 172.10385649 -66.99316406 173.16845703 C-81.43380432 173.9560684 -92.65473838 171.43297499 -104.1953125 162.25390625 C-113.7733779 153.49525709 -118.82368586 140.25925237 -119.43359375 127.421875 C-119.45728847 125.53139804 -119.4581068 123.64051314 -119.4375 121.75 C-119.42847656 120.74783447 -119.41945313 119.74566895 -119.41015625 118.71313477 C-118.97240999 99.80340825 -111.65654937 84.09145077 -98 71 C-87.4221089 61.21743906 -73.82083679 54.60044411 -59.375 54.6875 C-58.05290527 54.68943359 -58.05290527 54.68943359 -56.70410156 54.69140625 C-49.76047778 54.79318161 -43.60072259 55.74609472 -37 58 C-37.08190624 54.83235551 -37.19464591 51.66649468 -37.3125 48.5 C-37.33505859 47.613125 -37.35761719 46.72625 -37.38085938 45.8125 C-37.69558502 38.03019307 -38.90839082 31.49468492 -44.6875 25.8125 C-46.81883364 23.71646795 -47.86750119 22.45459536 -48.70703125 19.57421875 C-47.8564711 16.47742793 -47.15814799 16.1186248 -44.53125 14.40625 C-40.3313753 12.0442818 -36.00860087 10.18349681 -31.5 8.5 C-30.7275293 8.20665771 -29.95505859 7.91331543 -29.15917969 7.61108398 C-7.04467293 -0.66944991 -7.04467293 -0.66944991 0 0 Z " fill="#0A1727" transform="translate(1398,785)"/>
<path d="M0 0 C0.93350281 -0.00281982 1.86700562 -0.00563965 2.82879639 -0.00854492 C3.85115387 -0.00652069 4.87351135 -0.00449646 5.92684937 -0.00241089 C7.54442139 -0.00503937 7.54442139 -0.00503937 9.19467163 -0.00772095 C12.77126663 -0.0121334 16.34781242 -0.00920234 19.92440796 -0.00582886 C22.40962738 -0.00650237 24.89484673 -0.00747279 27.38006592 -0.00872803 C33.2660096 -0.0103937 39.15193542 -0.00688725 45.03787649 -0.00157726 C51.04364117 0.00322594 57.04937496 -0.00155964 63.05513954 -0.00695992 C68.19222311 -0.01058227 73.32929721 -0.00941894 78.46638107 -0.00683212 C80.92626322 -0.00616656 83.38614624 -0.00697829 85.84602737 -0.00931168 C89.29486602 -0.01186367 92.74364047 -0.00796097 96.19247437 -0.00241089 C97.70779251 -0.00544724 97.70779251 -0.00544724 99.25372314 -0.00854492 C116.70013556 0.04321717 116.70013556 0.04321717 121.17440796 4.36917114 C123.9527463 8.20430076 125.16382308 12.61863842 126.44784546 17.12698364 C126.8983728 18.68546021 126.8983728 18.68546021 127.35800171 20.27542114 C129.32053061 27.81518336 130.3551807 35.33804089 129.44784546 43.12698364 C127.44784546 45.12698364 127.44784546 45.12698364 124.19003296 45.16213989 C119.25335549 43.79656627 117.59269627 41.52403558 114.57284546 37.56448364 C113.53034776 36.27966951 112.48346174 34.99840363 111.43222046 33.72073364 C110.92497437 33.10069458 110.41772827 32.48065552 109.89511108 31.84182739 C103.20342882 23.91295151 94.80794872 17.86843613 84.44784546 16.12698364 C80.30436776 15.88572248 76.16017662 15.89603049 72.01034546 15.87698364 C70.89079468 15.85635864 69.7712439 15.83573364 68.61776733 15.81448364 C60.5801172 15.71702168 60.5801172 15.71702168 53.44784546 19.12698364 C49.98836616 22.61095391 49.98043126 26.07360769 49.97909546 30.74417114 C49.97148193 31.47894684 49.96386841 32.21372253 49.95602417 32.97076416 C49.94524022 34.52231456 49.94236316 36.07393746 49.9468689 37.6255188 C49.94783968 39.98793007 49.90624054 42.34707372 49.86190796 44.70901489 C49.8566991 46.22072691 49.8540128 47.73245015 49.85409546 49.24417114 C49.82950256 50.29445999 49.82950256 50.29445999 49.80441284 51.3659668 C49.88317358 57.01432201 51.59597342 59.30200203 55.44784546 63.12698364 C60.42641886 65.61627035 68.03098594 64.99641646 73.44784546 64.12698364 C77.33810766 62.7781562 80.79236219 60.71466485 84.36972046 58.69729614 C88.50811331 56.58608558 90.92175927 56.25658245 95.44784546 57.12698364 C97.70484377 60.51248111 98.37362566 63.59796046 99.17440796 67.50588989 C99.32695038 68.23259384 99.4794928 68.95929779 99.63665771 69.70802307 C99.95763522 71.24809884 100.27514693 72.78890042 100.58944702 74.33035278 C101.06663005 76.65915059 101.56117495 78.98378149 102.05722046 81.30862427 C103.66398194 89.00468299 104.99210736 96.21963572 104.44784546 104.12698364 C103.44784546 105.12698364 103.44784546 105.12698364 100.19784546 105.43948364 C95.73234204 105.06735836 94.68542387 104.12049845 91.44784546 101.12698364 C89.93625769 99.20945711 88.47952581 97.24774313 87.07284546 95.25198364 C82.29056877 88.74872181 77.73475654 82.72062039 69.44784546 81.12698364 C64.50370657 80.725318 60.07709396 80.4481301 55.44784546 82.37698364 C52.53673745 84.92420315 50.63939732 86.81394878 50.06689453 90.73829651 C50.06450775 91.72693192 50.06212097 92.71556732 50.05966187 93.73416138 C50.05020538 94.85890366 50.0407489 95.98364594 50.03100586 97.14247131 C50.0401149 98.95818382 50.0401149 98.95818382 50.04940796 100.81057739 C50.04510269 102.682062 50.04510269 102.682062 50.04071045 104.59135437 C50.03866865 107.23025725 50.04269722 109.86832681 50.05673218 112.5071106 C50.07380677 115.8809695 50.06399114 119.25411149 50.04601479 122.62794399 C50.03253313 125.85551373 50.04198875 129.08299828 50.04940796 132.31057739 C50.04333527 133.51902817 50.03726257 134.72747894 50.03100586 135.97254944 C50.04046234 137.10044388 50.04991882 138.22833832 50.05966187 139.39041138 C50.06324203 140.87455788 50.06324203 140.87455788 50.06689453 142.38868713 C50.51851103 145.63493171 51.51443781 147.4981801 53.44784546 150.12698364 C60.54011262 154.44401583 67.57053054 154.36228376 75.63534546 154.43948364 C76.62598999 154.46848755 77.61663452 154.49749146 78.63729858 154.52737427 C86.60257645 154.595275 93.42305951 153.58143754 99.62728882 148.25637817 C104.81930466 142.76765809 108.28694927 136.50543476 111.69784546 129.81448364 C112.69644013 127.87746602 113.70143141 125.94372974 114.71347046 124.01370239 C115.1443396 123.17025269 115.57520874 122.32680298 116.01913452 121.45779419 C117.58691505 118.90010439 119.14774942 117.05365553 121.44784546 115.12698364 C125.07284546 114.68948364 125.07284546 114.68948364 128.44784546 115.12698364 C130.92052997 118.8360104 130.79167468 121.70481238 130.76034546 126.00198364 C130.75615601 126.78629761 130.75196655 127.57061157 130.74765015 128.37869263 C130.63091018 134.70314244 130.04177922 140.92298146 129.19784546 147.18948364 C129.03409424 148.4721814 129.03409424 148.4721814 128.86703491 149.78079224 C128.03697771 155.36857402 126.99595162 161.59464256 123.44784546 166.12698364 C117.19957303 169.63402006 111.47778412 169.55344914 104.42562866 169.51516724 C103.23134247 169.52042419 102.03705627 169.52568115 100.80657959 169.53109741 C97.54844018 169.54200141 94.29066934 169.53949945 91.03253579 169.52996016 C87.61645532 169.52233659 84.20039851 169.52941614 80.78431702 169.53411865 C75.05224215 169.53956617 69.32028352 169.53240875 63.58822632 169.51809692 C56.96418324 169.50174885 50.34041688 169.50707841 43.71638042 169.52357614 C38.02108306 169.53719185 32.32586895 169.53911099 26.63056058 169.53126013 C23.23229667 169.52658705 19.83416288 169.52594909 16.43590736 169.5358696 C12.65103922 169.54346932 8.8667068 169.53190079 5.08187866 169.51516724 C3.95711624 169.52123993 2.83235382 169.52731262 1.67350769 169.53356934 C0.6431842 169.52510986 -0.38713928 169.51665039 -1.44868469 169.50793457 C-2.79008278 169.50623796 -2.79008278 169.50623796 -4.15857983 169.50450706 C-7.08095406 169.04357943 -8.45148843 168.19207784 -10.55215454 166.12698364 C-11.11465454 162.75198364 -11.11465454 162.75198364 -10.55215454 159.12698364 C-8.48965454 156.62698364 -8.48965454 156.62698364 -5.55215454 154.12698364 C1.58504257 147.81821119 5.16423903 141.62749221 6.44784546 132.12698364 C6.59658783 129.01520889 6.60493118 125.90696775 6.60897827 122.79202271 C6.61394318 121.8708667 6.61890808 120.94971069 6.62402344 120.00064087 C6.63858294 116.96462242 6.64543678 113.92865622 6.65097046 110.89260864 C6.65672713 108.77279663 6.66248479 106.65298462 6.66824341 104.53317261 C6.67873581 100.09145873 6.68458996 95.64976285 6.68807983 91.20803833 C6.69356007 85.53457413 6.71758568 79.86135045 6.74605179 74.18796158 C6.76473486 69.80916665 6.76988679 65.43042901 6.77141571 61.0515976 C6.77443008 58.9609521 6.78241723 56.87030733 6.79560089 54.77970123 C6.81277975 51.84612556 6.81075232 48.91312916 6.80429077 45.97952271 C6.81350555 45.12723083 6.82272034 44.27493896 6.83221436 43.39682007 C6.77424961 34.93669291 4.92285712 26.75462933 -0.55215454 20.12698364 C-2.86221949 17.97525355 -5.21446298 15.89825835 -7.62637329 13.86135864 C-10.17414508 11.56681366 -10.50932391 10.63024353 -10.80215454 7.18948364 C-10.55215454 4.12698364 -10.55215454 4.12698364 -9.23965454 2.31448364 C-6.22658066 0.19417239 -3.56220716 0.00165507 0 0 Z " fill="#0B1826" transform="translate(1138.5521545410156,786.8730163574219)"/>
<path d="M0 0 C10.30254172 8.54789009 16.72641963 19.98399935 18.82421875 33.1015625 C19.16941521 37.09817039 18.55305777 39.51239729 16.046875 42.5078125 C12.35091988 46.58930519 8.18473229 48.75444926 3.25 51.07421875 C1.86880981 51.74384644 1.86880981 51.74384644 0.4597168 52.42700195 C-8.84169877 56.87772367 -18.26618031 61.07236828 -27.6875 65.26171875 C-28.44945679 65.60162842 -29.21141357 65.94153809 -29.99645996 66.29174805 C-32.17577255 67.26103636 -34.35859149 68.22187621 -36.54296875 69.1796875 C-37.20143295 69.47288376 -37.85989716 69.76608002 -38.53831482 70.06816101 C-41.37916189 71.30284001 -43.36499704 72.07421875 -46.5 72.07421875 C-40.65934428 78.44584317 -34.87579063 81.69555451 -26.1171875 82.3125 C-10.58328855 82.62058359 -1.52549801 77.15663435 10.5 68.07421875 C13.99124017 65.7467253 15.39222251 65.57122559 19.5 66.07421875 C22.79989095 68.74980601 24.29716524 70.74130462 24.9375 74.94921875 C24.72314923 85.25949095 16.5123898 94.33548318 9.5 101.07421875 C-7.35682494 116.79014183 -26.48351694 120.78349331 -48.72167969 120.20166016 C-66.05938713 119.40638043 -79.76795692 111.42786937 -91.45703125 98.9921875 C-103.14953936 85.26176948 -105.58053171 67.71150456 -104.6953125 50.30957031 C-103.38509692 35.31415295 -96.1945153 23.18371261 -86.5 12.07421875 C-85.98050781 11.45933594 -85.46101563 10.84445312 -84.92578125 10.2109375 C-63.82946138 -12.90467747 -25.73148791 -17.65210703 0 0 Z " fill="#0B1727" transform="translate(1646.5,843.92578125)"/>
<path d="M0 0 C1 1 1 1 1.11352539 3.13305664 C1.10828857 4.04949951 1.10305176 4.96594238 1.09765625 5.91015625 C1.09443359 6.89951172 1.09121094 7.88886719 1.08789062 8.90820312 C1.07532227 10.46958008 1.07532227 10.46958008 1.0625 12.0625 C1.05798828 13.10728516 1.05347656 14.15207031 1.04882812 15.22851562 C1.03699913 17.8190666 1.02051689 20.40950559 1 23 C1.66 23 2.32 23 3 23 C3.24878906 22.27683594 3.49757813 21.55367187 3.75390625 20.80859375 C8.32119908 10.51428796 17.74339748 5.07050971 27.66796875 0.87109375 C38.52810151 -1.96807343 52.66735296 -1.65048409 62.66796875 3.54296875 C63.43753906 4.02378906 64.20710937 4.50460937 65 5 C65.65613281 5.38800781 66.31226563 5.77601563 66.98828125 6.17578125 C82.1098487 17.00563998 85.33774001 41.53138386 89.0625 58.4375 C89.39063789 59.90704368 89.71941342 61.37644513 90.04882812 62.84570312 C90.21176865 63.57301132 90.37470917 64.30031952 90.54258728 65.04966736 C91.19487844 67.95831488 91.8483865 70.86668832 92.50247192 73.77493286 C92.84258014 75.2959799 93.17957561 76.81772541 93.5138855 78.34005737 C94.02241474 80.65296998 94.54156673 82.96329138 95.0625 85.2734375 C95.2134462 85.97291 95.3643924 86.67238251 95.51991272 87.39305115 C97.03776728 94.03763993 99.99282538 98.67090852 104.49609375 103.65625 C106.8638488 106.28559838 107.95660859 107.6776638 108.4375 111.25 C108 114 108 114 106 116 C103.66043091 116.26069641 103.66043091 116.26069641 100.69580078 116.2746582 C99.5877005 116.28419022 98.47960022 116.29372223 97.33792114 116.30354309 C96.13586029 116.30263168 94.93379944 116.30172028 93.6953125 116.30078125 C92.46465057 116.30506638 91.23398865 116.3093515 89.96603394 116.31376648 C86.68941109 116.32099469 83.41297094 116.31787544 80.13635254 116.31219482 C78.13001191 116.31249924 76.1239672 116.32252715 74.11767578 116.33618164 C70.26841307 116.36064025 66.41964313 116.36483808 62.5703125 116.36328125 C61.37230011 116.372491 60.17428772 116.38170074 58.93997192 116.39118958 C57.26836502 116.38184639 57.26836502 116.38184639 55.56298828 116.37231445 C54.58306915 116.37294388 53.60315002 116.3735733 52.59353638 116.3742218 C49.60543814 115.9430686 48.22572062 114.98920466 46 113 C46.29647936 108.25633019 48.65681051 105.5265619 51.52734375 101.96484375 C56.12402803 95.83186711 55.91630584 89.41728613 55 82 C53.59966146 74.58025749 51.65208757 67.28453165 49.75195312 59.98046875 C49.08542724 57.33860252 48.48188724 54.69734749 47.921875 52.03125 C45.00199191 36.94099504 45.00199191 36.94099504 35.8125 25.3125 C30.3378279 22.75765302 24.91592111 21.78015949 19.03125 23.61328125 C13.02346929 26.60399665 10.10890283 31.8298212 7.95361328 37.99145508 C6.62439912 42.76760986 6.69445054 47.50230497 6.69921875 52.4296875 C6.69279106 53.91434006 6.69279106 53.91434006 6.68623352 55.4289856 C6.68051138 57.51498655 6.67997429 59.60100745 6.68432617 61.68701172 C6.68748317 64.85809801 6.66401012 68.02824775 6.63867188 71.19921875 C6.63639819 73.23437383 6.63569571 75.2695314 6.63671875 77.3046875 C6.627509 78.2424704 6.61829926 79.1802533 6.60881042 80.14645386 C6.66360028 88.0426595 7.85355181 95.53041806 13.5625 101.375 C18.89240973 106.94561533 18.89240973 106.94561533 19.3125 111.0625 C19.209375 112.031875 19.10625 113.00125 19 114 C15.64405242 116.23729838 14.52199362 116.25607956 10.59814453 116.2746582 C9.49334747 116.28419022 8.38855042 116.29372223 7.25027466 116.30354309 C5.45963089 116.30217598 5.45963089 116.30217598 3.6328125 116.30078125 C2.40593719 116.30506638 1.17906189 116.3093515 -0.08499146 116.31376648 C-2.68246849 116.31951434 -5.27996163 116.32000671 -7.87744141 116.31567383 C-11.85216781 116.31251813 -15.82614715 116.33595393 -19.80078125 116.36132812 C-22.32291573 116.36360147 -24.84505221 116.36430445 -27.3671875 116.36328125 C-29.15175858 116.37709587 -29.15175858 116.37709587 -30.97238159 116.39118958 C-32.63903366 116.38184639 -32.63903366 116.38184639 -34.33935547 116.37231445 C-35.31403778 116.37294388 -36.28872009 116.3735733 -37.29293823 116.3742218 C-40.46344152 115.93593426 -42.38421 114.79983179 -45 113 C-44.360625 111.9275 -43.72125 110.855 -43.0625 109.75 C-41.59398727 107.19177818 -40.47145458 104.94659114 -40 102 C-39.34 102 -38.68 102 -38 102 C-33.51402179 93.42728051 -32.54059146 85.21574369 -32.56640625 75.640625 C-32.55854347 73.9186087 -32.55854347 73.9186087 -32.55052185 72.1618042 C-32.54413538 69.7515951 -32.54539451 67.3413547 -32.55395508 64.93115234 C-32.5625081 61.24650999 -32.53358492 57.5633976 -32.50195312 53.87890625 C-32.50034193 51.5286463 -32.50091707 49.17838361 -32.50390625 46.828125 C-32.49267227 45.73115295 -32.48143829 44.63418091 -32.46986389 43.50396729 C-32.56280352 33.31562905 -36.41939263 29.38270207 -43.390625 22.24609375 C-45 20 -45 20 -45.546875 17.47265625 C-44.74983507 13.86889714 -43.05266585 12.97865621 -40 11 C-32.56262268 7.10707559 -24.67682247 4.42874139 -16.625 2.125 C-15.88870361 1.90980713 -15.15240723 1.69461426 -14.39379883 1.47290039 C-9.46298016 0.1303535 -5.1117815 -0.28335818 0 0 Z " fill="#0A1727" transform="translate(932,840)"/>
<path d="M0 0 C11.36457377 10.25039987 15.99237558 26.46664483 20.6171875 40.546875 C21.1720008 42.19961409 21.72798705 43.85195989 22.28515625 45.50390625 C24.98753319 53.55045938 27.57285045 61.62475197 30.04443359 69.74511719 C31.05321083 73.02708561 32.12632444 76.25916677 33.3046875 79.484375 C33.67464844 80.52722656 34.04460937 81.57007813 34.42578125 82.64453125 C36.1090868 85.88797365 37.84394468 87.40794461 40.8671875 89.421875 C43.55226079 90.21134109 43.55226079 90.21134109 45.8671875 90.421875 C45.57328125 90.999375 45.279375 91.576875 44.9765625 92.171875 C44.28612537 93.5721982 43.62418476 94.98740864 43.0078125 96.421875 C40.42517736 102.22147671 37.63584614 104.91571558 31.609375 107.32421875 C23.41966597 110.10974674 14.99399045 110.79526491 6.8671875 107.421875 C0.14539606 103.40041446 -2.3873223 97.53231506 -5.1328125 90.421875 C-6.0815625 91.2675 -7.0303125 92.113125 -8.0078125 92.984375 C-23.22096761 105.90639229 -39.27943178 110.70320317 -59.11279297 109.6171875 C-69.23374182 108.63860893 -78.58111342 103.50422288 -85.4453125 96.109375 C-91.73794645 88.06391822 -93.15257677 80.55656924 -92.1328125 70.421875 C-90.35568392 60.83125549 -84.54347791 53.7508228 -76.796875 48.08984375 C-58.60127202 36.69758206 -38.76248699 38.12963814 -18.1328125 38.421875 C-22.01455493 28.29873157 -26.14133772 18.51188569 -36.28515625 13.3203125 C-47.48038264 9.78821089 -59.95448736 12.23751946 -70.1328125 17.421875 C-71.51714747 18.19710258 -72.89405619 18.98599287 -74.2578125 19.796875 C-75.2065625 20.333125 -76.1553125 20.869375 -77.1328125 21.421875 C-78.1228125 21.091875 -79.1128125 20.761875 -80.1328125 20.421875 C-79.2446967 12.87289069 -74.41561524 8.19106306 -68.87890625 3.4453125 C-49.64775626 -10.72500855 -20.04967972 -14.83529415 0 0 Z " fill="#0B1827" transform="translate(840.1328125,848.578125)"/>
<path d="M0 0 C2.4671741 2.4671741 2.24436411 3.86932249 2.27897644 7.23687744 C2.27514702 8.3293277 2.27514702 8.3293277 2.27124023 9.44384766 C2.27646698 10.21157501 2.28169373 10.97930237 2.28707886 11.77029419 C2.29733519 13.44104589 2.3031021 15.1118297 2.30496025 16.78261185 C2.30861784 19.43151025 2.32533048 22.08003217 2.34571838 24.72885132 C2.4011692 32.2613828 2.43172974 39.79397151 2.45629883 47.32666016 C2.4722287 51.93267295 2.50251271 56.53842257 2.54106331 61.14429855 C2.55267449 62.89604255 2.55864332 64.64783377 2.55874443 66.39961624 C2.55893781 68.85994921 2.57730262 71.31956441 2.59936523 73.77978516 C2.59478806 74.49593994 2.59021088 75.21209473 2.585495 75.94995117 C2.6599415 81.20666691 3.83953007 85.1923652 6 90 C10.81312313 94.57833664 14.00934756 95.30382234 20.46484375 95.2109375 C25.48291191 94.79340949 28.17455678 92.84509663 31.625 89.3125 C37.69494358 81.44115381 39.14943511 73.91500129 39.23828125 64.19140625 C39.25038887 62.92489479 39.25038887 62.92489479 39.26274109 61.63279724 C39.27653167 59.85181706 39.28727615 58.07081101 39.29516602 56.28979492 C39.30671113 54.47330959 39.32720276 52.65685885 39.35668945 50.84057617 C39.39940435 48.20728656 39.41553686 45.57499943 39.42578125 42.94140625 C39.45204338 41.73176964 39.45204338 41.73176964 39.47883606 40.49769592 C39.45171936 33.41426356 36.55517839 29.45012167 31.6875 24.4375 C29.02571274 21.37712024 29.02571274 21.37712024 28.8125 18.25 C32.45170088 11.35467202 45.30972629 8.22736376 52.5234375 5.828125 C54.71090784 5.1652552 56.90222583 4.51491579 59.09765625 3.87890625 C61.58552352 3.12551441 63.9188209 2.25319884 66.3125 1.25 C70.59660945 -0.20224049 73.51772932 -0.31454531 78 0 C79.71204852 1.71204852 79.12978325 3.88094695 79.14344788 6.16481018 C79.1426548 7.27432289 79.1426548 7.27432289 79.1418457 8.40625 C79.14532013 9.18197861 79.14879456 9.95770721 79.15237427 10.75694275 C79.1597465 12.44845863 79.16508403 14.13998429 79.16866493 15.83151245 C79.17581895 18.51413841 79.19148062 21.19658021 79.21000671 23.87915039 C79.26250345 31.50908773 79.31038944 39.13892922 79.32592773 46.76904297 C79.33604802 51.43234102 79.36548332 56.09518332 79.40724754 60.75830078 C79.41951416 62.53154033 79.42468677 64.30484443 79.42244911 66.078125 C79.1478588 80.94583984 79.1478588 80.94583984 86.359375 93.41015625 C87.54273438 94.22806641 87.54273438 94.22806641 88.75 95.0625 C89.54921875 95.63097656 90.3484375 96.19945312 91.171875 96.78515625 C91.77515625 97.18605469 92.3784375 97.58695313 93 98 C93.125 100.625 93.125 100.625 92 104 C85.50885956 109.5105639 76.92280438 112.2382808 69 115 C67.69869141 115.48339844 67.69869141 115.48339844 66.37109375 115.9765625 C60.09170402 118.13352783 53.60892692 119.02604345 47 118 C43.70184531 115.80123021 43.00998318 112.70923028 42 109 C41.57865246 106.71640035 41.20340101 104.42380706 40.875 102.125 C40.70742188 100.97257813 40.53984375 99.82015625 40.3671875 98.6328125 C40.24601563 97.76398438 40.12484375 96.89515625 40 96 C39.53851562 96.64066406 39.07703125 97.28132812 38.6015625 97.94140625 C30.54243284 108.62851298 21.5130853 113.82897157 9 118 C-3.68923422 118.82608675 -13.95276862 118.05400049 -24.1875 109.73828125 C-33.18853484 101.10582327 -36.57153771 88.06472797 -37.09089661 75.86480713 C-37.12790289 73.47599443 -37.13766582 71.08831064 -37.140625 68.69921875 C-37.15895212 66.89907588 -37.17852234 65.09894531 -37.19921875 63.29882812 C-37.22812518 60.49465977 -37.24999934 57.69128979 -37.25048828 54.88696289 C-37.13294876 38.10096574 -37.13294876 38.10096574 -45.75 24.1875 C-46.4925 23.465625 -47.235 22.74375 -48 22 C-48.640625 19.36328125 -48.640625 19.36328125 -49 17 C-41.78100949 12.2574204 -34.52336868 9.06079544 -26.375 6.25 C-25.29476562 5.86457031 -24.21453125 5.47914063 -23.1015625 5.08203125 C-6.83497272 -0.65094978 -6.83497272 -0.65094978 0 0 Z " fill="#0B1727" transform="translate(651,840)"/>
<path d="M0 0 C1.18464844 -0.00515625 2.36929687 -0.0103125 3.58984375 -0.015625 C12.40052052 0.65830753 20.72516699 5.35899081 26.6875 11.8125 C36.42624084 23.88853864 42.65129112 37.69157489 46.875 52.5 C47.18570435 53.58027466 47.18570435 53.58027466 47.50268555 54.68237305 C52.21734421 72.14429254 53.94066393 98.57236294 44.8125 114.75 C39.61077548 121.95832449 33.83915318 125.67998286 25.0625 127.25 C15.38493293 128.52709829 7.37913426 125.92954747 -0.6015625 120.40625 C-17.51038563 106.37663824 -26.31544425 81.89937878 -28.75439453 60.59594727 C-29.15964774 55.40384312 -29.16449341 50.20524089 -29.1875 45 C-29.208125 43.84886719 -29.22875 42.69773437 -29.25 41.51171875 C-29.30465122 29.39281 -27.42286005 17.0773154 -18.7890625 7.98828125 C-12.69435967 2.34916252 -8.45129636 -0.03670487 0 0 Z " fill="#0A1727" transform="translate(496.9375,806.75)"/>
<path d="M0 0 C2 2 2 2 2.15112305 4.15136719 C2.10511963 5.02438477 2.05911621 5.89740234 2.01171875 6.796875 C1.94114258 8.23546875 1.94114258 8.23546875 1.86914062 9.703125 C1.80919922 10.70859375 1.74925781 11.7140625 1.6875 12.75 C1.63916016 13.74 1.59082031 14.73 1.54101562 15.75 C1.28605277 20.57815732 0.85022657 25.23454334 0 30 C1.3929126 29.98428955 1.3929126 29.98428955 2.81396484 29.96826172 C6.2542569 29.93420796 9.69437027 29.90911507 13.13476562 29.89013672 C14.6247032 29.88006957 16.11462097 29.86641482 17.60449219 29.84912109 C19.74419028 29.82490347 21.88362753 29.81352436 24.0234375 29.8046875 C25.31169434 29.79421387 26.59995117 29.78374023 27.92724609 29.77294922 C31 30 31 30 33 32 C33.50150764 37.21567944 32.75646276 40.54725246 30 45 C27.15326245 46.42336877 24.85384653 46.00758837 21.6796875 45.87890625 C20.42285156 45.83056641 19.16601562 45.78222656 17.87109375 45.73242188 C16.55238281 45.67634766 15.23367188 45.62027344 13.875 45.5625 C12.53517562 45.50927587 11.19533192 45.45653549 9.85546875 45.40429688 C6.57009113 45.27429992 3.28499322 45.13932314 0 45 C0.09307919 52.31019348 0.20047886 59.62008069 0.31738281 66.92993164 C0.35543666 69.41165515 0.3903286 71.89342939 0.421875 74.37524414 C0.46804227 77.96258564 0.52594682 81.54958484 0.5859375 85.13671875 C0.59748871 86.22893234 0.60903992 87.32114594 0.62094116 88.44645691 C0.78949353 104.53391353 0.78949353 104.53391353 7 119 C10.3090928 122.02545628 13.71510294 122.67607865 18.1875 122.5703125 C23.40871273 121.51156659 28.02376823 118.93511151 32.7421875 116.53125 C36 115 36 115 39 115 C38.44030127 123.76861348 34.24153308 130.51003816 27.875 136.4375 C16.567044 145.86079667 4.2667519 147.17490898 -10 146 C-13.33967652 145.44950387 -16.01620818 144.58176916 -19 143 C-19.76570313 142.5978125 -20.53140625 142.195625 -21.3203125 141.78125 C-29.44491995 136.95475053 -33.8132447 129.72164607 -37 121 C-38.03107775 116.90101724 -38.12091486 113.04238489 -38.11352539 108.82299805 C-38.11367142 108.12001083 -38.11381744 107.41702362 -38.1139679 106.69273376 C-38.11327441 104.38236341 -38.10550857 102.07207492 -38.09765625 99.76171875 C-38.09579006 98.15460759 -38.09436711 96.54749585 -38.09336853 94.94038391 C-38.08955915 90.72031063 -38.07974239 86.50027203 -38.06866455 82.2802124 C-38.05841643 77.97001616 -38.05386363 73.6598143 -38.04882812 69.34960938 C-38.03811867 60.89972371 -38.02106127 52.44986617 -38 44 C-38.84304688 44.01160156 -39.68609375 44.02320313 -40.5546875 44.03515625 C-41.65039062 44.04417969 -42.74609375 44.05320312 -43.875 44.0625 C-44.96554687 44.07410156 -46.05609375 44.08570313 -47.1796875 44.09765625 C-50 44 -50 44 -52 43 C-52.56925984 39.09650393 -52.83810782 35.56569593 -50.93359375 32.0078125 C-41.87139676 21.06049684 -15.00060671 -2.62510617 0 0 Z " fill="#0A1727" transform="translate(1087,812)"/>
<path d="M0 0 C8.86924683 6.19303309 12.12071531 14.41590627 13.9777832 24.73510742 C14.98009513 31.1248575 15.06638807 37.5155189 15.02807617 43.97143555 C15.01949266 46.170041 15.04859983 48.36609679 15.08007812 50.56445312 C15.12742531 59.79786577 14.97468892 70.05737115 8.50952148 77.29174805 C3.71836527 81.65319904 0.48722794 83.36253603 -5.984375 83.23828125 C-13.09191675 82.4624982 -18.03469695 78.19597253 -22.5234375 72.875 C-29.57677482 62.06957809 -31.59690852 49.8917911 -31.60546875 37.22265625 C-31.61771484 36.28421875 -31.62996094 35.34578125 -31.64257812 34.37890625 C-31.66797373 22.12129215 -29.46277926 12.04157918 -21.234375 2.671875 C-15.70704347 -2.49885449 -6.83779659 -2.90523506 0 0 Z " fill="#0B1727" transform="translate(1346.41796875,854.02734375)"/>
<path d="M0 0 C10.30254172 8.54789009 16.72641963 19.98399935 18.82421875 33.1015625 C19.16941521 37.09817039 18.55305777 39.51239729 16.046875 42.5078125 C12.35091988 46.58930519 8.18473229 48.75444926 3.25 51.07421875 C1.86880981 51.74384644 1.86880981 51.74384644 0.4597168 52.42700195 C-8.84169877 56.87772367 -18.26618031 61.07236828 -27.6875 65.26171875 C-28.44945679 65.60162842 -29.21141357 65.94153809 -29.99645996 66.29174805 C-32.17577255 67.26103636 -34.35859149 68.22187621 -36.54296875 69.1796875 C-37.20143295 69.47288376 -37.85989716 69.76608002 -38.53831482 70.06816101 C-41.37916189 71.30284001 -43.36499704 72.07421875 -46.5 72.07421875 C-40.65934428 78.44584317 -34.87579063 81.69555451 -26.1171875 82.3125 C-10.58328855 82.62058359 -1.52549801 77.15663435 10.5 68.07421875 C13.99124017 65.7467253 15.39222251 65.57122559 19.5 66.07421875 C22.79989095 68.74980601 24.29716524 70.74130462 24.9375 74.94921875 C24.72314923 85.25949095 16.5123898 94.33548318 9.5 101.07421875 C-7.35682494 116.79014183 -26.48351694 120.78349331 -48.72167969 120.20166016 C-66.05938713 119.40638043 -79.76795692 111.42786937 -91.45703125 98.9921875 C-103.14953936 85.26176948 -105.58053171 67.71150456 -104.6953125 50.30957031 C-103.38509692 35.31415295 -96.1945153 23.18371261 -86.5 12.07421875 C-85.98050781 11.45933594 -85.46101563 10.84445312 -84.92578125 10.2109375 C-63.82946138 -12.90467747 -25.73148791 -17.65210703 0 0 Z M-60.5 0.07421875 C-61.47582031 0.54859375 -62.45164062 1.02296875 -63.45703125 1.51171875 C-79.13547381 9.88428885 -90.61748263 22.88966399 -96.40625 39.70703125 C-101.16491924 55.87769432 -99.39925797 74.3967304 -91.33984375 89.1953125 C-83.42646144 101.57782367 -72.34961495 109.50658302 -58.27539062 113.49853516 C-53.12172738 114.5675304 -47.99585681 114.56046208 -42.75 114.51171875 C-41.59983398 114.50342041 -40.44966797 114.49512207 -39.26464844 114.48657227 C-30.68758927 114.31612293 -23.4612403 113.45446653 -15.5 110.07421875 C-14.34886719 109.61144531 -13.19773437 109.14867187 -12.01171875 108.671875 C1.02027718 102.84664403 12.30617423 93.25922419 17.8125 79.88671875 C18.47947082 77.15820176 18.66443372 74.86959199 18.5 72.07421875 C13.8753615 72.57780915 11.48939917 74.40537916 7.9375 77.32421875 C-3.59211368 86.44941551 -16.04421911 89.3748492 -30.5 88.07421875 C-39.49076268 86.16245269 -47.0938478 81.67420573 -52.5 74.19921875 C-53.16 73.16796875 -53.82 72.13671875 -54.5 71.07421875 C-46.75077752 67.11134466 -38.93268812 63.44728389 -30.9375 60.01171875 C-22.04081041 56.13260957 -13.19696226 52.15391725 -4.42947388 47.9914856 C-2.65470428 47.15078946 -0.87511228 46.32029815 0.90454102 45.48999023 C2.52573853 44.71377319 2.52573853 44.71377319 4.1796875 43.921875 C5.13601074 43.46820557 6.09233398 43.01453613 7.07763672 42.54711914 C9.6481319 40.98414822 10.94565035 39.62975619 12.5 37.07421875 C13.82028617 28.47625757 8.87914761 20.11213455 4.5 13.07421875 C-3.19847907 3.13276176 -13.18454069 -2.21124817 -25.5 -3.92578125 C-37.30167476 -4.86212452 -49.71191614 -5.34401171 -60.5 0.07421875 Z " fill="#F3BE01" transform="translate(1646.5,843.92578125)"/>
<path d="M0 0 C18.16825187 13.38874547 27.89614117 35.96495828 32.56640625 57.45703125 C32.83130859 58.63386475 32.83130859 58.63386475 33.1015625 59.83447266 C34.70994893 67.62796652 34.95241174 75.26506645 34.94140625 83.20703125 C34.94086243 83.86900513 34.9403186 84.530979 34.9397583 85.2130127 C34.88497283 99.70705685 33.52205253 114.38328854 22.7890625 125.2578125 C14.46220751 132.12023082 5.4603514 134.1848682 -5.08789062 133.42163086 C-17.72738366 132.04746653 -27.28087531 124.72611922 -35.328125 115.21875 C-42.86060237 105.10176572 -48.93554017 92.55967199 -52.43359375 80.45703125 C-52.99046875 78.57177734 -52.99046875 78.57177734 -53.55859375 76.6484375 C-56.29377001 66.3368581 -56.83384218 56.13117653 -56.87109375 45.51953125 C-56.88108398 44.21661133 -56.89107422 42.91369141 -56.90136719 41.57128906 C-56.7752668 27.44444299 -53.81616208 12.83959958 -43.43359375 2.45703125 C-30.48875146 -7.605561 -14.09211119 -8.93480565 0 0 Z M-41.83203125 9.34375 C-49.70412636 19.73107549 -50.80710778 31.88283546 -50.74609375 44.45703125 C-50.7411792 45.65166992 -50.73626465 46.84630859 -50.73120117 48.07714844 C-50.41585279 72.01775047 -43.61946631 98.814608 -26.43359375 116.45703125 C-19.4626707 122.9978066 -11.77091427 127.52444226 -2.05859375 127.95703125 C5.76354091 127.61356641 13.64872394 125.68070564 19.56640625 120.33203125 C28.15290234 110.53381552 28.92595751 96.54082345 28.81640625 84.14453125 C28.80963867 83.03803223 28.80287109 81.9315332 28.79589844 80.79150391 C28.69907213 73.14785528 28.29735839 65.92485333 26.56640625 58.45703125 C26.30988281 57.28785156 26.05335938 56.11867188 25.7890625 54.9140625 C21.2523065 36.12449367 12.37869528 14.57559384 -4.62109375 3.95703125 C-17.06826232 -3.28203286 -32.16367065 -0.96475319 -41.83203125 9.34375 Z " fill="#F1BD02" transform="translate(518.43359375,806.54296875)"/>
<path d="M0 0 C6.59201875 2.109446 11.13066535 7.40022862 14.26171875 13.4296875 C15.30802116 15.92681071 16.19165707 18.41655225 17 21 C17.22558594 21.69609375 17.45117188 22.3921875 17.68359375 23.109375 C20.6004668 33.81128165 20.46405669 46.1787534 15 56 C11.14144397 59.85855603 8.25184638 61.19037475 2.875 61.4375 C-2.25586161 61.35030889 -5.33028989 60.46764408 -9.21484375 57.1015625 C-17.28144776 47.6052103 -19.36333686 36.10165026 -19.4375 24.0625 C-19.47037109 23.12470703 -19.50324219 22.18691406 -19.53710938 21.22070312 C-19.59945331 13.06498232 -17.10290496 7.53386398 -11.75 1.4375 C-7.77086543 -0.64250216 -4.39720888 -0.6170151 0 0 Z " fill="#0C1826" transform="translate(1480,851)"/>
<path d="M0 0 C0.69931641 -0.02900391 1.39863281 -0.05800781 2.11914062 -0.08789062 C7.2738133 -0.15057607 10.11991122 0.90640212 14.1875 4.3125 C20.15957121 10.63400091 23.29669364 20.07666451 23.9375 28.6875 C23.63949598 33.45556426 21.71396085 36.29449868 18.37109375 39.6171875 C12.54217487 44.14268087 6.04774087 46.04902664 -1.30078125 45.69140625 C-9.42638911 44.46561471 -15.88037578 40.93227416 -20.8125 34.3125 C-24.68546895 27.78768642 -24.6933337 21.72336045 -23.8125 14.3125 C-21.82693302 8.40176126 -17.96706197 5.25723888 -12.6796875 2.22265625 C-8.48210102 0.17655238 -4.57282853 0.06218715 0 0 Z " fill="#0C1826" transform="translate(807.8125,896.6875)"/>
<path d="M0 0 C0.72695068 -0.01748291 1.45390137 -0.03496582 2.20288086 -0.05297852 C6.79056423 -0.04800691 9.9371509 0.86098286 13.8125 3.3125 C16.29635164 7.03827746 16.44420926 9.9971874 15.8125 14.3125 C13.15574539 20.20356456 8.58251638 22.87021651 2.8125 25.3125 C-3.51048696 26.86892756 -9.96685486 26.49679354 -16.4375 26.5 C-18.36529297 26.51836914 -18.36529297 26.51836914 -20.33203125 26.53710938 C-31.41861498 26.55416566 -40.25096796 26.09280752 -48.5625 18 C-50.70170385 14.46208594 -50.76923984 12.3846789 -50.1875 8.3125 C-48.39187595 5.55920979 -47.13495078 3.78622539 -44.1875 2.3125 C-41.94305595 2.08681311 -39.69273551 1.91869516 -37.44140625 1.77734375 C-36.76249329 1.73414001 -36.08358032 1.69093628 -35.38409424 1.64642334 C-33.17304592 1.50829968 -30.9616521 1.37807485 -28.75 1.25 C-28.0022934 1.20614166 -27.25458679 1.16228333 -26.48422241 1.11709595 C-17.66243658 0.60574827 -8.83755198 0.10292109 0 0 Z " fill="#F4BF01" transform="translate(1501.1875,968.6875)"/>
<path d="M0 0 C7.43239652 3.24716353 12.17379825 9.16397918 15.32421875 16.50390625 C16.65193032 20.25713419 17.63005829 23.3834562 16.88671875 27.37890625 C13.49930463 33.286955 7.56975424 35.29421376 1.63671875 38.00390625 C0.62480469 38.48085938 -0.38710937 38.9578125 -1.4296875 39.44921875 C-16.27076823 46.37890625 -16.27076823 46.37890625 -22.11328125 46.37890625 C-24.75631087 39.78190431 -25.60747087 33.9599552 -25.55078125 26.87890625 C-25.57076172 25.99332031 -25.59074219 25.10773437 -25.61132812 24.1953125 C-25.60566897 16.48754992 -23.69176082 10.42018984 -18.67578125 4.50390625 C-12.64860885 -0.49423671 -7.72727034 -2.27104618 0 0 Z " fill="#F3BE01" transform="translate(1608.11328125,854.62109375)"/>
<path d="M0 0 C8.86924683 6.19303309 12.12071531 14.41590627 13.9777832 24.73510742 C14.98009513 31.1248575 15.06638807 37.5155189 15.02807617 43.97143555 C15.01949266 46.170041 15.04859983 48.36609679 15.08007812 50.56445312 C15.12742531 59.79786577 14.97468892 70.05737115 8.50952148 77.29174805 C3.71836527 81.65319904 0.48722794 83.36253603 -5.984375 83.23828125 C-13.09191675 82.4624982 -18.03469695 78.19597253 -22.5234375 72.875 C-29.57677482 62.06957809 -31.59690852 49.8917911 -31.60546875 37.22265625 C-31.61771484 36.28421875 -31.62996094 35.34578125 -31.64257812 34.37890625 C-31.66797373 22.12129215 -29.46277926 12.04157918 -21.234375 2.671875 C-15.70704347 -2.49885449 -6.83779659 -2.90523506 0 0 Z M-21.41796875 10.97265625 C-25.82747158 18.39233628 -25.60040588 26.37905396 -25.60546875 34.72265625 C-25.61771484 35.769375 -25.62996094 36.81609375 -25.64257812 37.89453125 C-25.66710449 50.97526082 -22.77142588 64.24599385 -13.41796875 73.97265625 C-9.07767952 76.92774679 -5.63204164 77.63626553 -0.41796875 76.97265625 C3.87970061 74.43312435 5.71527 71.54622132 7.58203125 66.97265625 C9.01753416 61.20841746 8.76805065 55.39748233 8.76733398 49.4921875 C8.76949446 47.50646837 8.78792683 45.52078838 8.80664062 43.53515625 C8.82736205 29.72087239 8.51158738 16.39869019 -1.41796875 5.97265625 C-9.47894646 3.28566368 -16.04482582 4.14771704 -21.41796875 10.97265625 Z " fill="#F2BE01" transform="translate(1346.41796875,854.02734375)"/>
<path d="M0 0 C6.59201875 2.109446 11.13066535 7.40022862 14.26171875 13.4296875 C15.30802116 15.92681071 16.19165707 18.41655225 17 21 C17.22558594 21.69609375 17.45117188 22.3921875 17.68359375 23.109375 C20.6004668 33.81128165 20.46405669 46.1787534 15 56 C11.14144397 59.85855603 8.25184638 61.19037475 2.875 61.4375 C-2.25586161 61.35030889 -5.33028989 60.46764408 -9.21484375 57.1015625 C-17.28144776 47.6052103 -19.36333686 36.10165026 -19.4375 24.0625 C-19.47037109 23.12470703 -19.50324219 22.18691406 -19.53710938 21.22070312 C-19.59945331 13.06498232 -17.10290496 7.53386398 -11.75 1.4375 C-7.77086543 -0.64250216 -4.39720888 -0.6170151 0 0 Z M-11.98339844 11.57958984 C-13.79426128 15.89104379 -13.73974555 20.06889155 -13.625 24.6875 C-13.61025635 25.65558594 -13.5955127 26.62367188 -13.58032227 27.62109375 C-13.25825217 37.04538439 -11.6364927 45.82969271 -4.75 52.8125 C-1.30478484 55.31330311 1.8507078 55.76688261 6.05078125 55.453125 C8.15496118 55.11890257 8.15496118 55.11890257 9.9375 53.375 C14.89980052 42.28279884 14.01609887 30.3122785 10 19 C7.70313662 13.73536813 5.2166242 8.79028736 0 6 C-6.31093705 4.31622657 -8.8594981 6.1768965 -11.98339844 11.57958984 Z " fill="#F2BE01" transform="translate(1480,851)"/>
<path d="M0 0 C0.69931641 -0.02900391 1.39863281 -0.05800781 2.11914062 -0.08789062 C7.2738133 -0.15057607 10.11991122 0.90640212 14.1875 4.3125 C20.15957121 10.63400091 23.29669364 20.07666451 23.9375 28.6875 C23.63949598 33.45556426 21.71396085 36.29449868 18.37109375 39.6171875 C12.54217487 44.14268087 6.04774087 46.04902664 -1.30078125 45.69140625 C-9.42638911 44.46561471 -15.88037578 40.93227416 -20.8125 34.3125 C-24.68546895 27.78768642 -24.6933337 21.72336045 -23.8125 14.3125 C-21.82693302 8.40176126 -17.96706197 5.25723888 -12.6796875 2.22265625 C-8.48210102 0.17655238 -4.57282853 0.06218715 0 0 Z M-16.1875 12.375 C-18.70212822 16.92067408 -18.41817894 21.2352654 -17.8125 26.3125 C-16.07729855 31.51810436 -13.22853368 34.13295575 -8.8125 37.3125 C-3.51597585 39.80755683 1.41985032 40.12609304 7.1875 39.3125 C11.11489956 37.60851535 14.17364468 35.32635532 17.1875 32.3125 C18.0460975 25.98034341 16.71206079 21.21718424 14.4375 15.375 C14.18548828 14.71218018 13.93347656 14.04936035 13.67382812 13.36645508 C12.59475166 10.75722936 11.66011827 8.69716465 9.4453125 6.89453125 C6.19952101 6.05781337 3.1625608 5.97093374 -0.1875 5.9375 C-2.11722656 5.89496094 -2.11722656 5.89496094 -4.0859375 5.8515625 C-9.36108079 6.50404354 -12.26705496 8.97040299 -16.1875 12.375 Z " fill="#F1BD02" transform="translate(807.8125,896.6875)"/>
<path d="M0 0 C6.40235232 2.94508207 9.92873266 8.85746533 13 15 C13.039992 16.99960012 13.04346799 19.00047242 13 21 C-10.94444444 34 -10.94444444 34 -16 34 C-17.73907051 30.52185898 -17.18463639 26.58151473 -17.1875 22.75 C-17.19974609 21.90308594 -17.21199219 21.05617188 -17.22460938 20.18359375 C-17.24369985 12.0001418 -15.56870267 6.98635537 -10 1 C-6.77499927 -0.61250037 -3.49674899 -0.4452789 0 0 Z " fill="#0C1826" transform="translate(1606,860)"/>
<path d="M0 0 C0.97404785 -0.01297119 1.9480957 -0.02594238 2.95166016 -0.03930664 C3.84546387 -0.04051514 4.73926758 -0.04172363 5.66015625 -0.04296875 C6.44140869 -0.04707764 7.22266113 -0.05118652 8.02758789 -0.05541992 C9.9375 0.1875 9.9375 0.1875 11.9375 2.1875 C12 5.5625 12 5.5625 10.9375 9.1875 C1.44117373 16.50758483 -11.608222 16.1755083 -23.0625 15.1875 C-26.08381619 14.75155099 -29.03319267 14.15309461 -32 13.4375 C-32.66781494 13.28071777 -33.33562988 13.12393555 -34.02368164 12.96240234 C-36.97258336 12.16299897 -38.85198205 11.39969873 -41.01953125 9.21484375 C-42.0625 7.1875 -42.0625 7.1875 -41.8125 4.5 C-41.0625 2.1875 -41.0625 2.1875 -40.0625 1.1875 C-38.33484736 1.02821959 -36.60095332 0.93597806 -34.8671875 0.87109375 C-33.76882568 0.82895752 -32.67046387 0.78682129 -31.53881836 0.7434082 C-29.75616577 0.68479614 -29.75616577 0.68479614 -27.9375 0.625 C-26.7316626 0.5839917 -25.5258252 0.5429834 -24.28344727 0.50073242 C-16.18998304 0.24451277 -8.09737981 0.0579221 0 0 Z " fill="#131D25" transform="translate(1499.0625,974.8125)"/>
</svg>
