<?xml version="1.0" encoding="UTF-8"?>
<svg version="1.1" xmlns="http://www.w3.org/2000/svg" width="2000" height="2000">
<path d="M0 0 C660 0 1320 0 2000 0 C2000 660 2000 1320 2000 2000 C1340 2000 680 2000 0 2000 C0 1340 0 680 0 0 Z " fill="#012F4F" transform="translate(0,0)"/>
<path d="M0 0 C1.86398437 0.00676758 1.86398437 0.00676758 3.765625 0.01367188 C6.80213502 0.02535076 9.83854088 0.0417286 12.875 0.0625 C12.875 0.7225 12.875 1.3825 12.875 2.0625 C14.009375 2.000625 15.14375 1.93875 16.3125 1.875 C22.96360906 1.86320725 28.80248092 4.60066794 34.875 7.0625 C39.21597676 8.6700375 43.21499665 9.44829769 47.8125 9.9375 C65.23211653 12.07629587 80.46922434 17.53556411 93.875 29.0625 C95.33292969 30.22458984 95.33292969 30.22458984 96.8203125 31.41015625 C111.21003245 43.43320537 120.24760805 63.86522691 122.875 82.0625 C124.48962069 113.15898104 121.63802631 139.85996964 100.5 164.25 C96.65401197 168.43553197 92.591739 171.90087114 87.875 175.0625 C94.77671017 183.30620937 102.17283415 191.11159258 109.51953125 198.95703125 C126.875 217.49070207 126.875 217.49070207 126.875 219.0625 C116.80774672 219.12089995 106.74183335 219.12319209 96.67451477 219.08131409 C90.89421204 219.06092436 85.11517893 219.0690398 79.33496094 219.109375 C72.69197165 219.15509645 66.05014237 219.15468021 59.40713501 219.12863159 C56.7688979 219.12621802 54.13059751 219.13956843 51.49252319 219.16897583 C47.74496944 219.20794791 44.00146044 219.19009178 40.25390625 219.16015625 C39.13660126 219.184729 38.01929626 219.20930176 36.86813354 219.23461914 C30.49630326 219.11758739 27.23928499 218.12723875 22.60131836 213.61889648 C18.875 209.4878575 18.875 209.4878575 18.875 207.0625 C18.29105469 206.82660156 17.70710938 206.59070312 17.10546875 206.34765625 C14.38606602 204.78078498 13.04856047 203.01505569 11.1875 200.5 C10.58550781 199.69433594 9.98351562 198.88867188 9.36328125 198.05859375 C8.87214844 197.39988281 8.38101563 196.74117187 7.875 196.0625 C6.03028638 194.21778638 3.00252063 194.79982091 0.5234375 194.703125 C-0.80971846 194.64298239 -2.14280652 194.58131968 -3.47583008 194.51831055 C-4.52427597 194.46917007 -4.52427597 194.46917007 -5.59390259 194.41903687 C-17.38607669 193.83636316 -28.24588246 193.16574196 -39.125 188.0625 C-40.1253125 187.62292969 -41.125625 187.18335938 -42.15625 186.73046875 C-48.71124491 183.68313263 -48.71124491 183.68313263 -51.125 180.0625 C-53.18425139 179.33867533 -53.18425139 179.33867533 -55.125 179.0625 C-55.125 178.4025 -55.125 177.7425 -55.125 177.0625 C-55.805625 176.85625 -56.48625 176.65 -57.1875 176.4375 C-60.50056741 174.88670249 -62.72855641 172.93024695 -65.4296875 170.50390625 C-67.18688116 168.92010988 -67.18688116 168.92010988 -69.75 167.5625 C-74.34804397 164.65847223 -77.73601342 160.34064902 -79.125 155.0625 C-78.67324583 151.54728784 -77.43509599 150.05574475 -74.75 147.8125 C-74.14414062 147.29171875 -73.53828125 146.7709375 -72.9140625 146.234375 C-71.125 145.0625 -71.125 145.0625 -68.125 145.0625 C-68.08375 144.485 -68.0425 143.9075 -68 143.3125 C-66.44609638 139.31674784 -62.71832144 137.88330196 -59.0625 136 C-57.125 136.0625 -57.125 136.0625 -54.5 138.125 C-52.125 141.0625 -52.125 141.0625 -51.25 144.25 C-50.87875 145.178125 -50.5075 146.10625 -50.125 147.0625 C-46.79283981 148.33617411 -46.79283981 148.33617411 -43.125 149.0625 C-41.43491502 150.0223909 -39.76315581 151.0164487 -38.125 152.0625 C-38.58390625 151.10730469 -39.0428125 150.15210938 -39.515625 149.16796875 C-47.51930059 132.37312047 -51.48514742 117.92667235 -51.4375 99.125 C-51.45361328 97.85720703 -51.46972656 96.58941406 -51.48632812 95.28320312 C-51.49672436 75.00015226 -44.11494262 56.87064754 -33.125 40.0625 C-34.5214478 40.8322196 -35.91712699 41.60333369 -37.3125 42.375 C-38.08980469 42.80425781 -38.86710937 43.23351562 -39.66796875 43.67578125 C-40.88419922 44.36220703 -40.88419922 44.36220703 -42.125 45.0625 C-42.96417969 45.50980469 -43.80335938 45.95710937 -44.66796875 46.41796875 C-47.50351209 48.31584434 -49.19150529 50.3501305 -51.25 53.0625 C-54.9192805 57.85969162 -54.9192805 57.85969162 -56.78125 59.6953125 C-58.54330489 61.48810091 -59.32815004 63.5001464 -60.23828125 65.81640625 C-60.89849188 67.48874596 -61.61325043 69.13975095 -62.35546875 70.77734375 C-65.88304868 78.98077742 -67.0343555 86.5430788 -67.765625 95.38671875 C-68.125 99.0625 -68.125 99.0625 -69.125 101.0625 C-73.21838652 101.11189115 -77.31165798 101.14821501 -81.40527344 101.17236328 C-82.79820781 101.18242877 -84.19112102 101.19608234 -85.58398438 101.21337891 C-87.5845436 101.2376022 -89.58525615 101.24790814 -91.5859375 101.2578125 C-92.79040527 101.26828613 -93.99487305 101.27875977 -95.23583984 101.28955078 C-98.125 101.0625 -98.125 101.0625 -100.125 99.0625 C-100.29818792 96.58209675 -100.35736285 94.22690152 -100.3125 91.75 C-100.30605469 90.43386719 -100.29960937 89.11773438 -100.29296875 87.76171875 C-100.15473512 84.7173642 -99.83849651 82.01352158 -99.125 79.0625 C-98.465 79.0625 -97.805 79.0625 -97.125 79.0625 C-97.021875 77.845625 -96.91875 76.62875 -96.8125 75.375 C-94.88806261 58.32611103 -94.88806261 58.32611103 -90.125 54.0625 C-88.99753963 52.13097655 -88.99753963 52.13097655 -88.0625 50.0625 C-86.87057637 47.53504748 -85.68973773 45.40960659 -84.125 43.0625 C-83.465 43.0625 -82.805 43.0625 -82.125 43.0625 C-81.939375 42.36125 -81.75375 41.66 -81.5625 40.9375 C-79.86887613 37.55025226 -77.9071546 36.02315655 -75.0078125 33.67578125 C-71.18175611 30.39743833 -67.72940976 26.87572927 -66.125 22.0625 C-64.671875 20.78125 -64.671875 20.78125 -62.875 19.5625 C-62.29234375 19.1603125 -61.7096875 18.758125 -61.109375 18.34375 C-60.45453125 17.9209375 -59.7996875 17.498125 -59.125 17.0625 C-57.95904297 16.30646484 -57.95904297 16.30646484 -56.76953125 15.53515625 C-53.91894854 13.94775642 -51.17417957 12.97166227 -48.0625 12 C-43.90701299 10.70348975 -43.90701299 10.70348975 -39.94140625 8.94140625 C-38.125 8.0625 -38.125 8.0625 -35.125 8.0625 C-35.125 7.4025 -35.125 6.7425 -35.125 6.0625 C-34.42375 5.794375 -33.7225 5.52625 -33 5.25 C-30.09431175 4.12527773 -30.09431175 4.12527773 -27.4375 2.5 C-19.05648654 -1.13704358 -8.96059782 -0.06235962 0 0 Z " fill="#FCFCFD" transform="translate(389.125,888.9375)"/>
<path d="M0 0 C10.56 0 21.12 0 32 0 C32 59.4 32 118.8 32 180 C22.43 180 12.86 180 3 180 C0.75 167.625 0.75 167.625 1 163 C0.34 163 -0.32 163 -1 163 C-1.25265625 163.58136719 -1.5053125 164.16273438 -1.765625 164.76171875 C-6.55438436 173.44513367 -17.11959006 178.51054507 -26 182 C-42.28044909 185.19627646 -58.42041599 183.33493607 -72.8125 174.875 C-87.91640929 164.32947775 -96.66405012 150.80924047 -101 133 C-101.28810547 131.87078125 -101.28810547 131.87078125 -101.58203125 130.71875 C-104.52338176 111.58622706 -100.82340961 93.04035586 -89.96484375 76.9921875 C-81.82193687 66.38128525 -71.65118379 59.23485477 -59 55 C-58.30003906 54.75507812 -57.60007812 54.51015625 -56.87890625 54.2578125 C-43.64322559 50.49093262 -28.29682259 52.28047254 -16.19140625 58.42578125 C-10.37793022 61.76874592 -4.76278108 65.35582838 -1 71 C-0.67 47.57 -0.34 24.14 0 0 Z " fill="#FCFDFD" transform="translate(1334,896)"/>
<path d="M0 0 C0.6801416 -0.00563965 1.3602832 -0.0112793 2.06103516 -0.01708984 C5.8142198 0.03589841 9.25269181 0.46111114 12.91113281 1.30541992 C18.64496706 2.48016839 24.23166047 2.66045455 30.0703125 2.7265625 C31.68049759 2.75561172 31.68049759 2.75561172 33.32321167 2.7852478 C36.71539636 2.84451033 40.10761598 2.89121392 43.5 2.9375 C45.81511808 2.97572893 48.13022269 3.01478344 50.4453125 3.0546875 C56.08843081 3.15016746 61.73161558 3.23439307 67.375 3.3125 C67.375 9.9125 67.375 16.5125 67.375 23.3125 C57.475 23.8075 57.475 23.8075 47.375 24.3125 C48.365 27.2825 49.355 30.2525 50.375 33.3125 C53.64189384 46.05905111 51.14817453 57.99454299 45.18359375 69.3515625 C38.83660887 79.74252262 29.03834603 85.47952261 17.69921875 89.1875 C8.33131948 91.28544323 -3.55303798 91.62074474 -12.9609375 89.59375 C-15.66395523 89.02437324 -15.66395523 89.02437324 -17.70703125 90.67578125 C-18.27808594 91.31902344 -18.84914063 91.96226563 -19.4375 92.625 C-20.02144531 93.26050781 -20.60539062 93.89601563 -21.20703125 94.55078125 C-22.6901119 96.26569909 -22.6901119 96.26569909 -23.625 98.3125 C-12.74038802 100.92427656 -2.0219033 102.67836106 9.125 103.75 C23.18316661 105.16244971 38.90518593 107.48226831 49.2109375 118.2265625 C56.52006126 127.46101642 58.05794971 136.72718942 57.375 148.3125 C56.18661147 155.17146686 53.4033334 160.69724738 49.375 166.3125 C48.715 167.3025 48.055 168.2925 47.375 169.3125 C41.34713249 176.27506848 31.23623885 181.2339378 22.375 183.3125 C21.57191406 183.51488281 20.76882813 183.71726562 19.94140625 183.92578125 C11.7827973 185.70782511 3.66882982 185.56481474 -4.625 185.3125 C-5.74261719 185.28285156 -6.86023437 185.25320313 -8.01171875 185.22265625 C-23.39178669 184.44703167 -40.54135997 179.9914455 -51.26171875 168.20703125 C-57.82962749 159.07970822 -58.84919887 148.21775134 -57.625 137.3125 C-55.50896586 129.82727642 -50.30825526 123.50646838 -44.625 118.3125 C-43.965 118.3125 -43.305 118.3125 -42.625 118.3125 C-44.91810164 115.84243875 -47.35840721 114.07236455 -50.1875 112.25 C-52.59371321 110.69722202 -54.59624564 109.34125436 -56.625 107.3125 C-57.1366606 103.17535857 -57.22230675 101.1093096 -54.68359375 97.72265625 C-53.81863281 96.94792969 -52.95367188 96.17320313 -52.0625 95.375 C-48.15318844 91.74255186 -44.55115524 88.06834364 -41.09765625 84.00390625 C-39.67041597 82.36466211 -38.17987662 80.83024524 -36.625 79.3125 C-38.07791515 76.14773433 -39.89089771 73.5755161 -42 70.8125 C-49.54942657 60.01634718 -51.32009791 48.44106023 -49.15234375 35.48828125 C-45.85960946 22.92857021 -37.4506208 12.45346116 -26.3125 5.9375 C-17.7376866 1.66788337 -9.50499484 0.07338955 0 0 Z " fill="#FCFCFD" transform="translate(1449.625,948.6875)"/>
<path d="M0 0 C37.95 0 75.9 0 115 0 C115 8.58 115 17.16 115 26 C87.61 26 60.22 26 32 26 C32 41.84 32 57.68 32 74 C56.75 74 81.5 74 107 74 C107 82.25 107 90.5 107 99 C82.58 99 58.16 99 33 99 C33 115.5 33 132 33 149 C60.06 149 87.12 149 115 149 C115 157.58 115 166.16 115 175 C77.05 175 39.1 175 0 175 C0 117.25 0 59.5 0 0 Z " fill="#FBFCFC" transform="translate(1092,901)"/>
<path d="M0 0 C11.35585157 8.33663706 18.6902928 18.71908016 21.54270935 32.65066528 C22.07501819 36.54945587 22.13222933 40.37490207 22.11352539 44.30029297 C22.11367142 45.11071548 22.11381744 45.921138 22.1139679 46.75611877 C22.11327471 49.4181695 22.10551023 52.08014909 22.09765625 54.7421875 C22.09578996 56.59449221 22.09436705 58.44679741 22.09336853 60.29910278 C22.08955997 65.1619606 22.07974392 70.02478831 22.06866455 74.88763428 C22.05841466 79.85477288 22.05386325 84.82191636 22.04882812 89.7890625 C22.03812011 99.52605699 22.02053682 109.26302127 22 119 C12.76 119 3.52 119 -6 119 C-6.99 112.73 -7.98 106.46 -9 100 C-9.804375 101.155 -10.60875 102.31 -11.4375 103.5 C-19.2171 113.79975212 -28.31236689 119.63491042 -41 122 C-55.89894207 123.45038162 -70.70403329 122.3030224 -82.88671875 112.83203125 C-90.69902462 106.05944076 -95.05025105 98.06943565 -96.44921875 87.65625 C-96.79429917 77.66081724 -94.17356371 68.66620386 -87.83203125 60.84765625 C-77.02859073 49.95207551 -62.80472538 45.93465915 -47.85157776 45.71517944 C-42.79603644 45.70128552 -37.74258363 45.74931642 -32.6875 45.8125 C-30.57878562 45.8275773 -28.47006079 45.8412603 -26.36132812 45.85351562 C-21.24062326 45.88627231 -16.12042945 45.93788593 -11 46 C-11.13799634 44.06993123 -11.2824652 42.14032446 -11.4296875 40.2109375 C-11.50944824 39.13634277 -11.58920898 38.06174805 -11.67138672 36.95458984 C-12.27078823 31.56532006 -14.32238759 28.43109043 -18.1875 24.8125 C-24.64456593 19.68720392 -30.76920767 18.42694799 -38.96484375 18.64453125 C-45.75755905 19.44007448 -52.12983171 22.12983171 -57 27 C-59.55422942 30.55767669 -60.10639485 32.53197427 -61 37 C-71.56 37 -82.12 37 -93 37 C-90.62737899 22.76427392 -86.52757806 12.46549369 -74.8984375 3.6484375 C-67.38996051 -1.58934357 -59.98107358 -4.92459373 -51 -7 C-50.23558594 -7.19078125 -49.47117187 -7.3815625 -48.68359375 -7.578125 C-32.84480337 -10.06806585 -13.93110381 -8.13889353 0 0 Z " fill="#FBFCFC" transform="translate(783,957)"/>
<path d="M0 0 C3.57881343 2.78182945 6.81684129 5.7768375 10 9 C10.56332031 9.54140625 11.12664062 10.0828125 11.70703125 10.640625 C25.56466695 25.1198433 26 44.00324853 26 63 C-5.02 63 -36.04 63 -68 63 C-65.85055374 73.74723128 -64.0887186 81.00535396 -55.04296875 87.37890625 C-46.08508833 93.21233116 -35.78806174 93.05936266 -25.38671875 91.64453125 C-19.39137341 89.85433795 -15.67049595 84.82381887 -12 80 C-11.67 79.34 -11.34 78.68 -11 78 C-0.11 78 10.78 78 22 78 C18.75562573 86.92202926 16.47238329 91.92472184 11 99 C10.2575 100.03125 9.515 101.0625 8.75 102.125 C-1.78842734 113.14244676 -15.97196393 119.67473926 -31.19921875 120.3359375 C-50.49087349 120.65299377 -67.45062145 117.04946115 -81.82421875 103.203125 C-82.54222656 102.47609375 -83.26023437 101.7490625 -84 101 C-84.56332031 100.45859375 -85.12664062 99.9171875 -85.70703125 99.359375 C-99.18474151 85.27712364 -100.49545161 66.78426745 -100.26953125 48.41796875 C-99.82611571 33.30907555 -93.39084263 18.84146487 -82.96484375 7.80078125 C-60.23467073 -13.03144492 -26.27869191 -16.6591427 0 0 Z " fill="#FBFCFC" transform="translate(1637,959)"/>
<path d="M0 0 C1.16810123 1.01663316 2.3151327 2.05809085 3.4375 3.125 C4.03691406 3.62515625 4.63632812 4.1253125 5.25390625 4.640625 C13.99329088 12.41735603 18.69642528 24.71864621 19.60406876 36.23923302 C19.85641763 42.12101937 19.78220781 48.00525467 19.73046875 53.890625 C19.72486229 55.7791917 19.72059717 57.6677628 19.71760559 59.55633545 C19.70623939 64.48826486 19.67684453 69.41992241 19.64349365 74.35174561 C19.61261388 79.39982426 19.59906226 84.44794754 19.58398438 89.49609375 C19.55196564 99.37253351 19.49926646 109.24870145 19.4375 119.125 C8.8775 119.125 -1.6825 119.125 -12.5625 119.125 C-12.592229 115.73444336 -12.592229 115.73444336 -12.62255859 112.27539062 C-12.689617 104.78749194 -12.76725395 97.29972945 -12.85002708 89.81198883 C-12.89986529 85.2744296 -12.94619598 80.73689225 -12.984375 76.19921875 C-13.02138597 71.8159789 -13.06778786 67.43292785 -13.12056351 63.04985046 C-13.13902376 61.38184437 -13.15416224 59.71379793 -13.16584396 58.04573059 C-13.18285066 55.70021438 -13.21191835 53.35512272 -13.24365234 51.00976562 C-13.24581253 50.3278717 -13.24797272 49.64597778 -13.25019836 48.94342041 C-13.35450957 42.86542245 -14.25279862 36.59812249 -17.5625 31.375 C-19.5625 28.125 -19.5625 28.125 -20.46875 26.03125 C-22.09906958 23.18983587 -24.43271321 22.55902861 -27.46875 21.671875 C-35.75558125 20.20703109 -46.04877853 19.20148613 -53.75 23.125 C-55.76710055 24.49185344 -55.76710055 24.49185344 -57.5625 26.125 C-58.20445312 26.68316406 -58.84640625 27.24132812 -59.5078125 27.81640625 C-69.1418803 37.470629 -69.16503864 50.48971773 -69.171875 63.265625 C-69.18688907 64.88516872 -69.20362287 66.50469732 -69.22198486 68.12420654 C-69.26530918 72.34581279 -69.28557901 76.56721266 -69.30072021 80.78900146 C-69.32389405 85.87631928 -69.37628237 90.96341345 -69.42366028 96.05055237 C-69.49207971 103.74209259 -69.5238467 111.43299367 -69.5625 119.125 C-80.1225 119.125 -90.6825 119.125 -101.5625 119.125 C-101.5625 78.205 -101.5625 37.285 -101.5625 -4.875 C-91.9925 -4.875 -82.4225 -4.875 -72.5625 -4.875 C-71.9025 1.725 -71.2425 8.325 -70.5625 15.125 C-69.2425 13.145 -67.9225 11.165 -66.5625 9.125 C-50.66989417 -9.75180693 -20.6064453 -14.76993767 0 0 Z " fill="#FCFDFD" transform="translate(936.5625,956.875)"/>
<path d="M0 0 C10.56 0 21.12 0 32 0 C32.01458252 2.24989746 32.02916504 4.49979492 32.04418945 6.81787109 C32.09470337 14.28184522 32.16132735 21.7456144 32.23571491 29.20938683 C32.28029329 33.73120693 32.31957646 38.25293952 32.34643555 42.77490234 C32.3725943 47.14525 32.41308395 51.51525864 32.46318626 55.88539505 C32.47977046 57.54615664 32.49133701 59.20697676 32.49761391 60.8678093 C32.54698172 72.73795632 32.89255483 84.51209795 41 94 C45.20653337 97.47189955 49.61710903 98.6411406 55 99 C55.83660156 99.07476563 56.67320312 99.14953125 57.53515625 99.2265625 C66.18591681 99.68890976 72.2436163 97.10309958 78.875 91.625 C81.33253895 88.58921659 83.28053508 85.49089497 85 82 C85.52311768 80.95392578 86.04623535 79.90785156 86.58520508 78.83007812 C89.10210431 71.94622421 88.48379675 64.26679651 88.51171875 57.03125 C88.52858372 55.38357215 88.54673638 53.73590702 88.56611633 52.08825684 C88.61342538 47.77457659 88.64335777 43.46094795 88.66955566 39.14709473 C88.70472557 33.95893613 88.7616835 28.77097561 88.81494904 23.58297729 C88.89323888 15.72201073 88.94401334 7.86129946 89 0 C99.56 0 110.12 0 121 0 C121 40.92 121 81.84 121 124 C111.76 124 102.52 124 93 124 C91.515 114.1 91.515 114.1 90 104 C89.154375 105.36125 88.30875 106.7225 87.4375 108.125 C82.10698148 116.05243781 75.72516006 120.27197706 67 124 C66.25234375 124.32226562 65.5046875 124.64453125 64.734375 124.9765625 C53.49377932 129.06752759 39.08223724 128.23779635 28 124 C16.35624366 118.5435828 8.64259335 110.17812973 3.76733398 98.25085449 C-0.25365273 86.45591748 -0.40583129 74.9892502 -0.29296875 62.6953125 C-0.28735901 60.87686517 -0.28309544 59.05841324 -0.28010559 57.23995972 C-0.26876515 52.50204488 -0.23939379 47.76441514 -0.20599365 43.02661133 C-0.17505704 38.17272801 -0.16155033 33.31879768 -0.14648438 28.46484375 C-0.11451136 18.97641842 -0.06183458 9.48827775 0 0 Z " fill="#FCFDFD" transform="translate(537,952)"/>
<path d="M0 0 C2.88024338 2.07562023 3.72811166 2.74683498 4.875 6.1875 C5.82375 6.27 6.7725 6.3525 7.75 6.4375 C8.78125 6.685 9.8125 6.9325 10.875 7.1875 C12.0703125 9.234375 12.0703125 9.234375 12.875 11.1875 C13.56013672 11.16018799 14.24527344 11.13287598 14.95117188 11.10473633 C35.78999234 10.49089869 35.78999234 10.49089869 40.1796875 14.5625 C42.16928349 17.38547394 43.59797228 19.98587377 44.875 23.1875 C45.25914062 23.88230469 45.64328125 24.57710937 46.0390625 25.29296875 C46.875 27.1875 46.875 27.1875 46.875 31.1875 C38.955 31.1875 31.035 31.1875 22.875 31.1875 C24.88651263 37.96239892 24.88651263 37.96239892 27.875 39.1875 C28.24625 40.13625 28.6175 41.085 29 42.0625 C31.29772685 47.72021938 35.2237378 52.34715418 38.875 57.1875 C40.3805162 59.20422713 41.88073965 61.22491892 43.375 63.25 C44.0453125 64.14847656 44.715625 65.04695312 45.40625 65.97265625 C46.875 68.1875 46.875 68.1875 46.875 70.1875 C47.535 70.1875 48.195 70.1875 48.875 70.1875 C50.73586401 73.90922803 49.63044112 78.21297769 48.875 82.1875 C47.74906588 85.30441519 46.40161522 88.24787814 44.875 91.1875 C40.25894667 89.07702885 38.00408327 86.1020325 35.4375 81.75 C31.75577474 75.70279211 31.75577474 75.70279211 25.875 72.1875 C25.55982422 74.09402344 25.55982422 74.09402344 25.23828125 76.0390625 C23.93687827 81.87309552 21.173791 86.51370613 18.0625 91.5625 C17.54107422 92.45066406 17.01964844 93.33882812 16.48242188 94.25390625 C13.75506366 98.75523903 11.7556632 101.88142612 6.875 104.1875 C5.25085882 105.45395919 3.64699706 106.7467787 2.0625 108.0625 C-10.43557321 118.06834295 -10.43557321 118.06834295 -18.6171875 117.60546875 C-22.88762828 116.89372862 -26.37492291 115.30682174 -30.125 113.1875 C-30.8778125 112.76339844 -31.630625 112.33929687 -32.40625 111.90234375 C-40.44007653 106.96374148 -47.2865241 99.86579334 -51.125 91.1875 C-51.24370572 86.32056547 -48.28348055 83.64678822 -45.125 80.1875 C-44.609375 79.589375 -44.09375 78.99125 -43.5625 78.375 C-42.125 77.1875 -42.125 77.1875 -40.0625 76.75 C-39.1034375 76.4715625 -39.1034375 76.4715625 -38.125 76.1875 C-37.815625 75.56875 -37.50625 74.95 -37.1875 74.3125 C-36.125 72.1875 -36.125 72.1875 -33.83984375 70.828125 C-30.97242689 69.09529755 -28.95203468 67.21327873 -26.625 64.8125 C-25.8928125 64.06226563 -25.160625 63.31203125 -24.40625 62.5390625 C-23.6534375 61.76304687 -22.900625 60.98703125 -22.125 60.1875 C-20.46100213 58.5181688 -18.79420925 56.8516202 -17.125 55.1875 C-16.2278125 54.2903125 -15.330625 53.393125 -14.40625 52.46875 C-11.64583333 49.70833333 -8.88541667 46.94791667 -6.125 44.1875 C-4.78308594 42.83591797 -4.78308594 42.83591797 -3.4140625 41.45703125 C1.90081756 36.1875 1.90081756 36.1875 5.875 36.1875 C6.54121139 33.15986607 7.01568435 30.2929768 6.875 27.1875 C4.64523837 24.20630459 4.64523837 24.20630459 1.875 22.1875 C1.38 21.1975 1.38 21.1975 0.875 20.1875 C-0.445 20.1875 -1.765 20.1875 -3.125 20.1875 C-4.15513277 21.83571244 -5.14565076 23.50861559 -6.125 25.1875 C-12.925 32.7875 -12.925 32.7875 -17.125 34.1875 C-18.15156171 35.83793898 -19.14774676 37.50739468 -20.125 39.1875 C-21.53323455 40.77506029 -22.99429127 42.31706915 -24.5 43.8125 C-25.25023437 44.56789063 -26.00046875 45.32328125 -26.7734375 46.1015625 C-29.99561304 48.95977137 -33.04154293 50.82634764 -37.125 52.1875 C-37.455 53.1775 -37.785 54.1675 -38.125 55.1875 C-38.785 55.1875 -39.445 55.1875 -40.125 55.1875 C-40.125 55.8475 -40.125 56.5075 -40.125 57.1875 C-41.62890625 58.66796875 -41.62890625 58.66796875 -43.6875 60.375 C-47.23496174 63.37427493 -50.49022872 66.52745132 -53.6796875 69.90234375 C-55.125 71.1875 -55.125 71.1875 -57.125 71.1875 C-57.72529924 48.11292082 -57.8559501 28.07062173 -41.140625 10 C-30.84524341 0.74213748 -13.15781588 -8.49162559 0 0 Z " fill="#053353" transform="translate(428.125,930.8125)"/>
<path d="M0 0 C9.57 0 19.14 0 29 0 C29 10.89 29 21.78 29 33 C39.89 33 50.78 33 62 33 C62 41.91 62 50.82 62 60 C51.11 60 40.22 60 29 60 C29.0676563 67.71281872 29.1380958 75.42471569 29.2355423 83.1370697 C29.28012123 86.72889054 29.31957295 90.32059692 29.34643555 93.91259766 C29.37253144 97.37523752 29.41297699 100.83744493 29.46318626 104.29981613 C29.48787932 106.25720168 29.49788361 108.21475477 29.50764465 110.17227173 C29.53733589 111.97345963 29.53733589 111.97345963 29.56762695 113.81103516 C29.58428154 115.38988998 29.58428154 115.38988998 29.60127258 117.00064087 C30.07121464 120.5357 31.17864618 122.94790019 33 126 C38.22607873 129.86597937 44.12753087 129.54532384 50.375 129.6875 C55.634375 129.8421875 55.634375 129.8421875 61 130 C61 138.91 61 147.82 61 157 C56.67961957 157.09285594 52.36282749 157.17215868 48.04223633 157.21972656 C46.57889958 157.23959449 45.11563951 157.26669882 43.65258789 157.30175781 C29.70766437 157.62705963 17.53472403 156.04884577 7 146 C1.03534157 140.03534157 -2.77832278 131.50556102 -3.12025452 123.0133667 C-3.11803391 121.84976624 -3.11581329 120.68616577 -3.11352539 119.48730469 C-3.11367142 118.84298492 -3.11381744 118.19866516 -3.1139679 117.53482056 C-3.1132735 115.41380397 -3.10550336 113.29287617 -3.09765625 111.171875 C-3.09579039 109.69785612 -3.09436728 108.22383662 -3.09336853 106.74981689 C-3.08955661 102.87661008 -3.07973765 99.00344097 -3.06866455 95.13024902 C-3.05842193 91.17537954 -3.0538648 87.22050394 -3.04882812 83.265625 C-3.03811417 75.51039752 -3.02052812 67.75520885 -3 60 C-9.93 60 -16.86 60 -24 60 C-24 51.09 -24 42.18 -24 33 C-17.07 33 -10.14 33 -3 33 C-2.690625 29.596875 -2.38125 26.19375 -2.0625 22.6875 C-1.375 15.125 -0.6875 7.5625 0 0 Z " fill="#FDFDFE" transform="translate(1002,919)"/>
<path d="M0 0 C8.10424634 4.91166445 12.97306458 11.2953261 16.13671875 20.19921875 C18.32860523 29.84947007 18.94418229 42.90676612 14.375 51.90234375 C8.16265888 61.3796937 0.75174952 66.41608349 -10 70 C-23.277698 70.63227133 -32.65337991 68.34480826 -42.75 59.625 C-51.65319815 49.23793549 -52.98066124 38.57919116 -52.25146484 25.29833984 C-51.33933298 16.96163174 -47.0720134 9.35302753 -40.6328125 4.05078125 C-39.80523438 3.47714844 -38.97765625 2.90351562 -38.125 2.3125 C-37.30257813 1.73113281 -36.48015625 1.14976562 -35.6328125 0.55078125 C-26.15319269 -5.03291173 -9.72035128 -5.46525775 0 0 Z " fill="#023151" transform="translate(1317,981)"/>
<path d="M0 0 C1.46566406 0.15178711 1.46566406 0.15178711 2.9609375 0.30664062 C10.65735735 1.25334121 18.12704763 3.31454763 23.75 8.9375 C25.53506822 14.80272415 25.59737824 20.529525 23.1875 26.1875 C19.77211981 29.68618215 15.99481275 31.69508108 11.625 33.8125 C10.635 34.3075 10.635 34.3075 9.625 34.8125 C-2.61221137 35.95298569 -16.38264674 37.09752671 -26.375 28.8125 C-30.15106567 24.44889964 -31.76176794 21.92115186 -31.64453125 16.02734375 C-30.80904922 9.161861 -26.63031185 4.6410288 -21.765625 0.0625 C-15.62583005 -3.1478503 -6.63198896 -0.81163739 0 0 Z " fill="#043252" transform="translate(1452.375,1074.1875)"/>
<path d="M0 0 C3.70717704 2.81672765 5.84111378 5.49802127 7.28125 9.8984375 C8.01284069 16.302114 8.06685938 22.45670132 4.75390625 28.14453125 C1.09482133 32.50243345 -4.07583182 35.91846507 -9.71875 36.8984375 C-18.06272831 37.57217488 -24.34332842 36.58335529 -31.46875 32.2109375 C-35.9862405 27.56796115 -37.95403653 22.95067132 -38.28125 16.4609375 C-38.03307357 10.68883412 -36.43696401 6.33889452 -32.71875 1.8984375 C-23.32376406 -5.87800631 -10.30297899 -6.6032729 0 0 Z " fill="#063453" transform="translate(1465.71875,978.1015625)"/>
<path d="M0 0 C7.13870903 4.51205086 12.10571749 9.9292593 14.73046875 18.09375 C14.73046875 20.07375 14.73046875 22.05375 14.73046875 24.09375 C-5.39953125 24.09375 -25.52953125 24.09375 -46.26953125 24.09375 C-43.84678359 13.19138552 -41.06810457 7.33371176 -31.7109375 1.28515625 C-23.00540113 -2.9631455 -9.04255083 -4.31167986 0 0 Z " fill="#033151" transform="translate(1615.26953125,977.90625)"/>
<path d="M0 0 C1.12138618 0.00212242 1.12138618 0.00212242 2.26542664 0.00428772 C4.6392324 0.00985861 7.01294178 0.02240565 9.38671875 0.03515625 C11.00195176 0.04017502 12.61718625 0.04473726 14.23242188 0.04882812 C18.1797243 0.0598185 22.12695522 0.07706293 26.07421875 0.09765625 C26.23039811 5.22817066 25.24343393 8.65653697 22.88671875 13.16015625 C22.59474609 13.75892578 22.30277344 14.35769531 22.00195312 14.97460938 C18.00420271 22.82395589 11.42470281 28.32210306 3.07421875 31.09765625 C-4.7756579 31.90421466 -12.47707927 32.14941019 -18.92578125 27.09765625 C-23.1780249 22.51831693 -24.29743239 19.5327723 -24.19921875 13.4140625 C-23.76580955 9.74246738 -22.38451439 7.80856714 -19.92578125 5.09765625 C-13.61541768 0.43217418 -7.6153458 -0.05474977 0 0 Z " fill="#043252" transform="translate(744.92578125,1022.90234375)"/>
<path d="M0 0 C2.3125 0.1875 2.3125 0.1875 5 1 C6.625 3.4375 6.625 3.4375 8 6 C8.99 6.66 9.98 7.32 11 8 C11.43132515 12.05445642 11.30019361 13.54970958 9 17 C8.05125 17.45375 7.1025 17.9075 6.125 18.375 C2.61631903 20.1995141 1.39856197 21.89597863 -1 25 C-4.23770581 28.03444177 -7.65372915 30.86913248 -11.05078125 33.72265625 C-15.18826874 37.24956306 -18.8137271 40.93765822 -22.33984375 45.07421875 C-25.8044954 49.09321467 -29.08424078 52.7963838 -34 55 C-34.495 55.515625 -34.99 56.03125 -35.5 56.5625 C-37 58 -37 58 -39.0625 58.375 C-39.701875 58.58125 -40.34125 58.7875 -41 59 C-41.71247732 60.6476038 -42.37400383 62.31763529 -43 64 C-44.29233607 65.37310707 -45.62437146 66.71034824 -47 68 C-47.66 68.99 -48.32 69.98 -49 71 C-50.40472647 67.02103062 -51.72186843 63.02131514 -53 59 C-53.25394531 58.30390625 -53.50789063 57.6078125 -53.76953125 56.890625 C-54.25 55.1875 -54.25 55.1875 -54 52 C-52.25906076 49.97043135 -50.38786071 48.4132396 -48.2734375 46.77734375 C-45.38719282 44.52091535 -42.95685574 41.94271944 -40.4453125 39.28515625 C-39 38 -39 38 -37 38 C-37 37.34 -37 36.68 -37 36 C-33.86056981 32.76708802 -30.40772121 29.80943969 -26.5 27.5625 C-21.1357953 24.20987206 -16.77953082 19.65574097 -14 14 C-12.33333333 13 -10.66666667 12 -9 11 C-5.25149388 7.68774244 -2.0579218 4.61258334 0 0 Z " fill="#C8CCCF" transform="translate(425,950)"/>
<path d="M0 0 C2.3125 0.1875 2.3125 0.1875 5 1 C6.625 3.4375 6.625 3.4375 8 6 C8.99 6.66 9.98 7.32 11 8 C11.43132515 12.05445642 11.30019361 13.54970958 9 17 C7.576875 17.680625 7.576875 17.680625 6.125 18.375 C2.61631903 20.1995141 1.39856197 21.89597863 -1 25 C-3.58548454 27.42946392 -6.28517992 29.71684671 -9 32 C-9.61101562 32.51433594 -10.22203125 33.02867187 -10.8515625 33.55859375 C-12.22967314 34.7113735 -13.61408239 35.85661797 -15 37 C-13.66071429 29.09821429 -13.66071429 29.09821429 -10 26 C-7 24 -7 24 -5 24 C-5.04125 23.21625 -5.0825 22.4325 -5.125 21.625 C-5 19 -5 19 -3 17 C-0.67724823 16.59952556 1.65739357 16.2602896 4 16 C4.12375 15.38125 4.2475 14.7625 4.375 14.125 C5 12 5 12 7 10 C6.67 9.01 6.34 8.02 6 7 C2.48809191 5.77030122 2.48809191 5.77030122 -1 5 C-1.20625 5.928125 -1.4125 6.85625 -1.625 7.8125 C-3 11 -3 11 -6 12.9375 C-6.99 13.288125 -7.98 13.63875 -9 14 C-9.66 13.67 -10.32 13.34 -11 13 C-10.37351562 12.39671875 -9.74703125 11.7934375 -9.1015625 11.171875 C-8.28429687 10.37265625 -7.46703125 9.5734375 -6.625 8.75 C-5.81289063 7.96109375 -5.00078125 7.1721875 -4.1640625 6.359375 C-2.24416857 4.26620545 -1.08366315 2.59602821 0 0 Z " fill="#97A6B1" transform="translate(425,950)"/>
<path d="M0 0 C1.30772873 0.24114784 1.30772873 0.24114784 2.64187622 0.48716736 C5.72340596 0.95776021 8.61755469 1.15512185 11.72998047 1.20532227 C12.83066864 1.22526749 13.93135681 1.24521271 15.06539917 1.26576233 C16.23748932 1.28247482 17.40957947 1.29918732 18.6171875 1.31640625 C19.82948029 1.33718735 21.04177307 1.35796844 22.290802 1.37937927 C26.1521453 1.44460982 30.01355491 1.50363651 33.875 1.5625 C36.49740261 1.60571041 39.11979859 1.6493255 41.7421875 1.69335938 C48.16138882 1.80026404 54.58065569 1.9020791 61 2 C61.495 2.99 61.495 2.99 62 4 C54.35929258 4.09265347 46.71864335 4.16374109 39.07750225 4.20724869 C35.52941238 4.22812977 31.98170665 4.25645545 28.43383789 4.30175781 C24.35559387 4.35350697 20.27775374 4.37294074 16.19921875 4.390625 C14.92414963 4.41127014 13.64908051 4.43191528 12.33537292 4.45318604 C11.15437515 4.45348816 9.97337738 4.45379028 8.7565918 4.45410156 C7.71512497 4.46298401 6.67365814 4.47186646 5.60063171 4.48101807 C3 4 3 4 1.14021301 1.97161865 C0.76394272 1.3209845 0.38767242 0.67035034 0 0 Z " fill="#A4B4C0" transform="translate(414,1103)"/>
<path d="M0 0 C0.66 0.33 1.32 0.66 2 1 C0.625 2.5 0.625 2.5 -1 4 C-1.66 4 -2.32 4 -3 4 C-3 4.66 -3 5.32 -3 6 C-4.71659432 7.35803676 -6.53184882 8.49830258 -8.37109375 9.68359375 C-10.29953716 11.00013286 -10.29953716 11.00013286 -11 14 C-11.99 14 -12.98 14 -14 14 C-14.0825 14.61875 -14.165 15.2375 -14.25 15.875 C-15.23825442 18.67505419 -16.40359985 18.74113932 -19 20 C-19.70394612 21.31403276 -20.36345658 22.6520257 -21 24 C-25.1497006 29.5748503 -25.1497006 29.5748503 -28 31 C-28.495 32.485 -28.495 32.485 -29 34 C-29.66 34 -30.32 34 -31 34 C-31.1546875 34.928125 -31.1546875 34.928125 -31.3125 35.875 C-32 38 -32 38 -35 40 C-33.78065514 35.96678237 -32.44045073 32.45730521 -30 29 C-29.34 29 -28.68 29 -28 29 C-27.814375 28.29875 -27.62875 27.5975 -27.4375 26.875 C-25.74387613 23.48775226 -23.7821546 21.96065655 -20.8828125 19.61328125 C-17.05675611 16.33493833 -13.60440976 12.81322927 -12 8 C-9.83889333 6.09450809 -7.40766526 4.57796243 -5 3 C-4.071875 2.38125 -3.14375 1.7625 -2.1875 1.125 C-1.465625 0.75375 -0.74375 0.3825 0 0 Z " fill="#CAD3D9" transform="translate(335,903)"/>
<path d="M0 0 C0.99 0 1.98 0 3 0 C1.60440273 3.3726934 0.1078412 5.08045102 -3 7 C-3.60585938 7.14179687 -4.21171875 7.28359375 -4.8359375 7.4296875 C-12.98187825 9.57645167 -18.46619979 15.1492611 -23.30859375 21.73046875 C-25 24 -25 24 -26.6328125 25.61328125 C-31.19426795 30.23990035 -32.86589799 39.00934815 -35 45 C-35.33 45 -35.66 45 -36 45 C-36 42.69 -36 40.38 -36 38 C-35.34 38 -34.68 38 -34 38 C-33.87625 36.865625 -33.7525 35.73125 -33.625 34.5625 C-33.315625 32.7990625 -33.315625 32.7990625 -33 31 C-32.34 30.67 -31.68 30.34 -31 30 C-30.72027344 29.2575 -30.44054687 28.515 -30.15234375 27.75 C-28.78479724 24.48643139 -26.995785 22.55714679 -24.5625 20 C-22.2079055 17.51739625 -20.18024003 15.30781546 -18.44921875 12.3515625 C-16.9113688 9.85618333 -15.74870002 8.84423561 -13.25 7.375 C-12.55132812 6.96378906 -11.85265625 6.55257812 -11.1328125 6.12890625 C-9.1586655 5.08398229 -7.18606445 4.17055821 -5.125 3.3125 C-1.96482242 2.2169058 -1.96482242 2.2169058 0 0 Z " fill="#A9B8C3" transform="translate(359,923)"/>
<path d="M0 0 C17.74617269 5.22382119 17.74617269 5.22382119 21.625 7.625 C28.68388641 11.71172371 39.2136327 10.33262375 47.10351562 10.51757812 C48.18697266 10.55173828 49.27042969 10.58589844 50.38671875 10.62109375 C51.36858154 10.6461499 52.35044434 10.67120605 53.36206055 10.69702148 C56.02560673 11.00294104 57.71015139 11.64439606 60 13 C59.67 13.99 59.34 14.98 59 16 C58.34 15.34 57.68 14.68 57 14 C54.04195782 13.61526559 54.04195782 13.61526559 50.55078125 13.54296875 C49.23424561 13.48520264 47.91770996 13.42743652 46.5612793 13.36791992 C45.86642426 13.33926849 45.17156921 13.31061707 44.45565796 13.28109741 C32.6821628 12.76691754 21.85584083 12.10005945 11 7 C9.98808594 6.54882812 8.97617187 6.09765625 7.93359375 5.6328125 C1.24403409 2.48806818 1.24403409 2.48806818 0 0 Z " fill="#94A7B4" transform="translate(339,1070)"/>
<path d="M0 0 C5.39199713 0.82771886 7.85098497 4.869664 11 9 C12.8771317 11.89999987 14.45506897 14.91013794 16 18 C14.1875 17.8125 14.1875 17.8125 12 17 C10.34223552 14.64087363 9.16191849 12.48575546 8.25 9.75 C6.99239453 7.57057718 6.99239453 7.57057718 3.375 7.25 C2.26125 7.1675 1.1475 7.085 0 7 C0.061875 7.763125 0.12375 8.52625 0.1875 9.3125 C0 12 0 12 -1.375 13.8125 C-3 15 -3 15 -5 15 C-5 15.99 -5 16.98 -5 18 C-5.66 18 -6.32 18 -7 18 C-6.72414063 17.31550781 -6.44828125 16.63101563 -6.1640625 15.92578125 C-4.87623368 12.68892291 -3.62335037 9.43978124 -2.375 6.1875 C-1.92898438 5.02605469 -1.48296875 3.86460937 -1.0234375 2.66796875 C-0.68570312 1.78753906 -0.34796875 0.90710938 0 0 Z " fill="#BEC9D1" transform="translate(454,1003)"/>
<path d="M0 0 C1.86398437 0.00676758 1.86398437 0.00676758 3.765625 0.01367188 C6.80213502 0.02535076 9.83854088 0.0417286 12.875 0.0625 C12.875 0.7225 12.875 1.3825 12.875 2.0625 C15.515 2.0625 18.155 2.0625 20.875 2.0625 C20.875 2.3925 20.875 2.7225 20.875 3.0625 C20.03541748 3.05726318 19.19583496 3.05202637 18.33081055 3.04663086 C2.48251516 2.96098784 -13.30648697 2.93404557 -29.125 4.0625 C-20.71120002 -1.54669999 -9.76431316 -0.06795293 0 0 Z " fill="#A9B8C3" transform="translate(389.125,888.9375)"/>
<path d="M0 0 C0 0.99 0 1.98 0 3 C-0.61875 3.185625 -1.2375 3.37125 -1.875 3.5625 C-4.35880009 4.91005696 -4.35880009 4.91005696 -4.9375 8.3125 C-6.18631617 12.64662669 -7.50344248 14.20275398 -11 17 C-13.31648799 18.03842565 -15.64903024 19.0421975 -18 20 C-19.88029239 21.53951047 -19.88029239 21.53951047 -21 23 C-21.66 22.67 -22.32 22.34 -23 22 C-20.88094537 19.82722286 -18.75527122 17.66173092 -16.625 15.5 C-16.02171875 14.87996094 -15.4184375 14.25992188 -14.796875 13.62109375 C-14.21679688 13.03457031 -13.63671875 12.44804688 -13.0390625 11.84375 C-12.50490723 11.29912109 -11.97075195 10.75449219 -11.42041016 10.19335938 C-10 9 -10 9 -8 9 C-8 8.34 -8 7.68 -8 7 C-6.25 5.2734375 -6.25 5.2734375 -4 3.375 C-3.2575 2.74335937 -2.515 2.11171875 -1.75 1.4609375 C-0.88375 0.73777344 -0.88375 0.73777344 0 0 Z " fill="#728897" transform="translate(396,979)"/>
<path d="M0 0 C0.99 0 1.98 0 3 0 C2.67 0.99 2.34 1.98 2 3 C1.34 3 0.68 3 0 3 C-0.33 4.65 -0.66 6.3 -1 8 C-1.66 8 -2.32 8 -3 8 C-3.2475 8.804375 -3.495 9.60875 -3.75 10.4375 C-4.1625 11.283125 -4.575 12.12875 -5 13 C-5.61875 13.144375 -6.2375 13.28875 -6.875 13.4375 C-10.27466875 14.33741232 -11.18549633 17.13191355 -13 20 C-16 22 -16 22 -19 22 C-19 21.34 -19 20.68 -19 20 C-17.56640625 18.58984375 -17.56640625 18.58984375 -15.5625 16.9375 C-12.30633664 14.1630863 -9.17746026 11.31054038 -6.125 8.3125 C-5.01511719 7.22388672 -5.01511719 7.22388672 -3.8828125 6.11328125 C-2.12131145 4.13616078 -1.03767755 2.41942712 0 0 Z " fill="#9EACB4" transform="translate(411,964)"/>
<path d="M0 0 C1.65 0.33 3.3 0.66 5 1 C5.33 2.98 5.66 4.96 6 7 C3.69 6.34 1.38 5.68 -1 5 C-1.20625 5.928125 -1.4125 6.85625 -1.625 7.8125 C-3 11 -3 11 -6 12.9375 C-6.99 13.288125 -7.98 13.63875 -9 14 C-9.66 13.67 -10.32 13.34 -11 13 C-10.37351562 12.39671875 -9.74703125 11.7934375 -9.1015625 11.171875 C-8.28429687 10.37265625 -7.46703125 9.5734375 -6.625 8.75 C-5.40683594 7.56664062 -5.40683594 7.56664062 -4.1640625 6.359375 C-2.24416857 4.26620545 -1.08366315 2.59602821 0 0 Z " fill="#A9B4BC" transform="translate(425,950)"/>
<path d="M0 0 C8.25 0 16.5 0 25 0 C25 0.33 25 0.66 25 1 C17.08 1 9.16 1 1 1 C3.01151263 7.77489892 3.01151263 7.77489892 6 9 C7.04718798 11.31254012 8.04346365 13.6485148 9 16 C9.65288627 17.34013497 10.31225595 18.67741528 11 20 C7.68321733 17.55605487 5.68893987 15.73979544 4 12 C2.58333333 10.41666667 2.58333333 10.41666667 1 9 C0 8 -1 7 -2 6 C-1.34 4.02 -0.68 2.04 0 0 Z " fill="#6E889A" transform="translate(450,961)"/>
<path d="M0 0 C0 3 0 3 -1.609375 4.68359375 C-2.66898437 5.55177734 -2.66898437 5.55177734 -3.75 6.4375 C-6.00569849 8.32055234 -8.1371685 10.1410876 -10.1875 12.25 C-14.30012048 16.22080598 -17.11870359 17.18020026 -22.8125 17.1875 C-24.54213041 17.13951818 -26.27163534 17.08172652 -28 17 C-28 16.67 -28 16.34 -28 16 C-27.44054687 15.97164062 -26.88109375 15.94328125 -26.3046875 15.9140625 C-15.90512635 14.67681567 -7.0293577 7.44488623 0 0 Z " fill="#869BAA" transform="translate(437,1032)"/>
<path d="M0 0 C0 3 0 3 -2.40625 5.69921875 C-3.4299968 6.70302243 -4.4616054 7.69885649 -5.5 8.6875 C-6.02464844 9.19861328 -6.54929687 9.70972656 -7.08984375 10.23632812 C-8.38660904 11.49772708 -9.69246117 12.74977212 -11 14 C-11 10.48615893 -10.38537113 8.23253263 -9 5 C-6.19600103 2.26979048 -3.9054743 0.57858879 0 0 Z " fill="#8A9BA7" transform="translate(406,989)"/>
<path d="M0 0 C0.33 0 0.66 0 1 0 C1.06058594 1.07121094 1.12117188 2.14242187 1.18359375 3.24609375 C1.26798537 4.64324391 1.35263406 6.04037857 1.4375 7.4375 C1.47681641 8.14455078 1.51613281 8.85160156 1.55664062 9.58007812 C1.47624438 13.08690419 1.47624438 13.08690419 3 16 C5.14386657 16.15858842 7.29266838 16.25129298 9.44140625 16.31640625 C10.74658203 16.35830078 12.05175781 16.40019531 13.39648438 16.44335938 C14.7851533 16.48317608 16.17382522 16.52288825 17.5625 16.5625 C18.95509183 16.60567989 20.34767028 16.649294 21.74023438 16.69335938 C25.16004801 16.79985876 28.57993763 16.90186923 32 17 C32 17.33 32 17.66 32 18 C27.60343827 18.02465504 23.2069128 18.04283842 18.81030273 18.05493164 C17.31355082 18.05997121 15.81680384 18.06680287 14.32006836 18.07543945 C12.17300193 18.08752159 10.02600038 18.09323191 7.87890625 18.09765625 C5.93866577 18.10551147 5.93866577 18.10551147 3.95922852 18.11352539 C1 18 1 18 0 17 C-0.07325168 14.13732433 -0.09238205 11.299281 -0.0625 8.4375 C-0.05798828 7.63119141 -0.05347656 6.82488281 -0.04882812 5.99414062 C-0.03700518 3.99606244 -0.01906914 1.99802217 0 0 Z " fill="#2D536E" transform="translate(288,973)"/>
<path d="M0 0 C2.5 1.125 2.5 1.125 5 3 C5.59587577 7.08600528 5.31567384 8.52648925 3 12 C-0.125 13.1875 -0.125 13.1875 -3 14 C-2.34 13.01 -1.68 12.02 -1 11 C0.7004691 6.8830748 1.26649998 4.30609995 0 0 Z " fill="#778D9D" transform="translate(431,955)"/>
<path d="M0 0 C4.02249949 -0.06475572 8.03978799 -0.04020478 12.0625 0 C13.19623047 -0.01933594 14.32996094 -0.03867188 15.49804688 -0.05859375 C23.82876079 0.08713302 23.82876079 0.08713302 27.37060547 2.84765625 C29.09909287 4.82307042 30.60574794 6.77881006 32 9 C31.01 9.33 30.02 9.66 29 10 C28.360625 9.030625 27.72125 8.06125 27.0625 7.0625 C25.3034741 4.23963731 25.3034741 4.23963731 24 3 C22.29436222 2.84259395 20.58272756 2.74906608 18.87109375 2.68359375 C17.83662109 2.64169922 16.80214844 2.59980469 15.73632812 2.55664062 C14.64771484 2.51732422 13.55910156 2.47800781 12.4375 2.4375 C11.34501953 2.39431641 10.25253906 2.35113281 9.12695312 2.30664062 C6.41810436 2.20017932 3.70916008 2.09816484 1 2 C0.67 1.34 0.34 0.68 0 0 Z " fill="#395D75" transform="translate(371,1082)"/>
<path d="M0 0 C0 0.66 0 1.32 0 2 C-1.423125 2.3403125 -1.423125 2.3403125 -2.875 2.6875 C-6.16199565 3.65907915 -6.16199565 3.65907915 -7.125 6.375 C-7.558125 7.674375 -7.558125 7.674375 -8 9 C-9.29233607 10.37310707 -10.62437146 11.71034824 -12 13 C-12.66 13.99 -13.32 14.98 -14 16 C-14.33 14.02 -14.66 12.04 -15 10 C-13.35 9.67 -11.7 9.34 -10 9 C-10 7.68 -10 6.36 -10 5 C-9.34 5 -8.68 5 -8 5 C-8 4.34 -8 3.68 -8 3 C-7.01 3 -6.02 3 -5 3 C-5 2.34 -5 1.68 -5 1 C-3 0 -3 0 0 0 Z " fill="#B0BBC1" transform="translate(390,1005)"/>
<path d="M0 0 C1.125 3.75 1.125 3.75 0 6 C-0.66 6 -1.32 6 -2 6 C-2.33 9.96 -2.66 13.92 -3 18 C-3.66 18 -4.32 18 -5 18 C-5 19.98 -5 21.96 -5 24 C-5.66 24 -6.32 24 -7 24 C-6.5083829 18.98550562 -5.67808938 14.11661994 -4.625 9.1875 C-4.39039063 8.08792969 -4.15578125 6.98835937 -3.9140625 5.85546875 C-3.00717111 3.02240205 -2.29099031 1.82383306 0 0 Z " fill="#B7C4CD" transform="translate(299,943)"/>
<path d="M0 0 C-1.39559727 3.3726934 -2.8921588 5.08045102 -6 7 C-6.928125 7.20689453 -6.928125 7.20689453 -7.875 7.41796875 C-11.07573635 8.29464102 -13.47795493 10.18305601 -16.1953125 12.0390625 C-16.79085938 12.35617187 -17.38640625 12.67328125 -18 13 C-18.66 12.67 -19.32 12.34 -20 12 C-16.7286934 9.22434591 -13.44272184 7.0642737 -9.703125 5.015625 C-7.74716339 3.90597277 -7.74716339 3.90597277 -5.25 1.75 C-3 0 -3 0 0 0 Z " fill="#6C8699" transform="translate(362,923)"/>
<path d="M0 0 C1.32 0.33 2.64 0.66 4 1 C3.01 1 2.02 1 1 1 C0.79375 2.27875 0.5875 3.5575 0.375 4.875 C-0.86946104 10.63063231 -3.77515527 15.14245086 -7 20 C-8.33332095 17.3333581 -7.67102033 15.83319697 -7 13 C-6.01 13 -5.02 13 -4 13 C-3.896875 11.96875 -3.79375 10.9375 -3.6875 9.875 C-3.00872203 6.04916055 -1.88841205 3.36629975 0 0 Z " fill="#3F627A" transform="translate(453,1002)"/>
<path d="M0 0 C0.53625 0.28875 1.0725 0.5775 1.625 0.875 C4.07550097 2.11988906 4.07550097 2.11988906 7.1875 2.875 C8.115625 3.24625 9.04375 3.6175 10 4 C10.875 6.125 10.875 6.125 11 8 C8.3125 8.375 8.3125 8.375 5 8 C2.83295905 6.18573316 1.61874997 4.38051466 0 2 C0 1.34 0 0.68 0 0 Z " fill="#A4B4C0" transform="translate(343,1037)"/>
<path d="M0 0 C0.66 0.33 1.32 0.66 2 1 C1.01 1.33 0.02 1.66 -1 2 C-1.33 2.99 -1.66 3.98 -2 5 C-2.66 5 -3.32 5 -4 5 C-4.12375 5.78375 -4.2475 6.5675 -4.375 7.375 C-5 10 -5 10 -7 12 C-9.125 11.625 -9.125 11.625 -11 11 C-10.06409496 9.8944811 -9.12620142 8.79064547 -8.1875 7.6875 C-7.66542969 7.07261719 -7.14335937 6.45773437 -6.60546875 5.82421875 C-2.64244742 1.32122371 -2.64244742 1.32122371 0 0 Z " fill="#385B73" transform="translate(388,1007)"/>
<path d="M0 0 C1.47931594 3.94153307 0.56772656 7.1618193 -0.3125 11.1875 C-0.57675781 12.43917969 -0.84101563 13.69085937 -1.11328125 14.98046875 C-1.40589844 15.97691406 -1.69851563 16.97335937 -2 18 C-2.66 18.33 -3.32 18.66 -4 19 C-4.53699151 11.88486245 -2.69707634 6.55004254 0 0 Z " fill="#2E546E" transform="translate(326,959)"/>
<path d="M0 0 C0 0.66 0 1.32 0 2 C-5.94 2 -11.88 2 -18 2 C-18 1.67 -18 1.34 -18 1 C-15.93939936 0.63494484 -13.87640368 0.28339285 -11.8125 -0.0625 C-10.66394531 -0.25972656 -9.51539063 -0.45695312 -8.33203125 -0.66015625 C-5.21351634 -0.97822284 -3.00194217 -0.80843264 0 0 Z " fill="#CAD4DB" transform="translate(451,1077)"/>
<path d="M0 0 C0.33 0.66 0.66 1.32 1 2 C0.22265625 3.7265625 0.22265625 3.7265625 -0.9375 5.625 C-1.618125 6.73875 -2.29875 7.8525 -3 9 C-4.32 9 -5.64 9 -7 9 C-7.33 7.68 -7.66 6.36 -8 5 C-7.236875 4.731875 -6.47375 4.46375 -5.6875 4.1875 C-3.12619116 3.05575888 -1.80307062 2.08776599 0 0 Z " fill="#A6B2B8" transform="translate(379,997)"/>
<path d="M0 0 C0.66 0.33 1.32 0.66 2 1 C0.625 2.5 0.625 2.5 -1 4 C-1.66 4 -2.32 4 -3 4 C-3 4.66 -3 5.32 -3 6 C-5.82847776 8.61896089 -8.21213403 9.4739075 -12 10 C-12 9.34 -12 8.68 -12 8 C-9.83436853 6.10897309 -7.39546951 4.58538335 -5 3 C-4.071875 2.38125 -3.14375 1.7625 -2.1875 1.125 C-1.465625 0.75375 -0.74375 0.3825 0 0 Z " fill="#899DAB" transform="translate(335,903)"/>
<path d="M0 0 C5.16498344 3.58679405 7.23668568 7.47337136 10 13 C8.1875 12.8125 8.1875 12.8125 6 12 C4.4375 9.75 4.4375 9.75 3 7 C2.443125 6.113125 1.88625 5.22625 1.3125 4.3125 C0 2 0 2 0 0 Z " fill="#A9B8C2" transform="translate(460,1008)"/>
<path d="M0 0 C6.40140935 0.46555704 11.26769829 2.14711836 17 5 C10.89462627 6.83030476 5.56916446 3.45043236 0 1 C0 0.67 0 0.34 0 0 Z " fill="#7992A1" transform="translate(417,893)"/>
<path d="M0 0 C0.66 0.33 1.32 0.66 2 1 C2.33333333 2.66666667 2.66666667 4.33333333 3 6 C3.95394836 8.02237052 4.94535351 10.0282696 6 12 C2.64189605 10.61043975 0.81413448 9.17473533 -1 6 C-1.25 3.3125 -1.25 3.3125 -1 1 C-0.67 0.67 -0.34 0.34 0 0 Z " fill="#5F7C90" transform="translate(309,1040)"/>
<path d="M0 0 C0.66 0.33 1.32 0.66 2 1 C1.34 2.32 0.68 3.64 0 5 C-0.99 5 -1.98 5 -3 5 C-3.103125 5.61875 -3.20625 6.2375 -3.3125 6.875 C-4 9 -4 9 -7 11 C-6.68232368 5.59950264 -3.80003673 3.47662935 0 0 Z " fill="#D3DBE1" transform="translate(324,912)"/>
<path d="M0 0 C3.27914568 0.56536994 4.93380808 1.3703012 7 4 C7.70211894 5.65204456 8.36971413 7.31923769 9 9 C9.99 10.485 9.99 10.485 11 12 C9.125 11.8125 9.125 11.8125 7 11 C6.30959426 9.34302621 5.6469365 7.6744239 5 6 C3.37253306 4.29503463 1.71108689 2.62102968 0 1 C0 0.67 0 0.34 0 0 Z " fill="#70899B" transform="translate(332,1025)"/>
<path d="M0 0 C1.65 0 3.3 0 5 0 C5 0.66 5 1.32 5 2 C1.8364623 4.169283 -1.4124787 5.66749209 -5 7 C-4.34 5.68 -3.68 4.36 -3 3 C-2.34 3 -1.68 3 -1 3 C-0.67 2.01 -0.34 1.02 0 0 Z " fill="#6E899B" transform="translate(327,1023)"/>
<path d="M0 0 C0.556875 0.268125 1.11375 0.53625 1.6875 0.8125 C-3.45535714 6.38392857 -3.45535714 6.38392857 -7.3125 6.8125 C-7.3125 4.8125 -7.3125 4.8125 -5.0625 2.125 C-2.3125 -0.1875 -2.3125 -0.1875 0 0 Z " fill="#B2BAC0" transform="translate(399.3125,979.1875)"/>
<path d="M0 0 C1.31534494 3.65857532 0.65468309 6.08026481 -0.4375 9.75 C-0.86869141 11.22726562 -0.86869141 11.22726562 -1.30859375 12.734375 C-1.53675781 13.48203125 -1.76492188 14.2296875 -2 15 C-2.33 15 -2.66 15 -3 15 C-3.08142927 13.2507786 -3.13938541 11.50045458 -3.1875 9.75 C-3.22230469 8.77546875 -3.25710938 7.8009375 -3.29296875 6.796875 C-2.96075202 3.62531258 -2.11327721 2.32959693 0 0 Z " fill="#3D6078" transform="translate(294,953)"/>
<path d="M0 0 C0.66 0 1.32 0 2 0 C1.67 1.65 1.34 3.3 1 5 C0.34 5 -0.32 5 -1 5 C-1.103125 5.61875 -1.20625 6.2375 -1.3125 6.875 C-2 9 -2 9 -5 11 C-3.78065514 6.96678237 -2.44045073 3.45730521 0 0 Z " fill="#98ABB7" transform="translate(305,932)"/>
<path d="M0 0 C1.32 0 2.64 0 4 0 C4.33 1.65 4.66 3.3 5 5 C5.66 5 6.32 5 7 5 C6.67 6.32 6.34 7.64 6 9 C3.59927045 6.11912454 1.52708963 3.43595166 0 0 Z " fill="#CDD5DC" transform="translate(464,984)"/>
<path d="M0 0 C0.66 0 1.32 0 2 0 C2 0.66 2 1.32 2 2 C1.34 2 0.68 2 0 2 C0.350625 2.7425 0.70125 3.485 1.0625 4.25 C2.04509293 7.1322726 2.0326802 8.21176345 1 11 C-2.0653951 5.60490463 -2.0653951 5.60490463 -1.75 2.6875 C-1 1 -1 1 0 0 Z " fill="#CAD4DA" transform="translate(312,1039)"/>
<path d="M0 0 C0.66 0.33 1.32 0.66 2 1 C0.72777885 4.81666346 -0.53979577 5.11261588 -4 7 C-4.928125 7.556875 -5.85625 8.11375 -6.8125 8.6875 C-7.534375 9.120625 -8.25625 9.55375 -9 10 C-9 9.34 -9 8.68 -9 8 C-7.28515625 6.30859375 -7.28515625 6.30859375 -5.0625 4.4375 C-3.96615234 3.50744141 -3.96615234 3.50744141 -2.84765625 2.55859375 C-2.23792969 2.04425781 -1.62820313 1.52992187 -1 1 C-0.67 0.67 -0.34 0.34 0 0 Z " fill="#627F92" transform="translate(320,1030)"/>
<path d="M0 0 C2.03833424 1.2739589 4.03852126 2.61061923 6 4 C6 4.66 6 5.32 6 6 C6.99 6.33 7.98 6.66 9 7 C8.01 7.33 7.02 7.66 6 8 C5.67 7.01 5.34 6.02 5 5 C3.35 4.67 1.7 4.34 0 4 C0 2.68 0 1.36 0 0 Z " fill="#527086" transform="translate(321,1057)"/>
<path d="M0 0 C0 3 0 3 -2 5.1875 C-2.66 5.785625 -3.32 6.38375 -4 7 C-4.99 6.67 -5.98 6.34 -7 6 C-2.25 1.125 -2.25 1.125 0 0 Z " fill="#204764" transform="translate(346,934)"/>
<path d="M0 0 C0.33 1.32 0.66 2.64 1 4 C-0.65 5.32 -2.3 6.64 -4 8 C-4.66 7.67 -5.32 7.34 -6 7 C-4.625 5 -4.625 5 -3 3 C-2.34 3 -1.68 3 -1 3 C-0.67 2.01 -0.34 1.02 0 0 Z " fill="#DBE1E5" transform="translate(441,1029)"/>
<path d="M0 0 C2.37948772 0.17625835 3.70225849 0.69719773 5.37890625 2.40234375 C6.62115486 3.90649092 7.81376056 5.45129851 9 7 C6.03 6.505 6.03 6.505 3 6 C2.87625 5.195625 2.7525 4.39125 2.625 3.5625 C2.315625 2.2940625 2.315625 2.2940625 2 1 C1.34 0.67 0.68 0.34 0 0 Z " fill="#CBD4DB" transform="translate(329,1025)"/>
<path d="M0 0 C1.32 0.33 2.64 0.66 4 1 C3.01 1 2.02 1 1 1 C0.896875 1.763125 0.79375 2.52625 0.6875 3.3125 C-0.04364039 6.17059424 -0.76951913 7.15742885 -3 9 C-2.5020163 5.26512223 -2.12508244 3.18762365 0 0 Z " fill="#2A516C" transform="translate(453,1002)"/>
<path d="M0 0 C1.125 3.75 1.125 3.75 0 6 C-0.66 6 -1.32 6 -2 6 C-2.66 7.32 -3.32 8.64 -4 10 C-3.38461538 3.47692308 -3.38461538 3.47692308 -1.4375 1.0625 C-0.7259375 0.5365625 -0.7259375 0.5365625 0 0 Z " fill="#6C8799" transform="translate(299,943)"/>
<path d="M0 0 C3.73487777 0.4979837 5.81237635 0.87491756 9 3 C8.67 3.99 8.34 4.98 8 6 C6.66402348 5.19185349 5.331275 4.37836819 4 3.5625 C3.2575 3.11003906 2.515 2.65757812 1.75 2.19140625 C1.1725 1.79824219 0.595 1.40507813 0 1 C0 0.67 0 0.34 0 0 Z " fill="#B2C0CA" transform="translate(423,928)"/>
<path d="M0 0 C0.33 0.66 0.66 1.32 1 2 C-0.1875 4 -0.1875 4 -2 6 C-4.6875 6.25 -4.6875 6.25 -7 6 C-4.83312509 3.72478134 -2.54379491 1.84205838 0 0 Z " fill="#D5DDE2" transform="translate(328,1026)"/>
<path d="M0 0 C0.6875 1.75 0.6875 1.75 1 4 C-0.3125 6.25 -0.3125 6.25 -2 8 C-2.66 8 -3.32 8 -4 8 C-2.87548273 5.0280615 -1.77706209 2.66559313 0 0 Z " fill="#BEC9D2" transform="translate(446,1021)"/>
<path d="M0 0 C2.125 0.375 2.125 0.375 4 1 C2.35 2.65 0.7 4.3 -1 6 C-1.625 4.125 -1.625 4.125 -2 2 C-1.34 1.34 -0.68 0.68 0 0 Z " fill="#A6B3BD" transform="translate(392,999)"/>
<path d="M0 0 C0.33 0.66 0.66 1.32 1 2 C-1.47812494 5.45167403 -2.79606135 7.23163306 -7 8 C-6.02133662 6.85373678 -5.04205413 5.70800212 -4.0625 4.5625 C-3.51722656 3.92441406 -2.97195313 3.28632812 -2.41015625 2.62890625 C-1.63204305 1.73008851 -0.84063472 0.84063472 0 0 Z " fill="#1C4561" transform="translate(421,976)"/>
<path d="M0 0 C2.5 2.3125 2.5 2.3125 5 5 C5 5.99 5 6.98 5 8 C2.21611025 6.29374499 1.14615794 5.52373261 0.25 2.3125 C0.1675 1.549375 0.085 0.78625 0 0 Z " fill="#496A81" transform="translate(467,990)"/>
<path d="M0 0 C1.67542976 0.28604898 3.34385343 0.61781233 5 1 C5.33 2.32 5.66 3.64 6 5 C5.01 5 4.02 5 3 5 C3 4.01 3 3.02 3 2 C1.68 1.67 0.36 1.34 -1 1 C-0.67 0.67 -0.34 0.34 0 0 Z " fill="#7991A1" transform="translate(425,950)"/>
<path d="M0 0 C0.66 0.33 1.32 0.66 2 1 C1.01 1.33 0.02 1.66 -1 2 C-1.33 2.99 -1.66 3.98 -2 5 C-2.66 5 -3.32 5 -4 5 C-4 5.66 -4 6.32 -4 7 C-4.66 6.67 -5.32 6.34 -6 6 C-4.98545548 3.4636387 -4.3146444 2.20648539 -2 0.6875 C-1.34 0.460625 -0.68 0.23375 0 0 Z " fill="#6F8596" transform="translate(388,1007)"/>
</svg>
